<?xml version="1.0" encoding="utf-8" standalone="no"?>
<!DOCTYPE svg PUBLIC "-//W3C//DTD SVG 1.1//EN"
  "http://www.w3.org/Graphics/SVG/1.1/DTD/svg11.dtd">
<!-- Created with matplotlib (https://matplotlib.org/) -->
<svg height="592.8855pt" version="1.1" viewBox="0 0 593.991 592.8855" width="593.991pt" xmlns="http://www.w3.org/2000/svg" xmlns:xlink="http://www.w3.org/1999/xlink">
 <metadata>
  <rdf:RDF xmlns:cc="http://creativecommons.org/ns#" xmlns:dc="http://purl.org/dc/elements/1.1/" xmlns:rdf="http://www.w3.org/1999/02/22-rdf-syntax-ns#">
   <cc:Work>
    <dc:type rdf:resource="http://purl.org/dc/dcmitype/StillImage"/>
    <dc:date>2021-09-02T15:34:10.129567</dc:date>
    <dc:format>image/svg+xml</dc:format>
    <dc:creator>
     <cc:Agent>
      <dc:title>Matplotlib v3.3.2, https://matplotlib.org/</dc:title>
     </cc:Agent>
    </dc:creator>
   </cc:Work>
  </rdf:RDF>
 </metadata>
 <defs>
  <style type="text/css">*{stroke-linecap:butt;stroke-linejoin:round;}</style>
 </defs>
 <g id="figure_1">
  <g id="patch_1">
   <path d="M 0 592.8855 
L 593.991 592.8855 
L 593.991 0 
L 0 0 
z
" style="fill:#ffffff;"/>
  </g>
  <g id="axes_1">
   <g id="patch_2">
    <path d="M 28.791 564.0945 
L 586.791 564.0945 
L 586.791 20.4945 
L 28.791 20.4945 
z
" style="fill:#eaeaf2;"/>
   </g>
   <g id="matplotlib.axis_1">
    <g id="xtick_1">
     <g id="line2d_1">
      <path clip-path="url(#p8b26c11736)" d="M 75.10702 564.0945 
L 75.10702 20.4945 
" style="fill:none;stroke:#ffffff;stroke-linecap:round;stroke-width:0.8;"/>
     </g>
    </g>
    <g id="xtick_2">
     <g id="line2d_2">
      <path clip-path="url(#p8b26c11736)" d="M 172.290355 564.0945 
L 172.290355 20.4945 
" style="fill:none;stroke:#ffffff;stroke-linecap:round;stroke-width:0.8;"/>
     </g>
    </g>
    <g id="xtick_3">
     <g id="line2d_3">
      <path clip-path="url(#p8b26c11736)" d="M 269.473689 564.0945 
L 269.473689 20.4945 
" style="fill:none;stroke:#ffffff;stroke-linecap:round;stroke-width:0.8;"/>
     </g>
    </g>
    <g id="xtick_4">
     <g id="line2d_4">
      <path clip-path="url(#p8b26c11736)" d="M 366.657024 564.0945 
L 366.657024 20.4945 
" style="fill:none;stroke:#ffffff;stroke-linecap:round;stroke-width:0.8;"/>
     </g>
    </g>
    <g id="xtick_5">
     <g id="line2d_5">
      <path clip-path="url(#p8b26c11736)" d="M 463.840358 564.0945 
L 463.840358 20.4945 
" style="fill:none;stroke:#ffffff;stroke-linecap:round;stroke-width:0.8;"/>
     </g>
    </g>
    <g id="xtick_6">
     <g id="line2d_6">
      <path clip-path="url(#p8b26c11736)" d="M 561.023693 564.0945 
L 561.023693 20.4945 
" style="fill:none;stroke:#ffffff;stroke-linecap:round;stroke-width:0.8;"/>
     </g>
    </g>
    <g id="text_1">
     <!-- Komponente X -->
     <g style="fill:#262626;" transform="translate(272.60025 583.689)scale(0.096 -0.096)">
      <defs>
       <path d="M 9.8125 72.90625 
L 19.671875 72.90625 
L 19.671875 42.09375 
L 52.390625 72.90625 
L 65.09375 72.90625 
L 28.90625 38.921875 
L 67.671875 0 
L 54.6875 0 
L 19.671875 35.109375 
L 19.671875 0 
L 9.8125 0 
z
" id="DejaVuSans-75"/>
       <path d="M 30.609375 48.390625 
Q 23.390625 48.390625 19.1875 42.75 
Q 14.984375 37.109375 14.984375 27.296875 
Q 14.984375 17.484375 19.15625 11.84375 
Q 23.34375 6.203125 30.609375 6.203125 
Q 37.796875 6.203125 41.984375 11.859375 
Q 46.1875 17.53125 46.1875 27.296875 
Q 46.1875 37.015625 41.984375 42.703125 
Q 37.796875 48.390625 30.609375 48.390625 
z
M 30.609375 56 
Q 42.328125 56 49.015625 48.375 
Q 55.71875 40.765625 55.71875 27.296875 
Q 55.71875 13.875 49.015625 6.21875 
Q 42.328125 -1.421875 30.609375 -1.421875 
Q 18.84375 -1.421875 12.171875 6.21875 
Q 5.515625 13.875 5.515625 27.296875 
Q 5.515625 40.765625 12.171875 48.375 
Q 18.84375 56 30.609375 56 
z
" id="DejaVuSans-111"/>
       <path d="M 52 44.1875 
Q 55.375 50.25 60.0625 53.125 
Q 64.75 56 71.09375 56 
Q 79.640625 56 84.28125 50.015625 
Q 88.921875 44.046875 88.921875 33.015625 
L 88.921875 0 
L 79.890625 0 
L 79.890625 32.71875 
Q 79.890625 40.578125 77.09375 44.375 
Q 74.3125 48.1875 68.609375 48.1875 
Q 61.625 48.1875 57.5625 43.546875 
Q 53.515625 38.921875 53.515625 30.90625 
L 53.515625 0 
L 44.484375 0 
L 44.484375 32.71875 
Q 44.484375 40.625 41.703125 44.40625 
Q 38.921875 48.1875 33.109375 48.1875 
Q 26.21875 48.1875 22.15625 43.53125 
Q 18.109375 38.875 18.109375 30.90625 
L 18.109375 0 
L 9.078125 0 
L 9.078125 54.6875 
L 18.109375 54.6875 
L 18.109375 46.1875 
Q 21.1875 51.21875 25.484375 53.609375 
Q 29.78125 56 35.6875 56 
Q 41.65625 56 45.828125 52.96875 
Q 50 49.953125 52 44.1875 
z
" id="DejaVuSans-109"/>
       <path d="M 18.109375 8.203125 
L 18.109375 -20.796875 
L 9.078125 -20.796875 
L 9.078125 54.6875 
L 18.109375 54.6875 
L 18.109375 46.390625 
Q 20.953125 51.265625 25.265625 53.625 
Q 29.59375 56 35.59375 56 
Q 45.5625 56 51.78125 48.09375 
Q 58.015625 40.1875 58.015625 27.296875 
Q 58.015625 14.40625 51.78125 6.484375 
Q 45.5625 -1.421875 35.59375 -1.421875 
Q 29.59375 -1.421875 25.265625 0.953125 
Q 20.953125 3.328125 18.109375 8.203125 
z
M 48.6875 27.296875 
Q 48.6875 37.203125 44.609375 42.84375 
Q 40.53125 48.484375 33.40625 48.484375 
Q 26.265625 48.484375 22.1875 42.84375 
Q 18.109375 37.203125 18.109375 27.296875 
Q 18.109375 17.390625 22.1875 11.75 
Q 26.265625 6.109375 33.40625 6.109375 
Q 40.53125 6.109375 44.609375 11.75 
Q 48.6875 17.390625 48.6875 27.296875 
z
" id="DejaVuSans-112"/>
       <path d="M 54.890625 33.015625 
L 54.890625 0 
L 45.90625 0 
L 45.90625 32.71875 
Q 45.90625 40.484375 42.875 44.328125 
Q 39.84375 48.1875 33.796875 48.1875 
Q 26.515625 48.1875 22.3125 43.546875 
Q 18.109375 38.921875 18.109375 30.90625 
L 18.109375 0 
L 9.078125 0 
L 9.078125 54.6875 
L 18.109375 54.6875 
L 18.109375 46.1875 
Q 21.34375 51.125 25.703125 53.5625 
Q 30.078125 56 35.796875 56 
Q 45.21875 56 50.046875 50.171875 
Q 54.890625 44.34375 54.890625 33.015625 
z
" id="DejaVuSans-110"/>
       <path d="M 56.203125 29.59375 
L 56.203125 25.203125 
L 14.890625 25.203125 
Q 15.484375 15.921875 20.484375 11.0625 
Q 25.484375 6.203125 34.421875 6.203125 
Q 39.59375 6.203125 44.453125 7.46875 
Q 49.3125 8.734375 54.109375 11.28125 
L 54.109375 2.78125 
Q 49.265625 0.734375 44.1875 -0.34375 
Q 39.109375 -1.421875 33.890625 -1.421875 
Q 20.796875 -1.421875 13.15625 6.1875 
Q 5.515625 13.8125 5.515625 26.8125 
Q 5.515625 40.234375 12.765625 48.109375 
Q 20.015625 56 32.328125 56 
Q 43.359375 56 49.78125 48.890625 
Q 56.203125 41.796875 56.203125 29.59375 
z
M 47.21875 32.234375 
Q 47.125 39.59375 43.09375 43.984375 
Q 39.0625 48.390625 32.421875 48.390625 
Q 24.90625 48.390625 20.390625 44.140625 
Q 15.875 39.890625 15.1875 32.171875 
z
" id="DejaVuSans-101"/>
       <path d="M 18.3125 70.21875 
L 18.3125 54.6875 
L 36.8125 54.6875 
L 36.8125 47.703125 
L 18.3125 47.703125 
L 18.3125 18.015625 
Q 18.3125 11.328125 20.140625 9.421875 
Q 21.96875 7.515625 27.59375 7.515625 
L 36.8125 7.515625 
L 36.8125 0 
L 27.59375 0 
Q 17.1875 0 13.234375 3.875 
Q 9.28125 7.765625 9.28125 18.015625 
L 9.28125 47.703125 
L 2.6875 47.703125 
L 2.6875 54.6875 
L 9.28125 54.6875 
L 9.28125 70.21875 
z
" id="DejaVuSans-116"/>
       <path id="DejaVuSans-32"/>
       <path d="M 6.296875 72.90625 
L 16.890625 72.90625 
L 35.015625 45.796875 
L 53.21875 72.90625 
L 63.8125 72.90625 
L 40.375 37.890625 
L 65.375 0 
L 54.78125 0 
L 34.28125 31 
L 13.625 0 
L 2.984375 0 
L 29 38.921875 
z
" id="DejaVuSans-88"/>
      </defs>
      <use xlink:href="#DejaVuSans-75"/>
      <use x="60.576172" xlink:href="#DejaVuSans-111"/>
      <use x="121.757812" xlink:href="#DejaVuSans-109"/>
      <use x="219.169922" xlink:href="#DejaVuSans-112"/>
      <use x="282.646484" xlink:href="#DejaVuSans-111"/>
      <use x="343.828125" xlink:href="#DejaVuSans-110"/>
      <use x="407.207031" xlink:href="#DejaVuSans-101"/>
      <use x="468.730469" xlink:href="#DejaVuSans-110"/>
      <use x="532.109375" xlink:href="#DejaVuSans-116"/>
      <use x="571.318359" xlink:href="#DejaVuSans-101"/>
      <use x="632.841797" xlink:href="#DejaVuSans-32"/>
      <use x="664.628906" xlink:href="#DejaVuSans-88"/>
     </g>
    </g>
   </g>
   <g id="matplotlib.axis_2">
    <g id="ytick_1">
     <g id="line2d_7">
      <path clip-path="url(#p8b26c11736)" d="M 28.791 553.744747 
L 586.791 553.744747 
" style="fill:none;stroke:#ffffff;stroke-linecap:round;stroke-width:0.8;"/>
     </g>
    </g>
    <g id="ytick_2">
     <g id="line2d_8">
      <path clip-path="url(#p8b26c11736)" d="M 28.791 490.758677 
L 586.791 490.758677 
" style="fill:none;stroke:#ffffff;stroke-linecap:round;stroke-width:0.8;"/>
     </g>
    </g>
    <g id="ytick_3">
     <g id="line2d_9">
      <path clip-path="url(#p8b26c11736)" d="M 28.791 427.772606 
L 586.791 427.772606 
" style="fill:none;stroke:#ffffff;stroke-linecap:round;stroke-width:0.8;"/>
     </g>
    </g>
    <g id="ytick_4">
     <g id="line2d_10">
      <path clip-path="url(#p8b26c11736)" d="M 28.791 364.786536 
L 586.791 364.786536 
" style="fill:none;stroke:#ffffff;stroke-linecap:round;stroke-width:0.8;"/>
     </g>
    </g>
    <g id="ytick_5">
     <g id="line2d_11">
      <path clip-path="url(#p8b26c11736)" d="M 28.791 301.800465 
L 586.791 301.800465 
" style="fill:none;stroke:#ffffff;stroke-linecap:round;stroke-width:0.8;"/>
     </g>
    </g>
    <g id="ytick_6">
     <g id="line2d_12">
      <path clip-path="url(#p8b26c11736)" d="M 28.791 238.814395 
L 586.791 238.814395 
" style="fill:none;stroke:#ffffff;stroke-linecap:round;stroke-width:0.8;"/>
     </g>
    </g>
    <g id="ytick_7">
     <g id="line2d_13">
      <path clip-path="url(#p8b26c11736)" d="M 28.791 175.828324 
L 586.791 175.828324 
" style="fill:none;stroke:#ffffff;stroke-linecap:round;stroke-width:0.8;"/>
     </g>
    </g>
    <g id="ytick_8">
     <g id="line2d_14">
      <path clip-path="url(#p8b26c11736)" d="M 28.791 112.842253 
L 586.791 112.842253 
" style="fill:none;stroke:#ffffff;stroke-linecap:round;stroke-width:0.8;"/>
     </g>
    </g>
    <g id="ytick_9">
     <g id="line2d_15">
      <path clip-path="url(#p8b26c11736)" d="M 28.791 49.856183 
L 586.791 49.856183 
" style="fill:none;stroke:#ffffff;stroke-linecap:round;stroke-width:0.8;"/>
     </g>
    </g>
    <g id="text_2">
     <!-- Komponente Y -->
     <g style="fill:#262626;" transform="translate(14.4945 327.129)rotate(-90)scale(0.096 -0.096)">
      <defs>
       <path d="M -0.203125 72.90625 
L 10.40625 72.90625 
L 30.609375 42.921875 
L 50.6875 72.90625 
L 61.28125 72.90625 
L 35.5 34.71875 
L 35.5 0 
L 25.59375 0 
L 25.59375 34.71875 
z
" id="DejaVuSans-89"/>
      </defs>
      <use xlink:href="#DejaVuSans-75"/>
      <use x="60.576172" xlink:href="#DejaVuSans-111"/>
      <use x="121.757812" xlink:href="#DejaVuSans-109"/>
      <use x="219.169922" xlink:href="#DejaVuSans-112"/>
      <use x="282.646484" xlink:href="#DejaVuSans-111"/>
      <use x="343.828125" xlink:href="#DejaVuSans-110"/>
      <use x="407.207031" xlink:href="#DejaVuSans-101"/>
      <use x="468.730469" xlink:href="#DejaVuSans-110"/>
      <use x="532.109375" xlink:href="#DejaVuSans-116"/>
      <use x="571.318359" xlink:href="#DejaVuSans-101"/>
      <use x="632.841797" xlink:href="#DejaVuSans-32"/>
      <use x="664.628906" xlink:href="#DejaVuSans-89"/>
     </g>
    </g>
   </g>
   <g id="PathCollection_1">
    <defs>
     <path d="M 0 2.4 
C 0.636487 2.4 1.246992 2.147121 1.697056 1.697056 
C 2.147121 1.246992 2.4 0.636487 2.4 -0 
C 2.4 -0.636487 2.147121 -1.246992 1.697056 -1.697056 
C 1.246992 -2.147121 0.636487 -2.4 0 -2.4 
C -0.636487 -2.4 -1.246992 -2.147121 -1.697056 -1.697056 
C -2.147121 -1.246992 -2.4 -0.636487 -2.4 0 
C -2.4 0.636487 -2.147121 1.246992 -1.697056 1.697056 
C -1.246992 2.147121 -0.636487 2.4 0 2.4 
z
" id="C0_0_2bf25d2d2e"/>
    </defs>
    <g clip-path="url(#p8b26c11736)">
     <use style="fill:#937860;stroke:#ffffff;stroke-width:0.384;" x="561.427364" xlink:href="#C0_0_2bf25d2d2e" y="288.198475"/>
    </g>
    <g clip-path="url(#p8b26c11736)">
     <use style="fill:#937860;stroke:#ffffff;stroke-width:0.384;" x="501.77516" xlink:href="#C0_0_2bf25d2d2e" y="259.401586"/>
    </g>
    <g clip-path="url(#p8b26c11736)">
     <use style="fill:#dd8452;stroke:#ffffff;stroke-width:0.384;" x="435.03433" xlink:href="#C0_0_2bf25d2d2e" y="330.486422"/>
    </g>
    <g clip-path="url(#p8b26c11736)">
     <use style="fill:#dd8452;stroke:#ffffff;stroke-width:0.384;" x="372.90168" xlink:href="#C0_0_2bf25d2d2e" y="344.769199"/>
    </g>
    <g clip-path="url(#p8b26c11736)">
     <use style="fill:#dd8452;stroke:#ffffff;stroke-width:0.384;" x="408.514468" xlink:href="#C0_0_2bf25d2d2e" y="423.927065"/>
    </g>
    <g clip-path="url(#p8b26c11736)">
     <use style="fill:#937860;stroke:#ffffff;stroke-width:0.384;" x="478.568759" xlink:href="#C0_0_2bf25d2d2e" y="238.726984"/>
    </g>
    <g clip-path="url(#p8b26c11736)">
     <use style="fill:#55a868;stroke:#ffffff;stroke-width:0.384;" x="472.909927" xlink:href="#C0_0_2bf25d2d2e" y="125.511818"/>
    </g>
    <g clip-path="url(#p8b26c11736)">
     <use style="fill:#c44e52;stroke:#ffffff;stroke-width:0.384;" x="54.154636" xlink:href="#C0_0_2bf25d2d2e" y="348.065392"/>
    </g>
    <g clip-path="url(#p8b26c11736)">
     <use style="fill:#c44e52;stroke:#ffffff;stroke-width:0.384;" x="117.968107" xlink:href="#C0_0_2bf25d2d2e" y="405.65386"/>
    </g>
    <g clip-path="url(#p8b26c11736)">
     <use style="fill:#c44e52;stroke:#ffffff;stroke-width:0.384;" x="80.603788" xlink:href="#C0_0_2bf25d2d2e" y="309.211531"/>
    </g>
    <g clip-path="url(#p8b26c11736)">
     <use style="fill:#dd8452;stroke:#ffffff;stroke-width:0.384;" x="346.857153" xlink:href="#C0_0_2bf25d2d2e" y="393.088266"/>
    </g>
    <g clip-path="url(#p8b26c11736)">
     <use style="fill:#8172b3;stroke:#ffffff;stroke-width:0.384;" x="237.150409" xlink:href="#C0_0_2bf25d2d2e" y="151.49817"/>
    </g>
    <g clip-path="url(#p8b26c11736)">
     <use style="fill:#c44e52;stroke:#ffffff;stroke-width:0.384;" x="86.45728" xlink:href="#C0_0_2bf25d2d2e" y="277.748932"/>
    </g>
    <g clip-path="url(#p8b26c11736)">
     <use style="fill:#55a868;stroke:#ffffff;stroke-width:0.384;" x="390.012429" xlink:href="#C0_0_2bf25d2d2e" y="45.203591"/>
    </g>
    <g clip-path="url(#p8b26c11736)">
     <use style="fill:#55a868;stroke:#ffffff;stroke-width:0.384;" x="406.046552" xlink:href="#C0_0_2bf25d2d2e" y="133.495029"/>
    </g>
    <g clip-path="url(#p8b26c11736)">
     <use style="fill:#c44e52;stroke:#ffffff;stroke-width:0.384;" x="68.021938" xlink:href="#C0_0_2bf25d2d2e" y="250.371313"/>
    </g>
    <g clip-path="url(#p8b26c11736)">
     <use style="fill:#dd8452;stroke:#ffffff;stroke-width:0.384;" x="433.892034" xlink:href="#C0_0_2bf25d2d2e" y="539.385409"/>
    </g>
    <g clip-path="url(#p8b26c11736)">
     <use style="fill:#8172b3;stroke:#ffffff;stroke-width:0.384;" x="340.994961" xlink:href="#C0_0_2bf25d2d2e" y="237.439851"/>
    </g>
    <g clip-path="url(#p8b26c11736)">
     <use style="fill:#937860;stroke:#ffffff;stroke-width:0.384;" x="503.981222" xlink:href="#C0_0_2bf25d2d2e" y="248.404404"/>
    </g>
    <g clip-path="url(#p8b26c11736)">
     <use style="fill:#4c72b0;stroke:#ffffff;stroke-width:0.384;" x="182.233368" xlink:href="#C0_0_2bf25d2d2e" y="328.794248"/>
    </g>
    <g clip-path="url(#p8b26c11736)">
     <use style="fill:#dd8452;stroke:#ffffff;stroke-width:0.384;" x="295.909861" xlink:href="#C0_0_2bf25d2d2e" y="474.301869"/>
    </g>
    <g clip-path="url(#p8b26c11736)">
     <use style="fill:#c44e52;stroke:#ffffff;stroke-width:0.384;" x="128.095355" xlink:href="#C0_0_2bf25d2d2e" y="367.144998"/>
    </g>
    <g clip-path="url(#p8b26c11736)">
     <use style="fill:#dd8452;stroke:#ffffff;stroke-width:0.384;" x="435.403001" xlink:href="#C0_0_2bf25d2d2e" y="529.077998"/>
    </g>
    <g clip-path="url(#p8b26c11736)">
     <use style="fill:#4c72b0;stroke:#ffffff;stroke-width:0.384;" x="188.038905" xlink:href="#C0_0_2bf25d2d2e" y="239.529831"/>
    </g>
    <g clip-path="url(#p8b26c11736)">
     <use style="fill:#8172b3;stroke:#ffffff;stroke-width:0.384;" x="267.884672" xlink:href="#C0_0_2bf25d2d2e" y="181.173531"/>
    </g>
    <g clip-path="url(#p8b26c11736)">
     <use style="fill:#c44e52;stroke:#ffffff;stroke-width:0.384;" x="118.047804" xlink:href="#C0_0_2bf25d2d2e" y="371.53211"/>
    </g>
    <g clip-path="url(#p8b26c11736)">
     <use style="fill:#4c72b0;stroke:#ffffff;stroke-width:0.384;" x="196.936783" xlink:href="#C0_0_2bf25d2d2e" y="199.634992"/>
    </g>
    <g clip-path="url(#p8b26c11736)">
     <use style="fill:#4c72b0;stroke:#ffffff;stroke-width:0.384;" x="171.529868" xlink:href="#C0_0_2bf25d2d2e" y="261.840049"/>
    </g>
    <g clip-path="url(#p8b26c11736)">
     <use style="fill:#8172b3;stroke:#ffffff;stroke-width:0.384;" x="301.834975" xlink:href="#C0_0_2bf25d2d2e" y="210.092644"/>
    </g>
    <g clip-path="url(#p8b26c11736)">
     <use style="fill:#4c72b0;stroke:#ffffff;stroke-width:0.384;" x="197.892988" xlink:href="#C0_0_2bf25d2d2e" y="327.337123"/>
    </g>
    <g clip-path="url(#p8b26c11736)">
     <use style="fill:#c44e52;stroke:#ffffff;stroke-width:0.384;" x="82.769342" xlink:href="#C0_0_2bf25d2d2e" y="254.276956"/>
    </g>
    <g clip-path="url(#p8b26c11736)">
     <use style="fill:#dd8452;stroke:#ffffff;stroke-width:0.384;" x="370.773692" xlink:href="#C0_0_2bf25d2d2e" y="425.858832"/>
    </g>
    <g clip-path="url(#p8b26c11736)">
     <use style="fill:#c44e52;stroke:#ffffff;stroke-width:0.384;" x="91.297563" xlink:href="#C0_0_2bf25d2d2e" y="261.931194"/>
    </g>
    <g clip-path="url(#p8b26c11736)">
     <use style="fill:#c44e52;stroke:#ffffff;stroke-width:0.384;" x="95.608426" xlink:href="#C0_0_2bf25d2d2e" y="266.161186"/>
    </g>
    <g clip-path="url(#p8b26c11736)">
     <use style="fill:#dd8452;stroke:#ffffff;stroke-width:0.384;" x="370.022126" xlink:href="#C0_0_2bf25d2d2e" y="448.773491"/>
    </g>
    <g clip-path="url(#p8b26c11736)">
     <use style="fill:#c44e52;stroke:#ffffff;stroke-width:0.384;" x="67.076088" xlink:href="#C0_0_2bf25d2d2e" y="348.772198"/>
    </g>
    <g clip-path="url(#p8b26c11736)">
     <use style="fill:#c44e52;stroke:#ffffff;stroke-width:0.384;" x="111.899489" xlink:href="#C0_0_2bf25d2d2e" y="319.79666"/>
    </g>
   </g>
   <g id="PathCollection_2"/>
   <g id="PathCollection_3"/>
   <g id="PathCollection_4"/>
   <g id="PathCollection_5"/>
   <g id="PathCollection_6"/>
   <g id="PathCollection_7"/>
   <g id="patch_3">
    <path d="M 28.791 564.0945 
L 28.791 20.4945 
" style="fill:none;stroke:#ffffff;stroke-linecap:square;stroke-linejoin:miter;"/>
   </g>
   <g id="patch_4">
    <path d="M 586.791 564.0945 
L 586.791 20.4945 
" style="fill:none;stroke:#ffffff;stroke-linecap:square;stroke-linejoin:miter;"/>
   </g>
   <g id="patch_5">
    <path d="M 28.791 564.0945 
L 586.791 564.0945 
" style="fill:none;stroke:#ffffff;stroke-linecap:square;stroke-linejoin:miter;"/>
   </g>
   <g id="patch_6">
    <path d="M 28.791 20.4945 
L 586.791 20.4945 
" style="fill:none;stroke:#ffffff;stroke-linecap:square;stroke-linejoin:miter;"/>
   </g>
   <g id="text_3">
    <!-- AfD -->
    <g style="fill:#00008b;" transform="translate(566.28653 281.899868)scale(0.079968 -0.079968)">
     <defs>
      <path d="M 53.421875 13.28125 
L 24.03125 13.28125 
L 19.390625 0 
L 0.484375 0 
L 27.484375 72.90625 
L 49.90625 72.90625 
L 76.90625 0 
L 58.015625 0 
z
M 28.71875 26.8125 
L 48.6875 26.8125 
L 38.71875 55.8125 
z
" id="DejaVuSans-Bold-65"/>
      <path d="M 44.390625 75.984375 
L 44.390625 64.5 
L 34.71875 64.5 
Q 31 64.5 29.53125 63.15625 
Q 28.078125 61.8125 28.078125 58.5 
L 28.078125 54.6875 
L 43.015625 54.6875 
L 43.015625 42.1875 
L 28.078125 42.1875 
L 28.078125 0 
L 10.59375 0 
L 10.59375 42.1875 
L 1.90625 42.1875 
L 1.90625 54.6875 
L 10.59375 54.6875 
L 10.59375 58.5 
Q 10.59375 67.4375 15.578125 71.703125 
Q 20.5625 75.984375 31 75.984375 
z
" id="DejaVuSans-Bold-102"/>
      <path d="M 27.984375 58.6875 
L 27.984375 14.203125 
L 34.71875 14.203125 
Q 46.234375 14.203125 52.3125 19.921875 
Q 58.40625 25.640625 58.40625 36.53125 
Q 58.40625 47.359375 52.34375 53.015625 
Q 46.296875 58.6875 34.71875 58.6875 
z
M 9.1875 72.90625 
L 29 72.90625 
Q 45.609375 72.90625 53.734375 70.53125 
Q 61.859375 68.171875 67.671875 62.5 
Q 72.796875 57.5625 75.28125 51.109375 
Q 77.78125 44.671875 77.78125 36.53125 
Q 77.78125 28.265625 75.28125 21.796875 
Q 72.796875 15.328125 67.671875 10.40625 
Q 61.8125 4.734375 53.609375 2.359375 
Q 45.40625 0 29 0 
L 9.1875 0 
z
" id="DejaVuSans-Bold-68"/>
     </defs>
     <use xlink:href="#DejaVuSans-Bold-65"/>
     <use x="77.392578" xlink:href="#DejaVuSans-Bold-102"/>
     <use x="120.898438" xlink:href="#DejaVuSans-Bold-68"/>
    </g>
   </g>
   <g id="text_4">
    <!-- BP -->
    <g transform="translate(506.634327 253.102979)scale(0.079968 -0.079968)">
     <defs>
      <path d="M 19.671875 34.8125 
L 19.671875 8.109375 
L 35.5 8.109375 
Q 43.453125 8.109375 47.28125 11.40625 
Q 51.125 14.703125 51.125 21.484375 
Q 51.125 28.328125 47.28125 31.5625 
Q 43.453125 34.8125 35.5 34.8125 
z
M 19.671875 64.796875 
L 19.671875 42.828125 
L 34.28125 42.828125 
Q 41.5 42.828125 45.03125 45.53125 
Q 48.578125 48.25 48.578125 53.8125 
Q 48.578125 59.328125 45.03125 62.0625 
Q 41.5 64.796875 34.28125 64.796875 
z
M 9.8125 72.90625 
L 35.015625 72.90625 
Q 46.296875 72.90625 52.390625 68.21875 
Q 58.5 63.53125 58.5 54.890625 
Q 58.5 48.1875 55.375 44.234375 
Q 52.25 40.28125 46.1875 39.3125 
Q 53.46875 37.75 57.5 32.78125 
Q 61.53125 27.828125 61.53125 20.40625 
Q 61.53125 10.640625 54.890625 5.3125 
Q 48.25 0 35.984375 0 
L 9.8125 0 
z
" id="DejaVuSans-66"/>
      <path d="M 19.671875 64.796875 
L 19.671875 37.40625 
L 32.078125 37.40625 
Q 38.96875 37.40625 42.71875 40.96875 
Q 46.484375 44.53125 46.484375 51.125 
Q 46.484375 57.671875 42.71875 61.234375 
Q 38.96875 64.796875 32.078125 64.796875 
z
M 9.8125 72.90625 
L 32.078125 72.90625 
Q 44.34375 72.90625 50.609375 67.359375 
Q 56.890625 61.8125 56.890625 51.125 
Q 56.890625 40.328125 50.609375 34.8125 
Q 44.34375 29.296875 32.078125 29.296875 
L 19.671875 29.296875 
L 19.671875 0 
L 9.8125 0 
z
" id="DejaVuSans-80"/>
     </defs>
     <use xlink:href="#DejaVuSans-66"/>
     <use x="68.603516" xlink:href="#DejaVuSans-80"/>
    </g>
   </g>
   <g id="text_5">
    <!-- BÜNDNIS21 -->
    <g transform="translate(439.893497 324.187815)scale(0.079968 -0.079968)">
     <defs>
      <path d="M 8.6875 72.90625 
L 18.609375 72.90625 
L 18.609375 28.609375 
Q 18.609375 16.890625 22.84375 11.734375 
Q 27.09375 6.59375 36.625 6.59375 
Q 46.09375 6.59375 50.34375 11.734375 
Q 54.59375 16.890625 54.59375 28.609375 
L 54.59375 72.90625 
L 64.5 72.90625 
L 64.5 27.390625 
Q 64.5 13.140625 57.4375 5.859375 
Q 50.390625 -1.421875 36.625 -1.421875 
Q 22.796875 -1.421875 15.734375 5.859375 
Q 8.6875 13.140625 8.6875 27.390625 
z
M 41.21875 91.3125 
L 51.125 91.3125 
L 51.125 81.40625 
L 41.21875 81.40625 
z
M 22.125 91.3125 
L 32.03125 91.3125 
L 32.03125 81.40625 
L 22.125 81.40625 
z
" id="DejaVuSans-220"/>
      <path d="M 9.8125 72.90625 
L 23.09375 72.90625 
L 55.421875 11.921875 
L 55.421875 72.90625 
L 64.984375 72.90625 
L 64.984375 0 
L 51.703125 0 
L 19.390625 60.984375 
L 19.390625 0 
L 9.8125 0 
z
" id="DejaVuSans-78"/>
      <path d="M 19.671875 64.796875 
L 19.671875 8.109375 
L 31.59375 8.109375 
Q 46.6875 8.109375 53.6875 14.9375 
Q 60.6875 21.78125 60.6875 36.53125 
Q 60.6875 51.171875 53.6875 57.984375 
Q 46.6875 64.796875 31.59375 64.796875 
z
M 9.8125 72.90625 
L 30.078125 72.90625 
Q 51.265625 72.90625 61.171875 64.09375 
Q 71.09375 55.28125 71.09375 36.53125 
Q 71.09375 17.671875 61.125 8.828125 
Q 51.171875 0 30.078125 0 
L 9.8125 0 
z
" id="DejaVuSans-68"/>
      <path d="M 9.8125 72.90625 
L 19.671875 72.90625 
L 19.671875 0 
L 9.8125 0 
z
" id="DejaVuSans-73"/>
      <path d="M 53.515625 70.515625 
L 53.515625 60.890625 
Q 47.90625 63.578125 42.921875 64.890625 
Q 37.9375 66.21875 33.296875 66.21875 
Q 25.25 66.21875 20.875 63.09375 
Q 16.5 59.96875 16.5 54.203125 
Q 16.5 49.359375 19.40625 46.890625 
Q 22.3125 44.4375 30.421875 42.921875 
L 36.375 41.703125 
Q 47.40625 39.59375 52.65625 34.296875 
Q 57.90625 29 57.90625 20.125 
Q 57.90625 9.515625 50.796875 4.046875 
Q 43.703125 -1.421875 29.984375 -1.421875 
Q 24.8125 -1.421875 18.96875 -0.25 
Q 13.140625 0.921875 6.890625 3.21875 
L 6.890625 13.375 
Q 12.890625 10.015625 18.65625 8.296875 
Q 24.421875 6.59375 29.984375 6.59375 
Q 38.421875 6.59375 43.015625 9.90625 
Q 47.609375 13.234375 47.609375 19.390625 
Q 47.609375 24.75 44.3125 27.78125 
Q 41.015625 30.8125 33.5 32.328125 
L 27.484375 33.5 
Q 16.453125 35.6875 11.515625 40.375 
Q 6.59375 45.0625 6.59375 53.421875 
Q 6.59375 63.09375 13.40625 68.65625 
Q 20.21875 74.21875 32.171875 74.21875 
Q 37.3125 74.21875 42.625 73.28125 
Q 47.953125 72.359375 53.515625 70.515625 
z
" id="DejaVuSans-83"/>
      <path d="M 19.1875 8.296875 
L 53.609375 8.296875 
L 53.609375 0 
L 7.328125 0 
L 7.328125 8.296875 
Q 12.9375 14.109375 22.625 23.890625 
Q 32.328125 33.6875 34.8125 36.53125 
Q 39.546875 41.84375 41.421875 45.53125 
Q 43.3125 49.21875 43.3125 52.78125 
Q 43.3125 58.59375 39.234375 62.25 
Q 35.15625 65.921875 28.609375 65.921875 
Q 23.96875 65.921875 18.8125 64.3125 
Q 13.671875 62.703125 7.8125 59.421875 
L 7.8125 69.390625 
Q 13.765625 71.78125 18.9375 73 
Q 24.125 74.21875 28.421875 74.21875 
Q 39.75 74.21875 46.484375 68.546875 
Q 53.21875 62.890625 53.21875 53.421875 
Q 53.21875 48.921875 51.53125 44.890625 
Q 49.859375 40.875 45.40625 35.40625 
Q 44.1875 33.984375 37.640625 27.21875 
Q 31.109375 20.453125 19.1875 8.296875 
z
" id="DejaVuSans-50"/>
      <path d="M 12.40625 8.296875 
L 28.515625 8.296875 
L 28.515625 63.921875 
L 10.984375 60.40625 
L 10.984375 69.390625 
L 28.421875 72.90625 
L 38.28125 72.90625 
L 38.28125 8.296875 
L 54.390625 8.296875 
L 54.390625 0 
L 12.40625 0 
z
" id="DejaVuSans-49"/>
     </defs>
     <use xlink:href="#DejaVuSans-66"/>
     <use x="68.603516" xlink:href="#DejaVuSans-220"/>
     <use x="141.796875" xlink:href="#DejaVuSans-78"/>
     <use x="216.601562" xlink:href="#DejaVuSans-68"/>
     <use x="293.603516" xlink:href="#DejaVuSans-78"/>
     <use x="368.408203" xlink:href="#DejaVuSans-73"/>
     <use x="397.900391" xlink:href="#DejaVuSans-83"/>
     <use x="461.376953" xlink:href="#DejaVuSans-50"/>
     <use x="525" xlink:href="#DejaVuSans-49"/>
    </g>
   </g>
   <g id="text_6">
    <!-- BÜRGERBEWEGUNG -->
    <g transform="translate(377.760846 338.470591)scale(0.079968 -0.079968)">
     <defs>
      <path d="M 44.390625 34.1875 
Q 47.5625 33.109375 50.5625 29.59375 
Q 53.5625 26.078125 56.59375 19.921875 
L 66.609375 0 
L 56 0 
L 46.6875 18.703125 
Q 43.0625 26.03125 39.671875 28.421875 
Q 36.28125 30.8125 30.421875 30.8125 
L 19.671875 30.8125 
L 19.671875 0 
L 9.8125 0 
L 9.8125 72.90625 
L 32.078125 72.90625 
Q 44.578125 72.90625 50.734375 67.671875 
Q 56.890625 62.453125 56.890625 51.90625 
Q 56.890625 45.015625 53.6875 40.46875 
Q 50.484375 35.9375 44.390625 34.1875 
z
M 19.671875 64.796875 
L 19.671875 38.921875 
L 32.078125 38.921875 
Q 39.203125 38.921875 42.84375 42.21875 
Q 46.484375 45.515625 46.484375 51.90625 
Q 46.484375 58.296875 42.84375 61.546875 
Q 39.203125 64.796875 32.078125 64.796875 
z
" id="DejaVuSans-82"/>
      <path d="M 59.515625 10.40625 
L 59.515625 29.984375 
L 43.40625 29.984375 
L 43.40625 38.09375 
L 69.28125 38.09375 
L 69.28125 6.78125 
Q 63.578125 2.734375 56.6875 0.65625 
Q 49.8125 -1.421875 42 -1.421875 
Q 24.90625 -1.421875 15.25 8.5625 
Q 5.609375 18.5625 5.609375 36.375 
Q 5.609375 54.25 15.25 64.234375 
Q 24.90625 74.21875 42 74.21875 
Q 49.125 74.21875 55.546875 72.453125 
Q 61.96875 70.703125 67.390625 67.28125 
L 67.390625 56.78125 
Q 61.921875 61.421875 55.765625 63.765625 
Q 49.609375 66.109375 42.828125 66.109375 
Q 29.4375 66.109375 22.71875 58.640625 
Q 16.015625 51.171875 16.015625 36.375 
Q 16.015625 21.625 22.71875 14.15625 
Q 29.4375 6.6875 42.828125 6.6875 
Q 48.046875 6.6875 52.140625 7.59375 
Q 56.25 8.5 59.515625 10.40625 
z
" id="DejaVuSans-71"/>
      <path d="M 9.8125 72.90625 
L 55.90625 72.90625 
L 55.90625 64.59375 
L 19.671875 64.59375 
L 19.671875 43.015625 
L 54.390625 43.015625 
L 54.390625 34.71875 
L 19.671875 34.71875 
L 19.671875 8.296875 
L 56.78125 8.296875 
L 56.78125 0 
L 9.8125 0 
z
" id="DejaVuSans-69"/>
      <path d="M 3.328125 72.90625 
L 13.28125 72.90625 
L 28.609375 11.28125 
L 43.890625 72.90625 
L 54.984375 72.90625 
L 70.3125 11.28125 
L 85.59375 72.90625 
L 95.609375 72.90625 
L 77.296875 0 
L 64.890625 0 
L 49.515625 63.28125 
L 33.984375 0 
L 21.578125 0 
z
" id="DejaVuSans-87"/>
      <path d="M 8.6875 72.90625 
L 18.609375 72.90625 
L 18.609375 28.609375 
Q 18.609375 16.890625 22.84375 11.734375 
Q 27.09375 6.59375 36.625 6.59375 
Q 46.09375 6.59375 50.34375 11.734375 
Q 54.59375 16.890625 54.59375 28.609375 
L 54.59375 72.90625 
L 64.5 72.90625 
L 64.5 27.390625 
Q 64.5 13.140625 57.4375 5.859375 
Q 50.390625 -1.421875 36.625 -1.421875 
Q 22.796875 -1.421875 15.734375 5.859375 
Q 8.6875 13.140625 8.6875 27.390625 
z
" id="DejaVuSans-85"/>
     </defs>
     <use xlink:href="#DejaVuSans-66"/>
     <use x="68.603516" xlink:href="#DejaVuSans-220"/>
     <use x="141.796875" xlink:href="#DejaVuSans-82"/>
     <use x="211.279297" xlink:href="#DejaVuSans-71"/>
     <use x="288.769531" xlink:href="#DejaVuSans-69"/>
     <use x="351.953125" xlink:href="#DejaVuSans-82"/>
     <use x="421.435547" xlink:href="#DejaVuSans-66"/>
     <use x="490.039062" xlink:href="#DejaVuSans-69"/>
     <use x="553.222656" xlink:href="#DejaVuSans-87"/>
     <use x="652.099609" xlink:href="#DejaVuSans-69"/>
     <use x="715.283203" xlink:href="#DejaVuSans-71"/>
     <use x="792.773438" xlink:href="#DejaVuSans-85"/>
     <use x="865.966797" xlink:href="#DejaVuSans-78"/>
     <use x="940.771484" xlink:href="#DejaVuSans-71"/>
    </g>
   </g>
   <g id="text_7">
    <!-- BüSo -->
    <g transform="translate(413.373635 417.628458)scale(0.079968 -0.079968)">
     <defs>
      <path d="M 8.5 21.578125 
L 8.5 54.6875 
L 17.484375 54.6875 
L 17.484375 21.921875 
Q 17.484375 14.15625 20.5 10.265625 
Q 23.53125 6.390625 29.59375 6.390625 
Q 36.859375 6.390625 41.078125 11.03125 
Q 45.3125 15.671875 45.3125 23.6875 
L 45.3125 54.6875 
L 54.296875 54.6875 
L 54.296875 0 
L 45.3125 0 
L 45.3125 8.40625 
Q 42.046875 3.421875 37.71875 1 
Q 33.40625 -1.421875 27.6875 -1.421875 
Q 18.265625 -1.421875 13.375 4.4375 
Q 8.5 10.296875 8.5 21.578125 
z
M 31.109375 56 
z
M 35.59375 75.78125 
L 45.515625 75.78125 
L 45.515625 65.921875 
L 35.59375 65.921875 
z
M 16.5 75.78125 
L 26.421875 75.78125 
L 26.421875 65.921875 
L 16.5 65.921875 
z
" id="DejaVuSans-252"/>
     </defs>
     <use xlink:href="#DejaVuSans-66"/>
     <use x="68.603516" xlink:href="#DejaVuSans-252"/>
     <use x="131.982422" xlink:href="#DejaVuSans-83"/>
     <use x="195.458984" xlink:href="#DejaVuSans-111"/>
    </g>
   </g>
   <g id="text_8">
    <!-- Bündnis C -->
    <g transform="translate(483.427925 232.428377)scale(0.079968 -0.079968)">
     <defs>
      <path d="M 45.40625 46.390625 
L 45.40625 75.984375 
L 54.390625 75.984375 
L 54.390625 0 
L 45.40625 0 
L 45.40625 8.203125 
Q 42.578125 3.328125 38.25 0.953125 
Q 33.9375 -1.421875 27.875 -1.421875 
Q 17.96875 -1.421875 11.734375 6.484375 
Q 5.515625 14.40625 5.515625 27.296875 
Q 5.515625 40.1875 11.734375 48.09375 
Q 17.96875 56 27.875 56 
Q 33.9375 56 38.25 53.625 
Q 42.578125 51.265625 45.40625 46.390625 
z
M 14.796875 27.296875 
Q 14.796875 17.390625 18.875 11.75 
Q 22.953125 6.109375 30.078125 6.109375 
Q 37.203125 6.109375 41.296875 11.75 
Q 45.40625 17.390625 45.40625 27.296875 
Q 45.40625 37.203125 41.296875 42.84375 
Q 37.203125 48.484375 30.078125 48.484375 
Q 22.953125 48.484375 18.875 42.84375 
Q 14.796875 37.203125 14.796875 27.296875 
z
" id="DejaVuSans-100"/>
      <path d="M 9.421875 54.6875 
L 18.40625 54.6875 
L 18.40625 0 
L 9.421875 0 
z
M 9.421875 75.984375 
L 18.40625 75.984375 
L 18.40625 64.59375 
L 9.421875 64.59375 
z
" id="DejaVuSans-105"/>
      <path d="M 44.28125 53.078125 
L 44.28125 44.578125 
Q 40.484375 46.53125 36.375 47.5 
Q 32.28125 48.484375 27.875 48.484375 
Q 21.1875 48.484375 17.84375 46.4375 
Q 14.5 44.390625 14.5 40.28125 
Q 14.5 37.15625 16.890625 35.375 
Q 19.28125 33.59375 26.515625 31.984375 
L 29.59375 31.296875 
Q 39.15625 29.25 43.1875 25.515625 
Q 47.21875 21.78125 47.21875 15.09375 
Q 47.21875 7.46875 41.1875 3.015625 
Q 35.15625 -1.421875 24.609375 -1.421875 
Q 20.21875 -1.421875 15.453125 -0.5625 
Q 10.6875 0.296875 5.421875 2 
L 5.421875 11.28125 
Q 10.40625 8.6875 15.234375 7.390625 
Q 20.0625 6.109375 24.8125 6.109375 
Q 31.15625 6.109375 34.5625 8.28125 
Q 37.984375 10.453125 37.984375 14.40625 
Q 37.984375 18.0625 35.515625 20.015625 
Q 33.0625 21.96875 24.703125 23.78125 
L 21.578125 24.515625 
Q 13.234375 26.265625 9.515625 29.90625 
Q 5.8125 33.546875 5.8125 39.890625 
Q 5.8125 47.609375 11.28125 51.796875 
Q 16.75 56 26.8125 56 
Q 31.78125 56 36.171875 55.265625 
Q 40.578125 54.546875 44.28125 53.078125 
z
" id="DejaVuSans-115"/>
      <path d="M 64.40625 67.28125 
L 64.40625 56.890625 
Q 59.421875 61.53125 53.78125 63.8125 
Q 48.140625 66.109375 41.796875 66.109375 
Q 29.296875 66.109375 22.65625 58.46875 
Q 16.015625 50.828125 16.015625 36.375 
Q 16.015625 21.96875 22.65625 14.328125 
Q 29.296875 6.6875 41.796875 6.6875 
Q 48.140625 6.6875 53.78125 8.984375 
Q 59.421875 11.28125 64.40625 15.921875 
L 64.40625 5.609375 
Q 59.234375 2.09375 53.4375 0.328125 
Q 47.65625 -1.421875 41.21875 -1.421875 
Q 24.65625 -1.421875 15.125 8.703125 
Q 5.609375 18.84375 5.609375 36.375 
Q 5.609375 53.953125 15.125 64.078125 
Q 24.65625 74.21875 41.21875 74.21875 
Q 47.75 74.21875 53.53125 72.484375 
Q 59.328125 70.75 64.40625 67.28125 
z
" id="DejaVuSans-67"/>
     </defs>
     <use xlink:href="#DejaVuSans-66"/>
     <use x="68.603516" xlink:href="#DejaVuSans-252"/>
     <use x="131.982422" xlink:href="#DejaVuSans-110"/>
     <use x="195.361328" xlink:href="#DejaVuSans-100"/>
     <use x="258.837891" xlink:href="#DejaVuSans-110"/>
     <use x="322.216797" xlink:href="#DejaVuSans-105"/>
     <use x="350" xlink:href="#DejaVuSans-115"/>
     <use x="402.099609" xlink:href="#DejaVuSans-32"/>
     <use x="433.886719" xlink:href="#DejaVuSans-67"/>
    </g>
   </g>
   <g id="text_9">
    <!-- CDU / CSU -->
    <g transform="translate(477.769094 119.213211)scale(0.079968 -0.079968)">
     <defs>
      <path d="M 25.390625 72.90625 
L 33.6875 72.90625 
L 8.296875 -9.28125 
L 0 -9.28125 
z
" id="DejaVuSans-47"/>
     </defs>
     <use xlink:href="#DejaVuSans-67"/>
     <use x="69.824219" xlink:href="#DejaVuSans-68"/>
     <use x="146.826172" xlink:href="#DejaVuSans-85"/>
     <use x="220.019531" xlink:href="#DejaVuSans-32"/>
     <use x="251.806641" xlink:href="#DejaVuSans-47"/>
     <use x="285.498047" xlink:href="#DejaVuSans-32"/>
     <use x="317.285156" xlink:href="#DejaVuSans-67"/>
     <use x="387.109375" xlink:href="#DejaVuSans-83"/>
     <use x="450.585938" xlink:href="#DejaVuSans-85"/>
    </g>
   </g>
   <g id="text_10">
    <!-- DIE LINKE -->
    <g style="fill:#00008b;" transform="translate(59.013803 341.766785)scale(0.079968 -0.079968)">
     <defs>
      <path d="M 9.1875 72.90625 
L 27.984375 72.90625 
L 27.984375 0 
L 9.1875 0 
z
" id="DejaVuSans-Bold-73"/>
      <path d="M 9.1875 72.90625 
L 59.90625 72.90625 
L 59.90625 58.6875 
L 27.984375 58.6875 
L 27.984375 45.125 
L 58.015625 45.125 
L 58.015625 30.90625 
L 27.984375 30.90625 
L 27.984375 14.203125 
L 60.984375 14.203125 
L 60.984375 0 
L 9.1875 0 
z
" id="DejaVuSans-Bold-69"/>
      <path id="DejaVuSans-Bold-32"/>
      <path d="M 9.1875 72.90625 
L 27.984375 72.90625 
L 27.984375 14.203125 
L 60.984375 14.203125 
L 60.984375 0 
L 9.1875 0 
z
" id="DejaVuSans-Bold-76"/>
      <path d="M 9.1875 72.90625 
L 30.171875 72.90625 
L 56.6875 22.90625 
L 56.6875 72.90625 
L 74.515625 72.90625 
L 74.515625 0 
L 53.515625 0 
L 27 50 
L 27 0 
L 9.1875 0 
z
" id="DejaVuSans-Bold-78"/>
      <path d="M 9.1875 72.90625 
L 27.984375 72.90625 
L 27.984375 46.296875 
L 55.078125 72.90625 
L 76.90625 72.90625 
L 41.796875 38.375 
L 80.515625 0 
L 56.984375 0 
L 27.984375 28.71875 
L 27.984375 0 
L 9.1875 0 
z
" id="DejaVuSans-Bold-75"/>
     </defs>
     <use xlink:href="#DejaVuSans-Bold-68"/>
     <use x="83.007812" xlink:href="#DejaVuSans-Bold-73"/>
     <use x="120.214844" xlink:href="#DejaVuSans-Bold-69"/>
     <use x="188.525391" xlink:href="#DejaVuSans-Bold-32"/>
     <use x="223.339844" xlink:href="#DejaVuSans-Bold-76"/>
     <use x="287.060547" xlink:href="#DejaVuSans-Bold-73"/>
     <use x="324.267578" xlink:href="#DejaVuSans-Bold-78"/>
     <use x="407.958984" xlink:href="#DejaVuSans-Bold-75"/>
     <use x="485.449219" xlink:href="#DejaVuSans-Bold-69"/>
    </g>
   </g>
   <g id="text_11">
    <!-- DKP -->
    <g transform="translate(122.827273 399.355253)scale(0.079968 -0.079968)">
     <use xlink:href="#DejaVuSans-68"/>
     <use x="77.001953" xlink:href="#DejaVuSans-75"/>
     <use x="142.578125" xlink:href="#DejaVuSans-80"/>
    </g>
   </g>
   <g id="text_12">
    <!-- DiB -->
    <g transform="translate(85.462955 302.912924)scale(0.079968 -0.079968)">
     <use xlink:href="#DejaVuSans-68"/>
     <use x="77.001953" xlink:href="#DejaVuSans-105"/>
     <use x="104.785156" xlink:href="#DejaVuSans-66"/>
    </g>
   </g>
   <g id="text_13">
    <!-- Die Grauen -->
    <g transform="translate(351.71632 386.789659)scale(0.079968 -0.079968)">
     <defs>
      <path d="M 41.109375 46.296875 
Q 39.59375 47.171875 37.8125 47.578125 
Q 36.03125 48 33.890625 48 
Q 26.265625 48 22.1875 43.046875 
Q 18.109375 38.09375 18.109375 28.8125 
L 18.109375 0 
L 9.078125 0 
L 9.078125 54.6875 
L 18.109375 54.6875 
L 18.109375 46.1875 
Q 20.953125 51.171875 25.484375 53.578125 
Q 30.03125 56 36.53125 56 
Q 37.453125 56 38.578125 55.875 
Q 39.703125 55.765625 41.0625 55.515625 
z
" id="DejaVuSans-114"/>
      <path d="M 34.28125 27.484375 
Q 23.390625 27.484375 19.1875 25 
Q 14.984375 22.515625 14.984375 16.5 
Q 14.984375 11.71875 18.140625 8.90625 
Q 21.296875 6.109375 26.703125 6.109375 
Q 34.1875 6.109375 38.703125 11.40625 
Q 43.21875 16.703125 43.21875 25.484375 
L 43.21875 27.484375 
z
M 52.203125 31.203125 
L 52.203125 0 
L 43.21875 0 
L 43.21875 8.296875 
Q 40.140625 3.328125 35.546875 0.953125 
Q 30.953125 -1.421875 24.3125 -1.421875 
Q 15.921875 -1.421875 10.953125 3.296875 
Q 6 8.015625 6 15.921875 
Q 6 25.140625 12.171875 29.828125 
Q 18.359375 34.515625 30.609375 34.515625 
L 43.21875 34.515625 
L 43.21875 35.40625 
Q 43.21875 41.609375 39.140625 45 
Q 35.0625 48.390625 27.6875 48.390625 
Q 23 48.390625 18.546875 47.265625 
Q 14.109375 46.140625 10.015625 43.890625 
L 10.015625 52.203125 
Q 14.9375 54.109375 19.578125 55.046875 
Q 24.21875 56 28.609375 56 
Q 40.484375 56 46.34375 49.84375 
Q 52.203125 43.703125 52.203125 31.203125 
z
" id="DejaVuSans-97"/>
      <path d="M 8.5 21.578125 
L 8.5 54.6875 
L 17.484375 54.6875 
L 17.484375 21.921875 
Q 17.484375 14.15625 20.5 10.265625 
Q 23.53125 6.390625 29.59375 6.390625 
Q 36.859375 6.390625 41.078125 11.03125 
Q 45.3125 15.671875 45.3125 23.6875 
L 45.3125 54.6875 
L 54.296875 54.6875 
L 54.296875 0 
L 45.3125 0 
L 45.3125 8.40625 
Q 42.046875 3.421875 37.71875 1 
Q 33.40625 -1.421875 27.6875 -1.421875 
Q 18.265625 -1.421875 13.375 4.4375 
Q 8.5 10.296875 8.5 21.578125 
z
M 31.109375 56 
z
" id="DejaVuSans-117"/>
     </defs>
     <use xlink:href="#DejaVuSans-68"/>
     <use x="77.001953" xlink:href="#DejaVuSans-105"/>
     <use x="104.785156" xlink:href="#DejaVuSans-101"/>
     <use x="166.308594" xlink:href="#DejaVuSans-32"/>
     <use x="198.095703" xlink:href="#DejaVuSans-71"/>
     <use x="275.585938" xlink:href="#DejaVuSans-114"/>
     <use x="316.699219" xlink:href="#DejaVuSans-97"/>
     <use x="377.978516" xlink:href="#DejaVuSans-117"/>
     <use x="441.357422" xlink:href="#DejaVuSans-101"/>
     <use x="502.880859" xlink:href="#DejaVuSans-110"/>
    </g>
   </g>
   <g id="text_14">
    <!-- Die Humanisten -->
    <g transform="translate(242.009576 145.199563)scale(0.079968 -0.079968)">
     <defs>
      <path d="M 9.8125 72.90625 
L 19.671875 72.90625 
L 19.671875 43.015625 
L 55.515625 43.015625 
L 55.515625 72.90625 
L 65.375 72.90625 
L 65.375 0 
L 55.515625 0 
L 55.515625 34.71875 
L 19.671875 34.71875 
L 19.671875 0 
L 9.8125 0 
z
" id="DejaVuSans-72"/>
     </defs>
     <use xlink:href="#DejaVuSans-68"/>
     <use x="77.001953" xlink:href="#DejaVuSans-105"/>
     <use x="104.785156" xlink:href="#DejaVuSans-101"/>
     <use x="166.308594" xlink:href="#DejaVuSans-32"/>
     <use x="198.095703" xlink:href="#DejaVuSans-72"/>
     <use x="273.291016" xlink:href="#DejaVuSans-117"/>
     <use x="336.669922" xlink:href="#DejaVuSans-109"/>
     <use x="434.082031" xlink:href="#DejaVuSans-97"/>
     <use x="495.361328" xlink:href="#DejaVuSans-110"/>
     <use x="558.740234" xlink:href="#DejaVuSans-105"/>
     <use x="586.523438" xlink:href="#DejaVuSans-115"/>
     <use x="638.623047" xlink:href="#DejaVuSans-116"/>
     <use x="677.832031" xlink:href="#DejaVuSans-101"/>
     <use x="739.355469" xlink:href="#DejaVuSans-110"/>
    </g>
   </g>
   <g id="text_15">
    <!-- Die PARTEI -->
    <g transform="translate(91.316447 271.450325)scale(0.079968 -0.079968)">
     <defs>
      <path d="M 34.1875 63.1875 
L 20.796875 26.90625 
L 47.609375 26.90625 
z
M 28.609375 72.90625 
L 39.796875 72.90625 
L 67.578125 0 
L 57.328125 0 
L 50.6875 18.703125 
L 17.828125 18.703125 
L 11.1875 0 
L 0.78125 0 
z
" id="DejaVuSans-65"/>
      <path d="M -0.296875 72.90625 
L 61.375 72.90625 
L 61.375 64.59375 
L 35.5 64.59375 
L 35.5 0 
L 25.59375 0 
L 25.59375 64.59375 
L -0.296875 64.59375 
z
" id="DejaVuSans-84"/>
     </defs>
     <use xlink:href="#DejaVuSans-68"/>
     <use x="77.001953" xlink:href="#DejaVuSans-105"/>
     <use x="104.785156" xlink:href="#DejaVuSans-101"/>
     <use x="166.308594" xlink:href="#DejaVuSans-32"/>
     <use x="198.095703" xlink:href="#DejaVuSans-80"/>
     <use x="252.023438" xlink:href="#DejaVuSans-65"/>
     <use x="320.431641" xlink:href="#DejaVuSans-82"/>
     <use x="382.664062" xlink:href="#DejaVuSans-84"/>
     <use x="443.748047" xlink:href="#DejaVuSans-69"/>
     <use x="506.931641" xlink:href="#DejaVuSans-73"/>
    </g>
   </g>
   <g id="text_16">
    <!-- FDP -->
    <g style="fill:#00008b;" transform="translate(394.871596 38.904984)scale(0.079968 -0.079968)">
     <defs>
      <path d="M 9.1875 72.90625 
L 59.90625 72.90625 
L 59.90625 58.6875 
L 27.984375 58.6875 
L 27.984375 45.125 
L 58.015625 45.125 
L 58.015625 30.90625 
L 27.984375 30.90625 
L 27.984375 0 
L 9.1875 0 
z
" id="DejaVuSans-Bold-70"/>
      <path d="M 9.1875 72.90625 
L 40.375 72.90625 
Q 54.296875 72.90625 61.734375 66.71875 
Q 69.1875 60.546875 69.1875 49.125 
Q 69.1875 37.640625 61.734375 31.46875 
Q 54.296875 25.296875 40.375 25.296875 
L 27.984375 25.296875 
L 27.984375 0 
L 9.1875 0 
z
M 27.984375 59.28125 
L 27.984375 38.921875 
L 38.375 38.921875 
Q 43.84375 38.921875 46.828125 41.578125 
Q 49.8125 44.234375 49.8125 49.125 
Q 49.8125 54 46.828125 56.640625 
Q 43.84375 59.28125 38.375 59.28125 
z
" id="DejaVuSans-Bold-80"/>
     </defs>
     <use xlink:href="#DejaVuSans-Bold-70"/>
     <use x="68.310547" xlink:href="#DejaVuSans-Bold-68"/>
     <use x="151.318359" xlink:href="#DejaVuSans-Bold-80"/>
    </g>
   </g>
   <g id="text_17">
    <!-- FREIE WÄHLER -->
    <g transform="translate(410.905718 127.196422)scale(0.079968 -0.079968)">
     <defs>
      <path d="M 9.8125 72.90625 
L 51.703125 72.90625 
L 51.703125 64.59375 
L 19.671875 64.59375 
L 19.671875 43.109375 
L 48.578125 43.109375 
L 48.578125 34.8125 
L 19.671875 34.8125 
L 19.671875 0 
L 9.8125 0 
z
" id="DejaVuSans-70"/>
      <path d="M 34.1875 63.1875 
L 20.796875 26.90625 
L 47.609375 26.90625 
z
M 28.609375 72.90625 
L 39.796875 72.90625 
L 67.578125 0 
L 57.328125 0 
L 50.6875 18.703125 
L 17.828125 18.703125 
L 11.1875 0 
L 0.78125 0 
z
M 38.765625 91.3125 
L 48.6875 91.3125 
L 48.6875 81.40625 
L 38.765625 81.40625 
z
M 19.671875 91.3125 
L 29.59375 91.3125 
L 29.59375 81.40625 
L 19.671875 81.40625 
z
" id="DejaVuSans-196"/>
      <path d="M 9.8125 72.90625 
L 19.671875 72.90625 
L 19.671875 8.296875 
L 55.171875 8.296875 
L 55.171875 0 
L 9.8125 0 
z
" id="DejaVuSans-76"/>
     </defs>
     <use xlink:href="#DejaVuSans-70"/>
     <use x="57.519531" xlink:href="#DejaVuSans-82"/>
     <use x="127.001953" xlink:href="#DejaVuSans-69"/>
     <use x="190.185547" xlink:href="#DejaVuSans-73"/>
     <use x="219.677734" xlink:href="#DejaVuSans-69"/>
     <use x="282.861328" xlink:href="#DejaVuSans-32"/>
     <use x="314.648438" xlink:href="#DejaVuSans-87"/>
     <use x="408.025391" xlink:href="#DejaVuSans-196"/>
     <use x="476.433594" xlink:href="#DejaVuSans-72"/>
     <use x="551.628906" xlink:href="#DejaVuSans-76"/>
     <use x="607.341797" xlink:href="#DejaVuSans-69"/>
     <use x="670.525391" xlink:href="#DejaVuSans-82"/>
    </g>
   </g>
   <g id="text_18">
    <!-- GRÜNE -->
    <g style="fill:#00008b;" transform="translate(72.881105 244.072706)scale(0.079968 -0.079968)">
     <defs>
      <path d="M 74.703125 5.421875 
Q 67.671875 2 60.109375 0.28125 
Q 52.546875 -1.421875 44.484375 -1.421875 
Q 26.265625 -1.421875 15.625 8.765625 
Q 4.984375 18.953125 4.984375 36.375 
Q 4.984375 54 15.8125 64.109375 
Q 26.65625 74.21875 45.515625 74.21875 
Q 52.78125 74.21875 59.4375 72.84375 
Q 66.109375 71.484375 72.015625 68.796875 
L 72.015625 53.71875 
Q 65.921875 57.171875 59.890625 58.875 
Q 53.859375 60.59375 47.796875 60.59375 
Q 36.578125 60.59375 30.5 54.3125 
Q 24.421875 48.046875 24.421875 36.375 
Q 24.421875 24.8125 30.28125 18.5 
Q 36.140625 12.203125 46.921875 12.203125 
Q 49.859375 12.203125 52.375 12.5625 
Q 54.890625 12.9375 56.890625 13.71875 
L 56.890625 27.875 
L 45.40625 27.875 
L 45.40625 40.484375 
L 74.703125 40.484375 
z
" id="DejaVuSans-Bold-71"/>
      <path d="M 35.890625 40.578125 
Q 41.796875 40.578125 44.359375 42.765625 
Q 46.921875 44.96875 46.921875 50 
Q 46.921875 54.984375 44.359375 57.125 
Q 41.796875 59.28125 35.890625 59.28125 
L 27.984375 59.28125 
L 27.984375 40.578125 
z
M 27.984375 27.59375 
L 27.984375 0 
L 9.1875 0 
L 9.1875 72.90625 
L 37.890625 72.90625 
Q 52.296875 72.90625 59 68.0625 
Q 65.71875 63.234375 65.71875 52.78125 
Q 65.71875 45.5625 62.21875 40.921875 
Q 58.734375 36.28125 51.703125 34.078125 
Q 55.5625 33.203125 58.609375 30.09375 
Q 61.671875 27 64.796875 20.703125 
L 75 0 
L 54.984375 0 
L 46.09375 18.109375 
Q 43.40625 23.578125 40.640625 25.578125 
Q 37.890625 27.59375 33.296875 27.59375 
z
" id="DejaVuSans-Bold-82"/>
      <path d="M 9.1875 72.90625 
L 27.984375 72.90625 
L 27.984375 29.203125 
Q 27.984375 20.171875 30.9375 16.28125 
Q 33.890625 12.40625 40.578125 12.40625 
Q 47.3125 12.40625 50.265625 16.28125 
Q 53.21875 20.171875 53.21875 29.203125 
L 53.21875 72.90625 
L 72.015625 72.90625 
L 72.015625 29.203125 
Q 72.015625 13.71875 64.25 6.140625 
Q 56.5 -1.421875 40.578125 -1.421875 
Q 24.703125 -1.421875 16.9375 6.140625 
Q 9.1875 13.71875 9.1875 29.203125 
z
M 25.25 92.734375 
L 36.71875 92.734375 
L 36.71875 80.71875 
L 25.25 80.71875 
z
M 44.53125 92.734375 
L 56 92.734375 
L 56 80.71875 
L 44.53125 80.71875 
z
" id="DejaVuSans-Bold-220"/>
     </defs>
     <use xlink:href="#DejaVuSans-Bold-71"/>
     <use x="82.080078" xlink:href="#DejaVuSans-Bold-82"/>
     <use x="159.082031" xlink:href="#DejaVuSans-Bold-220"/>
     <use x="240.283203" xlink:href="#DejaVuSans-Bold-78"/>
     <use x="323.974609" xlink:href="#DejaVuSans-Bold-69"/>
    </g>
   </g>
   <g id="text_19">
    <!-- III. Weg -->
    <g transform="translate(438.751201 533.086802)scale(0.079968 -0.079968)">
     <defs>
      <path d="M 10.6875 12.40625 
L 21 12.40625 
L 21 0 
L 10.6875 0 
z
" id="DejaVuSans-46"/>
      <path d="M 45.40625 27.984375 
Q 45.40625 37.75 41.375 43.109375 
Q 37.359375 48.484375 30.078125 48.484375 
Q 22.859375 48.484375 18.828125 43.109375 
Q 14.796875 37.75 14.796875 27.984375 
Q 14.796875 18.265625 18.828125 12.890625 
Q 22.859375 7.515625 30.078125 7.515625 
Q 37.359375 7.515625 41.375 12.890625 
Q 45.40625 18.265625 45.40625 27.984375 
z
M 54.390625 6.78125 
Q 54.390625 -7.171875 48.1875 -13.984375 
Q 42 -20.796875 29.203125 -20.796875 
Q 24.46875 -20.796875 20.265625 -20.09375 
Q 16.0625 -19.390625 12.109375 -17.921875 
L 12.109375 -9.1875 
Q 16.0625 -11.328125 19.921875 -12.34375 
Q 23.78125 -13.375 27.78125 -13.375 
Q 36.625 -13.375 41.015625 -8.765625 
Q 45.40625 -4.15625 45.40625 5.171875 
L 45.40625 9.625 
Q 42.625 4.78125 38.28125 2.390625 
Q 33.9375 0 27.875 0 
Q 17.828125 0 11.671875 7.65625 
Q 5.515625 15.328125 5.515625 27.984375 
Q 5.515625 40.671875 11.671875 48.328125 
Q 17.828125 56 27.875 56 
Q 33.9375 56 38.28125 53.609375 
Q 42.625 51.21875 45.40625 46.390625 
L 45.40625 54.6875 
L 54.390625 54.6875 
z
" id="DejaVuSans-103"/>
     </defs>
     <use xlink:href="#DejaVuSans-73"/>
     <use x="29.492188" xlink:href="#DejaVuSans-73"/>
     <use x="58.984375" xlink:href="#DejaVuSans-73"/>
     <use x="88.476562" xlink:href="#DejaVuSans-46"/>
     <use x="120.263672" xlink:href="#DejaVuSans-32"/>
     <use x="152.050781" xlink:href="#DejaVuSans-87"/>
     <use x="245.052734" xlink:href="#DejaVuSans-101"/>
     <use x="306.576172" xlink:href="#DejaVuSans-103"/>
    </g>
   </g>
   <g id="text_20">
    <!-- LIEBE -->
    <g transform="translate(345.854127 231.141244)scale(0.079968 -0.079968)">
     <use xlink:href="#DejaVuSans-76"/>
     <use x="55.712891" xlink:href="#DejaVuSans-73"/>
     <use x="85.205078" xlink:href="#DejaVuSans-69"/>
     <use x="148.388672" xlink:href="#DejaVuSans-66"/>
     <use x="216.992188" xlink:href="#DejaVuSans-69"/>
    </g>
   </g>
   <g id="text_21">
    <!-- LKR -->
    <g transform="translate(508.840389 242.105797)scale(0.079968 -0.079968)">
     <use xlink:href="#DejaVuSans-76"/>
     <use x="55.712891" xlink:href="#DejaVuSans-75"/>
     <use x="121.289062" xlink:href="#DejaVuSans-82"/>
    </g>
   </g>
   <g id="text_22">
    <!-- LfK -->
    <g transform="translate(187.092535 322.495641)scale(0.079968 -0.079968)">
     <defs>
      <path d="M 37.109375 75.984375 
L 37.109375 68.5 
L 28.515625 68.5 
Q 23.6875 68.5 21.796875 66.546875 
Q 19.921875 64.59375 19.921875 59.515625 
L 19.921875 54.6875 
L 34.71875 54.6875 
L 34.71875 47.703125 
L 19.921875 47.703125 
L 19.921875 0 
L 10.890625 0 
L 10.890625 47.703125 
L 2.296875 47.703125 
L 2.296875 54.6875 
L 10.890625 54.6875 
L 10.890625 58.5 
Q 10.890625 67.625 15.140625 71.796875 
Q 19.390625 75.984375 28.609375 75.984375 
z
" id="DejaVuSans-102"/>
     </defs>
     <use xlink:href="#DejaVuSans-76"/>
     <use x="55.712891" xlink:href="#DejaVuSans-102"/>
     <use x="90.917969" xlink:href="#DejaVuSans-75"/>
    </g>
   </g>
   <g id="text_23">
    <!-- MENSCHLICHE WELT -->
    <g transform="translate(300.769027 468.003262)scale(0.079968 -0.079968)">
     <defs>
      <path d="M 9.8125 72.90625 
L 24.515625 72.90625 
L 43.109375 23.296875 
L 61.8125 72.90625 
L 76.515625 72.90625 
L 76.515625 0 
L 66.890625 0 
L 66.890625 64.015625 
L 48.09375 14.015625 
L 38.1875 14.015625 
L 19.390625 64.015625 
L 19.390625 0 
L 9.8125 0 
z
" id="DejaVuSans-77"/>
     </defs>
     <use xlink:href="#DejaVuSans-77"/>
     <use x="86.279297" xlink:href="#DejaVuSans-69"/>
     <use x="149.462891" xlink:href="#DejaVuSans-78"/>
     <use x="224.267578" xlink:href="#DejaVuSans-83"/>
     <use x="287.744141" xlink:href="#DejaVuSans-67"/>
     <use x="357.568359" xlink:href="#DejaVuSans-72"/>
     <use x="432.763672" xlink:href="#DejaVuSans-76"/>
     <use x="488.476562" xlink:href="#DejaVuSans-73"/>
     <use x="517.96875" xlink:href="#DejaVuSans-67"/>
     <use x="587.792969" xlink:href="#DejaVuSans-72"/>
     <use x="662.988281" xlink:href="#DejaVuSans-69"/>
     <use x="726.171875" xlink:href="#DejaVuSans-32"/>
     <use x="757.958984" xlink:href="#DejaVuSans-87"/>
     <use x="856.835938" xlink:href="#DejaVuSans-69"/>
     <use x="920.019531" xlink:href="#DejaVuSans-76"/>
     <use x="961.982422" xlink:href="#DejaVuSans-84"/>
    </g>
   </g>
   <g id="text_24">
    <!-- MLPD -->
    <g transform="translate(132.954522 360.846391)scale(0.079968 -0.079968)">
     <use xlink:href="#DejaVuSans-77"/>
     <use x="86.279297" xlink:href="#DejaVuSans-76"/>
     <use x="141.992188" xlink:href="#DejaVuSans-80"/>
     <use x="202.294922" xlink:href="#DejaVuSans-68"/>
    </g>
   </g>
   <g id="text_25">
    <!-- NPD -->
    <g transform="translate(440.262168 522.779391)scale(0.079968 -0.079968)">
     <use xlink:href="#DejaVuSans-78"/>
     <use x="74.804688" xlink:href="#DejaVuSans-80"/>
     <use x="135.107422" xlink:href="#DejaVuSans-68"/>
    </g>
   </g>
   <g id="text_26">
    <!-- PIRATEN -->
    <g transform="translate(192.898072 233.231224)scale(0.079968 -0.079968)">
     <use xlink:href="#DejaVuSans-80"/>
     <use x="60.302734" xlink:href="#DejaVuSans-73"/>
     <use x="89.794922" xlink:href="#DejaVuSans-82"/>
     <use x="155.277344" xlink:href="#DejaVuSans-65"/>
     <use x="215.935547" xlink:href="#DejaVuSans-84"/>
     <use x="277.019531" xlink:href="#DejaVuSans-69"/>
     <use x="340.203125" xlink:href="#DejaVuSans-78"/>
    </g>
   </g>
   <g id="text_27">
    <!-- PdF -->
    <g transform="translate(272.743839 174.874924)scale(0.079968 -0.079968)">
     <use xlink:href="#DejaVuSans-80"/>
     <use x="60.302734" xlink:href="#DejaVuSans-100"/>
     <use x="123.779297" xlink:href="#DejaVuSans-70"/>
    </g>
   </g>
   <g id="text_28">
    <!-- SGP -->
    <g transform="translate(122.906971 365.233503)scale(0.079968 -0.079968)">
     <use xlink:href="#DejaVuSans-83"/>
     <use x="63.476562" xlink:href="#DejaVuSans-71"/>
     <use x="140.966797" xlink:href="#DejaVuSans-80"/>
    </g>
   </g>
   <g id="text_29">
    <!-- SPD -->
    <g style="fill:#00008b;" transform="translate(201.79595 193.336385)scale(0.079968 -0.079968)">
     <defs>
      <path d="M 59.90625 70.609375 
L 59.90625 55.171875 
Q 53.90625 57.859375 48.1875 59.21875 
Q 42.484375 60.59375 37.40625 60.59375 
Q 30.671875 60.59375 27.4375 58.734375 
Q 24.21875 56.890625 24.21875 52.984375 
Q 24.21875 50.046875 26.390625 48.40625 
Q 28.5625 46.78125 34.28125 45.609375 
L 42.28125 44 
Q 54.4375 41.546875 59.5625 36.5625 
Q 64.703125 31.59375 64.703125 22.40625 
Q 64.703125 10.359375 57.546875 4.46875 
Q 50.390625 -1.421875 35.6875 -1.421875 
Q 28.765625 -1.421875 21.78125 -0.09375 
Q 14.796875 1.21875 7.8125 3.8125 
L 7.8125 19.671875 
Q 14.796875 15.96875 21.3125 14.078125 
Q 27.828125 12.203125 33.890625 12.203125 
Q 40.046875 12.203125 43.3125 14.25 
Q 46.578125 16.3125 46.578125 20.125 
Q 46.578125 23.53125 44.359375 25.390625 
Q 42.140625 27.25 35.5 28.71875 
L 28.21875 30.328125 
Q 17.28125 32.671875 12.21875 37.796875 
Q 7.171875 42.921875 7.171875 51.609375 
Q 7.171875 62.5 14.203125 68.359375 
Q 21.234375 74.21875 34.421875 74.21875 
Q 40.4375 74.21875 46.78125 73.3125 
Q 53.125 72.40625 59.90625 70.609375 
z
" id="DejaVuSans-Bold-83"/>
     </defs>
     <use xlink:href="#DejaVuSans-Bold-83"/>
     <use x="72.021484" xlink:href="#DejaVuSans-Bold-80"/>
     <use x="145.3125" xlink:href="#DejaVuSans-Bold-68"/>
    </g>
   </g>
   <g id="text_30">
    <!-- SSW -->
    <g transform="translate(176.389035 255.541442)scale(0.079968 -0.079968)">
     <use xlink:href="#DejaVuSans-83"/>
     <use x="63.476562" xlink:href="#DejaVuSans-83"/>
     <use x="126.953125" xlink:href="#DejaVuSans-87"/>
    </g>
   </g>
   <g id="text_31">
    <!-- Team Todenhöfer -->
    <g transform="translate(306.694142 203.794037)scale(0.079968 -0.079968)">
     <defs>
      <path d="M 54.890625 33.015625 
L 54.890625 0 
L 45.90625 0 
L 45.90625 32.71875 
Q 45.90625 40.484375 42.875 44.328125 
Q 39.84375 48.1875 33.796875 48.1875 
Q 26.515625 48.1875 22.3125 43.546875 
Q 18.109375 38.921875 18.109375 30.90625 
L 18.109375 0 
L 9.078125 0 
L 9.078125 75.984375 
L 18.109375 75.984375 
L 18.109375 46.1875 
Q 21.34375 51.125 25.703125 53.5625 
Q 30.078125 56 35.796875 56 
Q 45.21875 56 50.046875 50.171875 
Q 54.890625 44.34375 54.890625 33.015625 
z
" id="DejaVuSans-104"/>
      <path d="M 30.609375 48.390625 
Q 23.390625 48.390625 19.1875 42.75 
Q 14.984375 37.109375 14.984375 27.296875 
Q 14.984375 17.484375 19.15625 11.84375 
Q 23.34375 6.203125 30.609375 6.203125 
Q 37.796875 6.203125 41.984375 11.859375 
Q 46.1875 17.53125 46.1875 27.296875 
Q 46.1875 37.015625 41.984375 42.703125 
Q 37.796875 48.390625 30.609375 48.390625 
z
M 30.609375 56 
Q 42.328125 56 49.015625 48.375 
Q 55.71875 40.765625 55.71875 27.296875 
Q 55.71875 13.875 49.015625 6.21875 
Q 42.328125 -1.421875 30.609375 -1.421875 
Q 18.84375 -1.421875 12.171875 6.21875 
Q 5.515625 13.875 5.515625 27.296875 
Q 5.515625 40.765625 12.171875 48.375 
Q 18.84375 56 30.609375 56 
z
M 35.203125 75.78125 
L 45.125 75.78125 
L 45.125 65.921875 
L 35.203125 65.921875 
z
M 16.109375 75.78125 
L 26.03125 75.78125 
L 26.03125 65.921875 
L 16.109375 65.921875 
z
" id="DejaVuSans-246"/>
     </defs>
     <use xlink:href="#DejaVuSans-84"/>
     <use x="44.083984" xlink:href="#DejaVuSans-101"/>
     <use x="105.607422" xlink:href="#DejaVuSans-97"/>
     <use x="166.886719" xlink:href="#DejaVuSans-109"/>
     <use x="264.298828" xlink:href="#DejaVuSans-32"/>
     <use x="296.085938" xlink:href="#DejaVuSans-84"/>
     <use x="340.169922" xlink:href="#DejaVuSans-111"/>
     <use x="401.351562" xlink:href="#DejaVuSans-100"/>
     <use x="464.828125" xlink:href="#DejaVuSans-101"/>
     <use x="526.351562" xlink:href="#DejaVuSans-110"/>
     <use x="589.730469" xlink:href="#DejaVuSans-104"/>
     <use x="653.109375" xlink:href="#DejaVuSans-246"/>
     <use x="714.291016" xlink:href="#DejaVuSans-102"/>
     <use x="749.496094" xlink:href="#DejaVuSans-101"/>
     <use x="811.019531" xlink:href="#DejaVuSans-114"/>
    </g>
   </g>
   <g id="text_32">
    <!-- Tierschutzallianz -->
    <g transform="translate(202.752155 321.038516)scale(0.079968 -0.079968)">
     <defs>
      <path d="M 48.78125 52.59375 
L 48.78125 44.1875 
Q 44.96875 46.296875 41.140625 47.34375 
Q 37.3125 48.390625 33.40625 48.390625 
Q 24.65625 48.390625 19.8125 42.84375 
Q 14.984375 37.3125 14.984375 27.296875 
Q 14.984375 17.28125 19.8125 11.734375 
Q 24.65625 6.203125 33.40625 6.203125 
Q 37.3125 6.203125 41.140625 7.25 
Q 44.96875 8.296875 48.78125 10.40625 
L 48.78125 2.09375 
Q 45.015625 0.34375 40.984375 -0.53125 
Q 36.96875 -1.421875 32.421875 -1.421875 
Q 20.0625 -1.421875 12.78125 6.34375 
Q 5.515625 14.109375 5.515625 27.296875 
Q 5.515625 40.671875 12.859375 48.328125 
Q 20.21875 56 33.015625 56 
Q 37.15625 56 41.109375 55.140625 
Q 45.0625 54.296875 48.78125 52.59375 
z
" id="DejaVuSans-99"/>
      <path d="M 5.515625 54.6875 
L 48.1875 54.6875 
L 48.1875 46.484375 
L 14.40625 7.171875 
L 48.1875 7.171875 
L 48.1875 0 
L 4.296875 0 
L 4.296875 8.203125 
L 38.09375 47.515625 
L 5.515625 47.515625 
z
" id="DejaVuSans-122"/>
      <path d="M 9.421875 75.984375 
L 18.40625 75.984375 
L 18.40625 0 
L 9.421875 0 
z
" id="DejaVuSans-108"/>
     </defs>
     <use xlink:href="#DejaVuSans-84"/>
     <use x="57.958984" xlink:href="#DejaVuSans-105"/>
     <use x="85.742188" xlink:href="#DejaVuSans-101"/>
     <use x="147.265625" xlink:href="#DejaVuSans-114"/>
     <use x="188.378906" xlink:href="#DejaVuSans-115"/>
     <use x="240.478516" xlink:href="#DejaVuSans-99"/>
     <use x="295.458984" xlink:href="#DejaVuSans-104"/>
     <use x="358.837891" xlink:href="#DejaVuSans-117"/>
     <use x="422.216797" xlink:href="#DejaVuSans-116"/>
     <use x="461.425781" xlink:href="#DejaVuSans-122"/>
     <use x="513.916016" xlink:href="#DejaVuSans-97"/>
     <use x="575.195312" xlink:href="#DejaVuSans-108"/>
     <use x="602.978516" xlink:href="#DejaVuSans-108"/>
     <use x="630.761719" xlink:href="#DejaVuSans-105"/>
     <use x="658.544922" xlink:href="#DejaVuSans-97"/>
     <use x="719.824219" xlink:href="#DejaVuSans-110"/>
     <use x="783.203125" xlink:href="#DejaVuSans-122"/>
    </g>
   </g>
   <g id="text_33">
    <!-- Tierschutzpartei -->
    <g transform="translate(87.628509 247.978349)scale(0.079968 -0.079968)">
     <use xlink:href="#DejaVuSans-84"/>
     <use x="57.958984" xlink:href="#DejaVuSans-105"/>
     <use x="85.742188" xlink:href="#DejaVuSans-101"/>
     <use x="147.265625" xlink:href="#DejaVuSans-114"/>
     <use x="188.378906" xlink:href="#DejaVuSans-115"/>
     <use x="240.478516" xlink:href="#DejaVuSans-99"/>
     <use x="295.458984" xlink:href="#DejaVuSans-104"/>
     <use x="358.837891" xlink:href="#DejaVuSans-117"/>
     <use x="422.216797" xlink:href="#DejaVuSans-116"/>
     <use x="461.425781" xlink:href="#DejaVuSans-122"/>
     <use x="513.916016" xlink:href="#DejaVuSans-112"/>
     <use x="577.392578" xlink:href="#DejaVuSans-97"/>
     <use x="638.671875" xlink:href="#DejaVuSans-114"/>
     <use x="679.785156" xlink:href="#DejaVuSans-116"/>
     <use x="718.994141" xlink:href="#DejaVuSans-101"/>
     <use x="780.517578" xlink:href="#DejaVuSans-105"/>
    </g>
   </g>
   <g id="text_34">
    <!-- UNABHÄNGIGE -->
    <g transform="translate(375.632859 419.560225)scale(0.079968 -0.079968)">
     <use xlink:href="#DejaVuSans-85"/>
     <use x="73.193359" xlink:href="#DejaVuSans-78"/>
     <use x="147.998047" xlink:href="#DejaVuSans-65"/>
     <use x="216.40625" xlink:href="#DejaVuSans-66"/>
     <use x="285.009766" xlink:href="#DejaVuSans-72"/>
     <use x="360.205078" xlink:href="#DejaVuSans-196"/>
     <use x="428.613281" xlink:href="#DejaVuSans-78"/>
     <use x="503.417969" xlink:href="#DejaVuSans-71"/>
     <use x="580.908203" xlink:href="#DejaVuSans-73"/>
     <use x="610.400391" xlink:href="#DejaVuSans-71"/>
     <use x="687.890625" xlink:href="#DejaVuSans-69"/>
    </g>
   </g>
   <g id="text_35">
    <!-- V-Partei³ -->
    <g transform="translate(96.15673 255.632586)scale(0.079968 -0.079968)">
     <defs>
      <path d="M 28.609375 0 
L 0.78125 72.90625 
L 11.078125 72.90625 
L 34.1875 11.53125 
L 57.328125 72.90625 
L 67.578125 72.90625 
L 39.796875 0 
z
" id="DejaVuSans-86"/>
      <path d="M 4.890625 31.390625 
L 31.203125 31.390625 
L 31.203125 23.390625 
L 4.890625 23.390625 
z
" id="DejaVuSans-45"/>
      <path d="M 25.59375 54.6875 
Q 30.078125 53.8125 32.546875 51.140625 
Q 35.015625 48.484375 35.015625 44.484375 
Q 35.015625 38.421875 30.375 35.15625 
Q 25.734375 31.890625 17.09375 31.890625 
Q 14.3125 31.890625 11.25 32.390625 
Q 8.203125 32.90625 4.78125 33.890625 
L 4.78125 39.796875 
Q 7.328125 38.484375 10.234375 37.84375 
Q 13.140625 37.203125 16.40625 37.203125 
Q 21.734375 37.203125 24.65625 39.125 
Q 27.59375 41.0625 27.59375 44.484375 
Q 27.59375 48.09375 24.875 49.953125 
Q 22.171875 51.8125 16.890625 51.8125 
L 12.703125 51.8125 
L 12.703125 57.078125 
L 17.28125 57.078125 
Q 21.875 57.078125 24.234375 58.609375 
Q 26.609375 60.15625 26.609375 63.09375 
Q 26.609375 65.921875 24.171875 67.40625 
Q 21.734375 68.890625 17.09375 68.890625 
Q 15.140625 68.890625 12.640625 68.453125 
Q 10.15625 68.015625 6.203125 66.890625 
L 6.203125 72.515625 
Q 9.765625 73.34375 12.890625 73.78125 
Q 16.015625 74.21875 18.703125 74.21875 
Q 25.734375 74.21875 29.859375 71.328125 
Q 33.984375 68.453125 33.984375 63.625 
Q 33.984375 60.25 31.78125 57.90625 
Q 29.59375 55.5625 25.59375 54.6875 
z
" id="DejaVuSans-179"/>
     </defs>
     <use xlink:href="#DejaVuSans-86"/>
     <use x="62.533203" xlink:href="#DejaVuSans-45"/>
     <use x="98.617188" xlink:href="#DejaVuSans-80"/>
     <use x="154.419922" xlink:href="#DejaVuSans-97"/>
     <use x="215.699219" xlink:href="#DejaVuSans-114"/>
     <use x="256.8125" xlink:href="#DejaVuSans-116"/>
     <use x="296.021484" xlink:href="#DejaVuSans-101"/>
     <use x="357.544922" xlink:href="#DejaVuSans-105"/>
     <use x="385.328125" xlink:href="#DejaVuSans-179"/>
    </g>
   </g>
   <g id="text_36">
    <!-- Volt -->
    <g transform="translate(100.467592 259.862579)scale(0.079968 -0.079968)">
     <use xlink:href="#DejaVuSans-86"/>
     <use x="60.658203" xlink:href="#DejaVuSans-111"/>
     <use x="121.839844" xlink:href="#DejaVuSans-108"/>
     <use x="149.623047" xlink:href="#DejaVuSans-116"/>
    </g>
   </g>
   <g id="text_37">
    <!-- dieBasis -->
    <g transform="translate(374.881293 442.474884)scale(0.079968 -0.079968)">
     <use xlink:href="#DejaVuSans-100"/>
     <use x="63.476562" xlink:href="#DejaVuSans-105"/>
     <use x="91.259766" xlink:href="#DejaVuSans-101"/>
     <use x="152.783203" xlink:href="#DejaVuSans-66"/>
     <use x="221.386719" xlink:href="#DejaVuSans-97"/>
     <use x="282.666016" xlink:href="#DejaVuSans-115"/>
     <use x="334.765625" xlink:href="#DejaVuSans-105"/>
     <use x="362.548828" xlink:href="#DejaVuSans-115"/>
    </g>
   </g>
   <g id="text_38">
    <!-- du. -->
    <g transform="translate(71.935255 342.473591)scale(0.079968 -0.079968)">
     <use xlink:href="#DejaVuSans-100"/>
     <use x="63.476562" xlink:href="#DejaVuSans-117"/>
     <use x="126.855469" xlink:href="#DejaVuSans-46"/>
    </g>
   </g>
   <g id="text_39">
    <!-- ÖDP -->
    <g transform="translate(116.758656 313.498053)scale(0.079968 -0.079968)">
     <defs>
      <path d="M 39.40625 66.21875 
Q 28.65625 66.21875 22.328125 58.203125 
Q 16.015625 50.203125 16.015625 36.375 
Q 16.015625 22.609375 22.328125 14.59375 
Q 28.65625 6.59375 39.40625 6.59375 
Q 50.140625 6.59375 56.421875 14.59375 
Q 62.703125 22.609375 62.703125 36.375 
Q 62.703125 50.203125 56.421875 58.203125 
Q 50.140625 66.21875 39.40625 66.21875 
z
M 39.40625 74.21875 
Q 54.734375 74.21875 63.90625 63.9375 
Q 73.09375 53.65625 73.09375 36.375 
Q 73.09375 19.140625 63.90625 8.859375 
Q 54.734375 -1.421875 39.40625 -1.421875 
Q 24.03125 -1.421875 14.8125 8.828125 
Q 5.609375 19.09375 5.609375 36.375 
Q 5.609375 53.65625 14.8125 63.9375 
Q 24.03125 74.21875 39.40625 74.21875 
z
M 44 91.3125 
L 53.90625 91.3125 
L 53.90625 81.40625 
L 44 81.40625 
z
M 24.90625 91.3125 
L 34.8125 91.3125 
L 34.8125 81.40625 
L 24.90625 81.40625 
z
" id="DejaVuSans-214"/>
     </defs>
     <use xlink:href="#DejaVuSans-214"/>
     <use x="78.710938" xlink:href="#DejaVuSans-68"/>
     <use x="155.712891" xlink:href="#DejaVuSans-80"/>
    </g>
   </g>
   <g id="text_40">
    <!-- Hauptkomponentenanalyse (PCA) der Parteien -->
    <g style="fill:#262626;" transform="translate(196.0155 14.4945)scale(0.096 -0.096)">
     <defs>
      <path d="M 9.078125 75.984375 
L 18.109375 75.984375 
L 18.109375 31.109375 
L 44.921875 54.6875 
L 56.390625 54.6875 
L 27.390625 29.109375 
L 57.625 0 
L 45.90625 0 
L 18.109375 26.703125 
L 18.109375 0 
L 9.078125 0 
z
" id="DejaVuSans-107"/>
      <path d="M 32.171875 -5.078125 
Q 28.375 -14.84375 24.75 -17.8125 
Q 21.140625 -20.796875 15.09375 -20.796875 
L 7.90625 -20.796875 
L 7.90625 -13.28125 
L 13.1875 -13.28125 
Q 16.890625 -13.28125 18.9375 -11.515625 
Q 21 -9.765625 23.484375 -3.21875 
L 25.09375 0.875 
L 2.984375 54.6875 
L 12.5 54.6875 
L 29.59375 11.921875 
L 46.6875 54.6875 
L 56.203125 54.6875 
z
" id="DejaVuSans-121"/>
      <path d="M 31 75.875 
Q 24.46875 64.65625 21.28125 53.65625 
Q 18.109375 42.671875 18.109375 31.390625 
Q 18.109375 20.125 21.3125 9.0625 
Q 24.515625 -2 31 -13.1875 
L 23.1875 -13.1875 
Q 15.875 -1.703125 12.234375 9.375 
Q 8.59375 20.453125 8.59375 31.390625 
Q 8.59375 42.28125 12.203125 53.3125 
Q 15.828125 64.359375 23.1875 75.875 
z
" id="DejaVuSans-40"/>
      <path d="M 8.015625 75.875 
L 15.828125 75.875 
Q 23.140625 64.359375 26.78125 53.3125 
Q 30.421875 42.28125 30.421875 31.390625 
Q 30.421875 20.453125 26.78125 9.375 
Q 23.140625 -1.703125 15.828125 -13.1875 
L 8.015625 -13.1875 
Q 14.5 -2 17.703125 9.0625 
Q 20.90625 20.125 20.90625 31.390625 
Q 20.90625 42.671875 17.703125 53.65625 
Q 14.5 64.65625 8.015625 75.875 
z
" id="DejaVuSans-41"/>
     </defs>
     <use xlink:href="#DejaVuSans-72"/>
     <use x="75.195312" xlink:href="#DejaVuSans-97"/>
     <use x="136.474609" xlink:href="#DejaVuSans-117"/>
     <use x="199.853516" xlink:href="#DejaVuSans-112"/>
     <use x="263.330078" xlink:href="#DejaVuSans-116"/>
     <use x="302.539062" xlink:href="#DejaVuSans-107"/>
     <use x="356.824219" xlink:href="#DejaVuSans-111"/>
     <use x="418.005859" xlink:href="#DejaVuSans-109"/>
     <use x="515.417969" xlink:href="#DejaVuSans-112"/>
     <use x="578.894531" xlink:href="#DejaVuSans-111"/>
     <use x="640.076172" xlink:href="#DejaVuSans-110"/>
     <use x="703.455078" xlink:href="#DejaVuSans-101"/>
     <use x="764.978516" xlink:href="#DejaVuSans-110"/>
     <use x="828.357422" xlink:href="#DejaVuSans-116"/>
     <use x="867.566406" xlink:href="#DejaVuSans-101"/>
     <use x="929.089844" xlink:href="#DejaVuSans-110"/>
     <use x="992.46875" xlink:href="#DejaVuSans-97"/>
     <use x="1053.748047" xlink:href="#DejaVuSans-110"/>
     <use x="1117.126953" xlink:href="#DejaVuSans-97"/>
     <use x="1178.40625" xlink:href="#DejaVuSans-108"/>
     <use x="1206.189453" xlink:href="#DejaVuSans-121"/>
     <use x="1265.369141" xlink:href="#DejaVuSans-115"/>
     <use x="1317.46875" xlink:href="#DejaVuSans-101"/>
     <use x="1378.992188" xlink:href="#DejaVuSans-32"/>
     <use x="1410.779297" xlink:href="#DejaVuSans-40"/>
     <use x="1449.792969" xlink:href="#DejaVuSans-80"/>
     <use x="1510.095703" xlink:href="#DejaVuSans-67"/>
     <use x="1579.919922" xlink:href="#DejaVuSans-65"/>
     <use x="1648.328125" xlink:href="#DejaVuSans-41"/>
     <use x="1687.341797" xlink:href="#DejaVuSans-32"/>
     <use x="1719.128906" xlink:href="#DejaVuSans-100"/>
     <use x="1782.605469" xlink:href="#DejaVuSans-101"/>
     <use x="1844.128906" xlink:href="#DejaVuSans-114"/>
     <use x="1885.242188" xlink:href="#DejaVuSans-32"/>
     <use x="1917.029297" xlink:href="#DejaVuSans-80"/>
     <use x="1972.832031" xlink:href="#DejaVuSans-97"/>
     <use x="2034.111328" xlink:href="#DejaVuSans-114"/>
     <use x="2075.224609" xlink:href="#DejaVuSans-116"/>
     <use x="2114.433594" xlink:href="#DejaVuSans-101"/>
     <use x="2175.957031" xlink:href="#DejaVuSans-105"/>
     <use x="2203.740234" xlink:href="#DejaVuSans-101"/>
     <use x="2265.263672" xlink:href="#DejaVuSans-110"/>
    </g>
   </g>
   <g id="legend_1">
    <g id="patch_7">
     <path d="M 543.0385 118.726 
L 580.631 118.726 
Q 582.391 118.726 582.391 116.966 
L 582.391 26.6545 
Q 582.391 24.8945 580.631 24.8945 
L 543.0385 24.8945 
Q 541.2785 24.8945 541.2785 26.6545 
L 541.2785 116.966 
Q 541.2785 118.726 543.0385 118.726 
z
" style="fill:#eaeaf2;opacity:0.8;stroke:#cccccc;stroke-linejoin:miter;stroke-width:0.8;"/>
    </g>
    <g id="text_41">
     <!-- Cluster -->
     <g style="fill:#262626;" transform="translate(544.7985 35.709)scale(0.096 -0.096)">
      <use xlink:href="#DejaVuSans-67"/>
      <use x="69.824219" xlink:href="#DejaVuSans-108"/>
      <use x="97.607422" xlink:href="#DejaVuSans-117"/>
      <use x="160.986328" xlink:href="#DejaVuSans-115"/>
      <use x="213.085938" xlink:href="#DejaVuSans-116"/>
      <use x="252.294922" xlink:href="#DejaVuSans-101"/>
      <use x="313.818359" xlink:href="#DejaVuSans-114"/>
     </g>
    </g>
    <g id="PathCollection_8">
     <defs>
      <path d="M 0 2.4 
C 0.636487 2.4 1.246992 2.147121 1.697056 1.697056 
C 2.147121 1.246992 2.4 0.636487 2.4 0 
C 2.4 -0.636487 2.147121 -1.246992 1.697056 -1.697056 
C 1.246992 -2.147121 0.636487 -2.4 0 -2.4 
C -0.636487 -2.4 -1.246992 -2.147121 -1.697056 -1.697056 
C -2.147121 -1.246992 -2.4 -0.636487 -2.4 0 
C -2.4 0.636487 -2.147121 1.246992 -1.697056 1.697056 
C -1.246992 2.147121 -0.636487 2.4 0 2.4 
z
" id="ma6b8dd67fb" style="stroke:#4c72b0;stroke-width:0.8;"/>
     </defs>
     <g>
      <use style="fill:#4c72b0;stroke:#4c72b0;stroke-width:0.8;" x="555.51525" xlink:href="#ma6b8dd67fb" y="46.482125"/>
     </g>
    </g>
    <g id="text_42">
     <!-- 0 -->
     <g style="fill:#262626;" transform="translate(571.35525 48.792125)scale(0.088 -0.088)">
      <defs>
       <path d="M 31.78125 66.40625 
Q 24.171875 66.40625 20.328125 58.90625 
Q 16.5 51.421875 16.5 36.375 
Q 16.5 21.390625 20.328125 13.890625 
Q 24.171875 6.390625 31.78125 6.390625 
Q 39.453125 6.390625 43.28125 13.890625 
Q 47.125 21.390625 47.125 36.375 
Q 47.125 51.421875 43.28125 58.90625 
Q 39.453125 66.40625 31.78125 66.40625 
z
M 31.78125 74.21875 
Q 44.046875 74.21875 50.515625 64.515625 
Q 56.984375 54.828125 56.984375 36.375 
Q 56.984375 17.96875 50.515625 8.265625 
Q 44.046875 -1.421875 31.78125 -1.421875 
Q 19.53125 -1.421875 13.0625 8.265625 
Q 6.59375 17.96875 6.59375 36.375 
Q 6.59375 54.828125 13.0625 64.515625 
Q 19.53125 74.21875 31.78125 74.21875 
z
" id="DejaVuSans-48"/>
      </defs>
      <use xlink:href="#DejaVuSans-48"/>
     </g>
    </g>
    <g id="PathCollection_9">
     <defs>
      <path d="M 0 2.4 
C 0.636487 2.4 1.246992 2.147121 1.697056 1.697056 
C 2.147121 1.246992 2.4 0.636487 2.4 0 
C 2.4 -0.636487 2.147121 -1.246992 1.697056 -1.697056 
C 1.246992 -2.147121 0.636487 -2.4 0 -2.4 
C -0.636487 -2.4 -1.246992 -2.147121 -1.697056 -1.697056 
C -2.147121 -1.246992 -2.4 -0.636487 -2.4 0 
C -2.4 0.636487 -2.147121 1.246992 -1.697056 1.697056 
C -1.246992 2.147121 -0.636487 2.4 0 2.4 
z
" id="md467011ac4" style="stroke:#dd8452;stroke-width:0.8;"/>
     </defs>
     <g>
      <use style="fill:#dd8452;stroke:#dd8452;stroke-width:0.8;" x="555.51525" xlink:href="#md467011ac4" y="59.398875"/>
     </g>
    </g>
    <g id="text_43">
     <!-- 1 -->
     <g style="fill:#262626;" transform="translate(571.35525 61.708875)scale(0.088 -0.088)">
      <use xlink:href="#DejaVuSans-49"/>
     </g>
    </g>
    <g id="PathCollection_10">
     <defs>
      <path d="M 0 2.4 
C 0.636487 2.4 1.246992 2.147121 1.697056 1.697056 
C 2.147121 1.246992 2.4 0.636487 2.4 0 
C 2.4 -0.636487 2.147121 -1.246992 1.697056 -1.697056 
C 1.246992 -2.147121 0.636487 -2.4 0 -2.4 
C -0.636487 -2.4 -1.246992 -2.147121 -1.697056 -1.697056 
C -2.147121 -1.246992 -2.4 -0.636487 -2.4 0 
C -2.4 0.636487 -2.147121 1.246992 -1.697056 1.697056 
C -1.246992 2.147121 -0.636487 2.4 0 2.4 
z
" id="mec4693225c" style="stroke:#55a868;stroke-width:0.8;"/>
     </defs>
     <g>
      <use style="fill:#55a868;stroke:#55a868;stroke-width:0.8;" x="555.51525" xlink:href="#mec4693225c" y="72.315625"/>
     </g>
    </g>
    <g id="text_44">
     <!-- 2 -->
     <g style="fill:#262626;" transform="translate(571.35525 74.625625)scale(0.088 -0.088)">
      <use xlink:href="#DejaVuSans-50"/>
     </g>
    </g>
    <g id="PathCollection_11">
     <defs>
      <path d="M 0 2.4 
C 0.636487 2.4 1.246992 2.147121 1.697056 1.697056 
C 2.147121 1.246992 2.4 0.636487 2.4 0 
C 2.4 -0.636487 2.147121 -1.246992 1.697056 -1.697056 
C 1.246992 -2.147121 0.636487 -2.4 0 -2.4 
C -0.636487 -2.4 -1.246992 -2.147121 -1.697056 -1.697056 
C -2.147121 -1.246992 -2.4 -0.636487 -2.4 0 
C -2.4 0.636487 -2.147121 1.246992 -1.697056 1.697056 
C -1.246992 2.147121 -0.636487 2.4 0 2.4 
z
" id="m24590ba35b" style="stroke:#c44e52;stroke-width:0.8;"/>
     </defs>
     <g>
      <use style="fill:#c44e52;stroke:#c44e52;stroke-width:0.8;" x="555.51525" xlink:href="#m24590ba35b" y="85.232375"/>
     </g>
    </g>
    <g id="text_45">
     <!-- 3 -->
     <g style="fill:#262626;" transform="translate(571.35525 87.542375)scale(0.088 -0.088)">
      <defs>
       <path d="M 40.578125 39.3125 
Q 47.65625 37.796875 51.625 33 
Q 55.609375 28.21875 55.609375 21.1875 
Q 55.609375 10.40625 48.1875 4.484375 
Q 40.765625 -1.421875 27.09375 -1.421875 
Q 22.515625 -1.421875 17.65625 -0.515625 
Q 12.796875 0.390625 7.625 2.203125 
L 7.625 11.71875 
Q 11.71875 9.328125 16.59375 8.109375 
Q 21.484375 6.890625 26.8125 6.890625 
Q 36.078125 6.890625 40.9375 10.546875 
Q 45.796875 14.203125 45.796875 21.1875 
Q 45.796875 27.640625 41.28125 31.265625 
Q 36.765625 34.90625 28.71875 34.90625 
L 20.21875 34.90625 
L 20.21875 43.015625 
L 29.109375 43.015625 
Q 36.375 43.015625 40.234375 45.921875 
Q 44.09375 48.828125 44.09375 54.296875 
Q 44.09375 59.90625 40.109375 62.90625 
Q 36.140625 65.921875 28.71875 65.921875 
Q 24.65625 65.921875 20.015625 65.03125 
Q 15.375 64.15625 9.8125 62.3125 
L 9.8125 71.09375 
Q 15.4375 72.65625 20.34375 73.4375 
Q 25.25 74.21875 29.59375 74.21875 
Q 40.828125 74.21875 47.359375 69.109375 
Q 53.90625 64.015625 53.90625 55.328125 
Q 53.90625 49.265625 50.4375 45.09375 
Q 46.96875 40.921875 40.578125 39.3125 
z
" id="DejaVuSans-51"/>
      </defs>
      <use xlink:href="#DejaVuSans-51"/>
     </g>
    </g>
    <g id="PathCollection_12">
     <defs>
      <path d="M 0 2.4 
C 0.636487 2.4 1.246992 2.147121 1.697056 1.697056 
C 2.147121 1.246992 2.4 0.636487 2.4 0 
C 2.4 -0.636487 2.147121 -1.246992 1.697056 -1.697056 
C 1.246992 -2.147121 0.636487 -2.4 0 -2.4 
C -0.636487 -2.4 -1.246992 -2.147121 -1.697056 -1.697056 
C -2.147121 -1.246992 -2.4 -0.636487 -2.4 0 
C -2.4 0.636487 -2.147121 1.246992 -1.697056 1.697056 
C -1.246992 2.147121 -0.636487 2.4 0 2.4 
z
" id="m5597e40c44" style="stroke:#8172b3;stroke-width:0.8;"/>
     </defs>
     <g>
      <use style="fill:#8172b3;stroke:#8172b3;stroke-width:0.8;" x="555.51525" xlink:href="#m5597e40c44" y="98.149125"/>
     </g>
    </g>
    <g id="text_46">
     <!-- 4 -->
     <g style="fill:#262626;" transform="translate(571.35525 100.459125)scale(0.088 -0.088)">
      <defs>
       <path d="M 37.796875 64.3125 
L 12.890625 25.390625 
L 37.796875 25.390625 
z
M 35.203125 72.90625 
L 47.609375 72.90625 
L 47.609375 25.390625 
L 58.015625 25.390625 
L 58.015625 17.1875 
L 47.609375 17.1875 
L 47.609375 0 
L 37.796875 0 
L 37.796875 17.1875 
L 4.890625 17.1875 
L 4.890625 26.703125 
z
" id="DejaVuSans-52"/>
      </defs>
      <use xlink:href="#DejaVuSans-52"/>
     </g>
    </g>
    <g id="PathCollection_13">
     <defs>
      <path d="M 0 2.4 
C 0.636487 2.4 1.246992 2.147121 1.697056 1.697056 
C 2.147121 1.246992 2.4 0.636487 2.4 0 
C 2.4 -0.636487 2.147121 -1.246992 1.697056 -1.697056 
C 1.246992 -2.147121 0.636487 -2.4 0 -2.4 
C -0.636487 -2.4 -1.246992 -2.147121 -1.697056 -1.697056 
C -2.147121 -1.246992 -2.4 -0.636487 -2.4 0 
C -2.4 0.636487 -2.147121 1.246992 -1.697056 1.697056 
C -1.246992 2.147121 -0.636487 2.4 0 2.4 
z
" id="m7a9ec0712f" style="stroke:#937860;stroke-width:0.8;"/>
     </defs>
     <g>
      <use style="fill:#937860;stroke:#937860;stroke-width:0.8;" x="555.51525" xlink:href="#m7a9ec0712f" y="111.065875"/>
     </g>
    </g>
    <g id="text_47">
     <!-- 5 -->
     <g style="fill:#262626;" transform="translate(571.35525 113.375875)scale(0.088 -0.088)">
      <defs>
       <path d="M 10.796875 72.90625 
L 49.515625 72.90625 
L 49.515625 64.59375 
L 19.828125 64.59375 
L 19.828125 46.734375 
Q 21.96875 47.46875 24.109375 47.828125 
Q 26.265625 48.1875 28.421875 48.1875 
Q 40.625 48.1875 47.75 41.5 
Q 54.890625 34.8125 54.890625 23.390625 
Q 54.890625 11.625 47.5625 5.09375 
Q 40.234375 -1.421875 26.90625 -1.421875 
Q 22.3125 -1.421875 17.546875 -0.640625 
Q 12.796875 0.140625 7.71875 1.703125 
L 7.71875 11.625 
Q 12.109375 9.234375 16.796875 8.0625 
Q 21.484375 6.890625 26.703125 6.890625 
Q 35.15625 6.890625 40.078125 11.328125 
Q 45.015625 15.765625 45.015625 23.390625 
Q 45.015625 31 40.078125 35.4375 
Q 35.15625 39.890625 26.703125 39.890625 
Q 22.75 39.890625 18.8125 39.015625 
Q 14.890625 38.140625 10.796875 36.28125 
z
" id="DejaVuSans-53"/>
      </defs>
      <use xlink:href="#DejaVuSans-53"/>
     </g>
    </g>
   </g>
  </g>
 </g>
 <defs>
  <clipPath id="p8b26c11736">
   <rect height="543.6" width="558" x="28.791" y="20.4945"/>
  </clipPath>
 </defs>
</svg>
