<?xml version="1.0" encoding="utf-8" standalone="no"?>
<!DOCTYPE svg PUBLIC "-//W3C//DTD SVG 1.1//EN"
  "http://www.w3.org/Graphics/SVG/1.1/DTD/svg11.dtd">
<svg height="619.1409pt" version="1.1" viewBox="0 0 604.7409 619.1409" width="604.7409pt" xmlns="http://www.w3.org/2000/svg" xmlns:xlink="http://www.w3.org/1999/xlink">
 <metadata>
  <rdf:RDF xmlns:cc="http://creativecommons.org/ns#" xmlns:dc="http://purl.org/dc/elements/1.1/" xmlns:rdf="http://www.w3.org/1999/02/22-rdf-syntax-ns#">
   <cc:Work>
    <dc:type rdf:resource="http://purl.org/dc/dcmitype/StillImage"/>
    <dc:date>2021-09-08T07:24:10.409894</dc:date>
    <dc:format>image/svg+xml</dc:format>
    <dc:creator>
     <cc:Agent>
      <dc:title>Matplotlib v3.4.3, https://matplotlib.org/</dc:title>
     </cc:Agent>
    </dc:creator>
   </cc:Work>
  </rdf:RDF>
 </metadata>
 <defs>
  <style type="text/css">*{stroke-linecap:butt;stroke-linejoin:round;}</style>
 </defs>
 <g id="figure_1">
  <g id="patch_1">
   <path d="M 0 619.1409 
L 604.7409 619.1409 
L 604.7409 0 
L 0 0 
z
" style="fill:#ffffff;"/>
  </g>
  <g id="axes_1">
   <g id="patch_2">
    <path d="M 39.5409 579.6 
L 597.5409 579.6 
L 597.5409 36 
L 39.5409 36 
z
" style="fill:#eaeaf2;"/>
   </g>
   <g id="matplotlib.axis_1">
    <g id="xtick_1">
     <g id="line2d_1">
      <path clip-path="url(#pd833eb1ca4)" d="M 279.662523 579.6 
L 279.662523 36 
" style="fill:none;stroke:#ffffff;stroke-linecap:round;stroke-width:1.2;"/>
     </g>
    </g>
    <g id="xtick_2">
     <g id="line2d_2">
      <path clip-path="url(#pd833eb1ca4)" d="M 85.348629 579.6 
L 85.348629 36 
" style="fill:none;stroke:#ffffff;stroke-linecap:round;stroke-width:0.3;"/>
     </g>
    </g>
    <g id="xtick_3">
     <g id="line2d_3">
      <path clip-path="url(#pd833eb1ca4)" d="M 182.505576 579.6 
L 182.505576 36 
" style="fill:none;stroke:#ffffff;stroke-linecap:round;stroke-width:0.3;"/>
     </g>
    </g>
    <g id="xtick_4">
     <g id="line2d_4">
      <path clip-path="url(#pd833eb1ca4)" d="M 376.81947 579.6 
L 376.81947 36 
" style="fill:none;stroke:#ffffff;stroke-linecap:round;stroke-width:0.3;"/>
     </g>
    </g>
    <g id="xtick_5">
     <g id="line2d_5">
      <path clip-path="url(#pd833eb1ca4)" d="M 473.976416 579.6 
L 473.976416 36 
" style="fill:none;stroke:#ffffff;stroke-linecap:round;stroke-width:0.3;"/>
     </g>
    </g>
    <g id="xtick_6">
     <g id="line2d_6">
      <path clip-path="url(#pd833eb1ca4)" d="M 571.133363 579.6 
L 571.133363 36 
" style="fill:none;stroke:#ffffff;stroke-linecap:round;stroke-width:0.3;"/>
     </g>
    </g>
    <g id="text_1">
     <!-- Komponente X (PC1) -->
     <g style="fill:#262626;" transform="translate(268.77915 599.1945)scale(0.096 -0.096)">
      <defs>
       <path d="M 628 4666 
L 1259 4666 
L 1259 2694 
L 3353 4666 
L 4166 4666 
L 1850 2491 
L 4331 0 
L 3500 0 
L 1259 2247 
L 1259 0 
L 628 0 
L 628 4666 
z
" id="DejaVuSans-4b" transform="scale(0.015625)"/>
       <path d="M 1959 3097 
Q 1497 3097 1228 2736 
Q 959 2375 959 1747 
Q 959 1119 1226 758 
Q 1494 397 1959 397 
Q 2419 397 2687 759 
Q 2956 1122 2956 1747 
Q 2956 2369 2687 2733 
Q 2419 3097 1959 3097 
z
M 1959 3584 
Q 2709 3584 3137 3096 
Q 3566 2609 3566 1747 
Q 3566 888 3137 398 
Q 2709 -91 1959 -91 
Q 1206 -91 779 398 
Q 353 888 353 1747 
Q 353 2609 779 3096 
Q 1206 3584 1959 3584 
z
" id="DejaVuSans-6f" transform="scale(0.015625)"/>
       <path d="M 3328 2828 
Q 3544 3216 3844 3400 
Q 4144 3584 4550 3584 
Q 5097 3584 5394 3201 
Q 5691 2819 5691 2113 
L 5691 0 
L 5113 0 
L 5113 2094 
Q 5113 2597 4934 2840 
Q 4756 3084 4391 3084 
Q 3944 3084 3684 2787 
Q 3425 2491 3425 1978 
L 3425 0 
L 2847 0 
L 2847 2094 
Q 2847 2600 2669 2842 
Q 2491 3084 2119 3084 
Q 1678 3084 1418 2786 
Q 1159 2488 1159 1978 
L 1159 0 
L 581 0 
L 581 3500 
L 1159 3500 
L 1159 2956 
Q 1356 3278 1631 3431 
Q 1906 3584 2284 3584 
Q 2666 3584 2933 3390 
Q 3200 3197 3328 2828 
z
" id="DejaVuSans-6d" transform="scale(0.015625)"/>
       <path d="M 1159 525 
L 1159 -1331 
L 581 -1331 
L 581 3500 
L 1159 3500 
L 1159 2969 
Q 1341 3281 1617 3432 
Q 1894 3584 2278 3584 
Q 2916 3584 3314 3078 
Q 3713 2572 3713 1747 
Q 3713 922 3314 415 
Q 2916 -91 2278 -91 
Q 1894 -91 1617 61 
Q 1341 213 1159 525 
z
M 3116 1747 
Q 3116 2381 2855 2742 
Q 2594 3103 2138 3103 
Q 1681 3103 1420 2742 
Q 1159 2381 1159 1747 
Q 1159 1113 1420 752 
Q 1681 391 2138 391 
Q 2594 391 2855 752 
Q 3116 1113 3116 1747 
z
" id="DejaVuSans-70" transform="scale(0.015625)"/>
       <path d="M 3513 2113 
L 3513 0 
L 2938 0 
L 2938 2094 
Q 2938 2591 2744 2837 
Q 2550 3084 2163 3084 
Q 1697 3084 1428 2787 
Q 1159 2491 1159 1978 
L 1159 0 
L 581 0 
L 581 3500 
L 1159 3500 
L 1159 2956 
Q 1366 3272 1645 3428 
Q 1925 3584 2291 3584 
Q 2894 3584 3203 3211 
Q 3513 2838 3513 2113 
z
" id="DejaVuSans-6e" transform="scale(0.015625)"/>
       <path d="M 3597 1894 
L 3597 1613 
L 953 1613 
Q 991 1019 1311 708 
Q 1631 397 2203 397 
Q 2534 397 2845 478 
Q 3156 559 3463 722 
L 3463 178 
Q 3153 47 2828 -22 
Q 2503 -91 2169 -91 
Q 1331 -91 842 396 
Q 353 884 353 1716 
Q 353 2575 817 3079 
Q 1281 3584 2069 3584 
Q 2775 3584 3186 3129 
Q 3597 2675 3597 1894 
z
M 3022 2063 
Q 3016 2534 2758 2815 
Q 2500 3097 2075 3097 
Q 1594 3097 1305 2825 
Q 1016 2553 972 2059 
L 3022 2063 
z
" id="DejaVuSans-65" transform="scale(0.015625)"/>
       <path d="M 1172 4494 
L 1172 3500 
L 2356 3500 
L 2356 3053 
L 1172 3053 
L 1172 1153 
Q 1172 725 1289 603 
Q 1406 481 1766 481 
L 2356 481 
L 2356 0 
L 1766 0 
Q 1100 0 847 248 
Q 594 497 594 1153 
L 594 3053 
L 172 3053 
L 172 3500 
L 594 3500 
L 594 4494 
L 1172 4494 
z
" id="DejaVuSans-74" transform="scale(0.015625)"/>
       <path id="DejaVuSans-20" transform="scale(0.015625)"/>
       <path d="M 403 4666 
L 1081 4666 
L 2241 2931 
L 3406 4666 
L 4084 4666 
L 2584 2425 
L 4184 0 
L 3506 0 
L 2194 1984 
L 872 0 
L 191 0 
L 1856 2491 
L 403 4666 
z
" id="DejaVuSans-58" transform="scale(0.015625)"/>
       <path d="M 1984 4856 
Q 1566 4138 1362 3434 
Q 1159 2731 1159 2009 
Q 1159 1288 1364 580 
Q 1569 -128 1984 -844 
L 1484 -844 
Q 1016 -109 783 600 
Q 550 1309 550 2009 
Q 550 2706 781 3412 
Q 1013 4119 1484 4856 
L 1984 4856 
z
" id="DejaVuSans-28" transform="scale(0.015625)"/>
       <path d="M 1259 4147 
L 1259 2394 
L 2053 2394 
Q 2494 2394 2734 2622 
Q 2975 2850 2975 3272 
Q 2975 3691 2734 3919 
Q 2494 4147 2053 4147 
L 1259 4147 
z
M 628 4666 
L 2053 4666 
Q 2838 4666 3239 4311 
Q 3641 3956 3641 3272 
Q 3641 2581 3239 2228 
Q 2838 1875 2053 1875 
L 1259 1875 
L 1259 0 
L 628 0 
L 628 4666 
z
" id="DejaVuSans-50" transform="scale(0.015625)"/>
       <path d="M 4122 4306 
L 4122 3641 
Q 3803 3938 3442 4084 
Q 3081 4231 2675 4231 
Q 1875 4231 1450 3742 
Q 1025 3253 1025 2328 
Q 1025 1406 1450 917 
Q 1875 428 2675 428 
Q 3081 428 3442 575 
Q 3803 722 4122 1019 
L 4122 359 
Q 3791 134 3420 21 
Q 3050 -91 2638 -91 
Q 1578 -91 968 557 
Q 359 1206 359 2328 
Q 359 3453 968 4101 
Q 1578 4750 2638 4750 
Q 3056 4750 3426 4639 
Q 3797 4528 4122 4306 
z
" id="DejaVuSans-43" transform="scale(0.015625)"/>
       <path d="M 794 531 
L 1825 531 
L 1825 4091 
L 703 3866 
L 703 4441 
L 1819 4666 
L 2450 4666 
L 2450 531 
L 3481 531 
L 3481 0 
L 794 0 
L 794 531 
z
" id="DejaVuSans-31" transform="scale(0.015625)"/>
       <path d="M 513 4856 
L 1013 4856 
Q 1481 4119 1714 3412 
Q 1947 2706 1947 2009 
Q 1947 1309 1714 600 
Q 1481 -109 1013 -844 
L 513 -844 
Q 928 -128 1133 580 
Q 1338 1288 1338 2009 
Q 1338 2731 1133 3434 
Q 928 4138 513 4856 
z
" id="DejaVuSans-29" transform="scale(0.015625)"/>
      </defs>
      <use xlink:href="#DejaVuSans-4b"/>
      <use x="60.576172" xlink:href="#DejaVuSans-6f"/>
      <use x="121.757812" xlink:href="#DejaVuSans-6d"/>
      <use x="219.169922" xlink:href="#DejaVuSans-70"/>
      <use x="282.646484" xlink:href="#DejaVuSans-6f"/>
      <use x="343.828125" xlink:href="#DejaVuSans-6e"/>
      <use x="407.207031" xlink:href="#DejaVuSans-65"/>
      <use x="468.730469" xlink:href="#DejaVuSans-6e"/>
      <use x="532.109375" xlink:href="#DejaVuSans-74"/>
      <use x="571.318359" xlink:href="#DejaVuSans-65"/>
      <use x="632.841797" xlink:href="#DejaVuSans-20"/>
      <use x="664.628906" xlink:href="#DejaVuSans-58"/>
      <use x="733.134766" xlink:href="#DejaVuSans-20"/>
      <use x="764.921875" xlink:href="#DejaVuSans-28"/>
      <use x="803.935547" xlink:href="#DejaVuSans-50"/>
      <use x="864.238281" xlink:href="#DejaVuSans-43"/>
      <use x="934.0625" xlink:href="#DejaVuSans-31"/>
      <use x="997.685547" xlink:href="#DejaVuSans-29"/>
     </g>
     <!-- 36.8% Varianzanteil -->
     <g style="fill:#262626;" transform="translate(270.6189 609.9444)scale(0.096 -0.096)">
      <defs>
       <path d="M 2597 2516 
Q 3050 2419 3304 2112 
Q 3559 1806 3559 1356 
Q 3559 666 3084 287 
Q 2609 -91 1734 -91 
Q 1441 -91 1130 -33 
Q 819 25 488 141 
L 488 750 
Q 750 597 1062 519 
Q 1375 441 1716 441 
Q 2309 441 2620 675 
Q 2931 909 2931 1356 
Q 2931 1769 2642 2001 
Q 2353 2234 1838 2234 
L 1294 2234 
L 1294 2753 
L 1863 2753 
Q 2328 2753 2575 2939 
Q 2822 3125 2822 3475 
Q 2822 3834 2567 4026 
Q 2313 4219 1838 4219 
Q 1578 4219 1281 4162 
Q 984 4106 628 3988 
L 628 4550 
Q 988 4650 1302 4700 
Q 1616 4750 1894 4750 
Q 2613 4750 3031 4423 
Q 3450 4097 3450 3541 
Q 3450 3153 3228 2886 
Q 3006 2619 2597 2516 
z
" id="DejaVuSans-33" transform="scale(0.015625)"/>
       <path d="M 2113 2584 
Q 1688 2584 1439 2293 
Q 1191 2003 1191 1497 
Q 1191 994 1439 701 
Q 1688 409 2113 409 
Q 2538 409 2786 701 
Q 3034 994 3034 1497 
Q 3034 2003 2786 2293 
Q 2538 2584 2113 2584 
z
M 3366 4563 
L 3366 3988 
Q 3128 4100 2886 4159 
Q 2644 4219 2406 4219 
Q 1781 4219 1451 3797 
Q 1122 3375 1075 2522 
Q 1259 2794 1537 2939 
Q 1816 3084 2150 3084 
Q 2853 3084 3261 2657 
Q 3669 2231 3669 1497 
Q 3669 778 3244 343 
Q 2819 -91 2113 -91 
Q 1303 -91 875 529 
Q 447 1150 447 2328 
Q 447 3434 972 4092 
Q 1497 4750 2381 4750 
Q 2619 4750 2861 4703 
Q 3103 4656 3366 4563 
z
" id="DejaVuSans-36" transform="scale(0.015625)"/>
       <path d="M 684 794 
L 1344 794 
L 1344 0 
L 684 0 
L 684 794 
z
" id="DejaVuSans-2e" transform="scale(0.015625)"/>
       <path d="M 2034 2216 
Q 1584 2216 1326 1975 
Q 1069 1734 1069 1313 
Q 1069 891 1326 650 
Q 1584 409 2034 409 
Q 2484 409 2743 651 
Q 3003 894 3003 1313 
Q 3003 1734 2745 1975 
Q 2488 2216 2034 2216 
z
M 1403 2484 
Q 997 2584 770 2862 
Q 544 3141 544 3541 
Q 544 4100 942 4425 
Q 1341 4750 2034 4750 
Q 2731 4750 3128 4425 
Q 3525 4100 3525 3541 
Q 3525 3141 3298 2862 
Q 3072 2584 2669 2484 
Q 3125 2378 3379 2068 
Q 3634 1759 3634 1313 
Q 3634 634 3220 271 
Q 2806 -91 2034 -91 
Q 1263 -91 848 271 
Q 434 634 434 1313 
Q 434 1759 690 2068 
Q 947 2378 1403 2484 
z
M 1172 3481 
Q 1172 3119 1398 2916 
Q 1625 2713 2034 2713 
Q 2441 2713 2670 2916 
Q 2900 3119 2900 3481 
Q 2900 3844 2670 4047 
Q 2441 4250 2034 4250 
Q 1625 4250 1398 4047 
Q 1172 3844 1172 3481 
z
" id="DejaVuSans-38" transform="scale(0.015625)"/>
       <path d="M 4653 2053 
Q 4381 2053 4226 1822 
Q 4072 1591 4072 1178 
Q 4072 772 4226 539 
Q 4381 306 4653 306 
Q 4919 306 5073 539 
Q 5228 772 5228 1178 
Q 5228 1588 5073 1820 
Q 4919 2053 4653 2053 
z
M 4653 2450 
Q 5147 2450 5437 2106 
Q 5728 1763 5728 1178 
Q 5728 594 5436 251 
Q 5144 -91 4653 -91 
Q 4153 -91 3862 251 
Q 3572 594 3572 1178 
Q 3572 1766 3864 2108 
Q 4156 2450 4653 2450 
z
M 1428 4353 
Q 1159 4353 1004 4120 
Q 850 3888 850 3481 
Q 850 3069 1003 2837 
Q 1156 2606 1428 2606 
Q 1700 2606 1854 2837 
Q 2009 3069 2009 3481 
Q 2009 3884 1853 4118 
Q 1697 4353 1428 4353 
z
M 4250 4750 
L 4750 4750 
L 1831 -91 
L 1331 -91 
L 4250 4750 
z
M 1428 4750 
Q 1922 4750 2215 4408 
Q 2509 4066 2509 3481 
Q 2509 2891 2217 2550 
Q 1925 2209 1428 2209 
Q 931 2209 642 2551 
Q 353 2894 353 3481 
Q 353 4063 643 4406 
Q 934 4750 1428 4750 
z
" id="DejaVuSans-25" transform="scale(0.015625)"/>
       <path d="M 1831 0 
L 50 4666 
L 709 4666 
L 2188 738 
L 3669 4666 
L 4325 4666 
L 2547 0 
L 1831 0 
z
" id="DejaVuSans-56" transform="scale(0.015625)"/>
       <path d="M 2194 1759 
Q 1497 1759 1228 1600 
Q 959 1441 959 1056 
Q 959 750 1161 570 
Q 1363 391 1709 391 
Q 2188 391 2477 730 
Q 2766 1069 2766 1631 
L 2766 1759 
L 2194 1759 
z
M 3341 1997 
L 3341 0 
L 2766 0 
L 2766 531 
Q 2569 213 2275 61 
Q 1981 -91 1556 -91 
Q 1019 -91 701 211 
Q 384 513 384 1019 
Q 384 1609 779 1909 
Q 1175 2209 1959 2209 
L 2766 2209 
L 2766 2266 
Q 2766 2663 2505 2880 
Q 2244 3097 1772 3097 
Q 1472 3097 1187 3025 
Q 903 2953 641 2809 
L 641 3341 
Q 956 3463 1253 3523 
Q 1550 3584 1831 3584 
Q 2591 3584 2966 3190 
Q 3341 2797 3341 1997 
z
" id="DejaVuSans-61" transform="scale(0.015625)"/>
       <path d="M 2631 2963 
Q 2534 3019 2420 3045 
Q 2306 3072 2169 3072 
Q 1681 3072 1420 2755 
Q 1159 2438 1159 1844 
L 1159 0 
L 581 0 
L 581 3500 
L 1159 3500 
L 1159 2956 
Q 1341 3275 1631 3429 
Q 1922 3584 2338 3584 
Q 2397 3584 2469 3576 
Q 2541 3569 2628 3553 
L 2631 2963 
z
" id="DejaVuSans-72" transform="scale(0.015625)"/>
       <path d="M 603 3500 
L 1178 3500 
L 1178 0 
L 603 0 
L 603 3500 
z
M 603 4863 
L 1178 4863 
L 1178 4134 
L 603 4134 
L 603 4863 
z
" id="DejaVuSans-69" transform="scale(0.015625)"/>
       <path d="M 353 3500 
L 3084 3500 
L 3084 2975 
L 922 459 
L 3084 459 
L 3084 0 
L 275 0 
L 275 525 
L 2438 3041 
L 353 3041 
L 353 3500 
z
" id="DejaVuSans-7a" transform="scale(0.015625)"/>
       <path d="M 603 4863 
L 1178 4863 
L 1178 0 
L 603 0 
L 603 4863 
z
" id="DejaVuSans-6c" transform="scale(0.015625)"/>
      </defs>
      <use xlink:href="#DejaVuSans-33"/>
      <use x="63.623047" xlink:href="#DejaVuSans-36"/>
      <use x="127.246094" xlink:href="#DejaVuSans-2e"/>
      <use x="159.033203" xlink:href="#DejaVuSans-38"/>
      <use x="222.65625" xlink:href="#DejaVuSans-25"/>
      <use x="317.675781" xlink:href="#DejaVuSans-20"/>
      <use x="349.462891" xlink:href="#DejaVuSans-56"/>
      <use x="410.121094" xlink:href="#DejaVuSans-61"/>
      <use x="471.400391" xlink:href="#DejaVuSans-72"/>
      <use x="512.513672" xlink:href="#DejaVuSans-69"/>
      <use x="540.296875" xlink:href="#DejaVuSans-61"/>
      <use x="601.576172" xlink:href="#DejaVuSans-6e"/>
      <use x="664.955078" xlink:href="#DejaVuSans-7a"/>
      <use x="717.445312" xlink:href="#DejaVuSans-61"/>
      <use x="778.724609" xlink:href="#DejaVuSans-6e"/>
      <use x="842.103516" xlink:href="#DejaVuSans-74"/>
      <use x="881.3125" xlink:href="#DejaVuSans-65"/>
      <use x="942.835938" xlink:href="#DejaVuSans-69"/>
      <use x="970.619141" xlink:href="#DejaVuSans-6c"/>
     </g>
    </g>
   </g>
   <g id="matplotlib.axis_2">
    <g id="ytick_1">
     <g id="line2d_7">
      <path clip-path="url(#pd833eb1ca4)" d="M 39.5409 320.203982 
L 597.5409 320.203982 
" style="fill:none;stroke:#ffffff;stroke-linecap:round;stroke-width:1.2;"/>
     </g>
    </g>
    <g id="ytick_2">
     <g id="line2d_8">
      <path clip-path="url(#pd833eb1ca4)" d="M 39.5409 573.676504 
L 597.5409 573.676504 
" style="fill:none;stroke:#ffffff;stroke-linecap:round;stroke-width:0.3;"/>
     </g>
    </g>
    <g id="ytick_3">
     <g id="line2d_9">
      <path clip-path="url(#pd833eb1ca4)" d="M 39.5409 510.308374 
L 597.5409 510.308374 
" style="fill:none;stroke:#ffffff;stroke-linecap:round;stroke-width:0.3;"/>
     </g>
    </g>
    <g id="ytick_4">
     <g id="line2d_10">
      <path clip-path="url(#pd833eb1ca4)" d="M 39.5409 446.940243 
L 597.5409 446.940243 
" style="fill:none;stroke:#ffffff;stroke-linecap:round;stroke-width:0.3;"/>
     </g>
    </g>
    <g id="ytick_5">
     <g id="line2d_11">
      <path clip-path="url(#pd833eb1ca4)" d="M 39.5409 383.572113 
L 597.5409 383.572113 
" style="fill:none;stroke:#ffffff;stroke-linecap:round;stroke-width:0.3;"/>
     </g>
    </g>
    <g id="ytick_6">
     <g id="line2d_12">
      <path clip-path="url(#pd833eb1ca4)" d="M 39.5409 256.835852 
L 597.5409 256.835852 
" style="fill:none;stroke:#ffffff;stroke-linecap:round;stroke-width:0.3;"/>
     </g>
    </g>
    <g id="ytick_7">
     <g id="line2d_13">
      <path clip-path="url(#pd833eb1ca4)" d="M 39.5409 193.467722 
L 597.5409 193.467722 
" style="fill:none;stroke:#ffffff;stroke-linecap:round;stroke-width:0.3;"/>
     </g>
    </g>
    <g id="ytick_8">
     <g id="line2d_14">
      <path clip-path="url(#pd833eb1ca4)" d="M 39.5409 130.099591 
L 597.5409 130.099591 
" style="fill:none;stroke:#ffffff;stroke-linecap:round;stroke-width:0.3;"/>
     </g>
    </g>
    <g id="ytick_9">
     <g id="line2d_15">
      <path clip-path="url(#pd833eb1ca4)" d="M 39.5409 66.731461 
L 597.5409 66.731461 
" style="fill:none;stroke:#ffffff;stroke-linecap:round;stroke-width:0.3;"/>
     </g>
    </g>
    <g id="text_2">
     <!-- Komponente Y (PC2) -->
     <g style="fill:#262626;" transform="translate(14.4945 357.2055)rotate(-90)scale(0.096 -0.096)">
      <defs>
       <path d="M -13 4666 
L 666 4666 
L 1959 2747 
L 3244 4666 
L 3922 4666 
L 2272 2222 
L 2272 0 
L 1638 0 
L 1638 2222 
L -13 4666 
z
" id="DejaVuSans-59" transform="scale(0.015625)"/>
       <path d="M 1228 531 
L 3431 531 
L 3431 0 
L 469 0 
L 469 531 
Q 828 903 1448 1529 
Q 2069 2156 2228 2338 
Q 2531 2678 2651 2914 
Q 2772 3150 2772 3378 
Q 2772 3750 2511 3984 
Q 2250 4219 1831 4219 
Q 1534 4219 1204 4116 
Q 875 4013 500 3803 
L 500 4441 
Q 881 4594 1212 4672 
Q 1544 4750 1819 4750 
Q 2544 4750 2975 4387 
Q 3406 4025 3406 3419 
Q 3406 3131 3298 2873 
Q 3191 2616 2906 2266 
Q 2828 2175 2409 1742 
Q 1991 1309 1228 531 
z
" id="DejaVuSans-32" transform="scale(0.015625)"/>
      </defs>
      <use xlink:href="#DejaVuSans-4b"/>
      <use x="60.576172" xlink:href="#DejaVuSans-6f"/>
      <use x="121.757812" xlink:href="#DejaVuSans-6d"/>
      <use x="219.169922" xlink:href="#DejaVuSans-70"/>
      <use x="282.646484" xlink:href="#DejaVuSans-6f"/>
      <use x="343.828125" xlink:href="#DejaVuSans-6e"/>
      <use x="407.207031" xlink:href="#DejaVuSans-65"/>
      <use x="468.730469" xlink:href="#DejaVuSans-6e"/>
      <use x="532.109375" xlink:href="#DejaVuSans-74"/>
      <use x="571.318359" xlink:href="#DejaVuSans-65"/>
      <use x="632.841797" xlink:href="#DejaVuSans-20"/>
      <use x="664.628906" xlink:href="#DejaVuSans-59"/>
      <use x="725.712891" xlink:href="#DejaVuSans-20"/>
      <use x="757.5" xlink:href="#DejaVuSans-28"/>
      <use x="796.513672" xlink:href="#DejaVuSans-50"/>
      <use x="856.816406" xlink:href="#DejaVuSans-43"/>
      <use x="926.640625" xlink:href="#DejaVuSans-32"/>
      <use x="990.263672" xlink:href="#DejaVuSans-29"/>
     </g>
     <!-- 11.0% Varianzanteil -->
     <g style="fill:#262626;" transform="translate(25.2444 355.722)rotate(-90)scale(0.096 -0.096)">
      <defs>
       <path d="M 2034 4250 
Q 1547 4250 1301 3770 
Q 1056 3291 1056 2328 
Q 1056 1369 1301 889 
Q 1547 409 2034 409 
Q 2525 409 2770 889 
Q 3016 1369 3016 2328 
Q 3016 3291 2770 3770 
Q 2525 4250 2034 4250 
z
M 2034 4750 
Q 2819 4750 3233 4129 
Q 3647 3509 3647 2328 
Q 3647 1150 3233 529 
Q 2819 -91 2034 -91 
Q 1250 -91 836 529 
Q 422 1150 422 2328 
Q 422 3509 836 4129 
Q 1250 4750 2034 4750 
z
" id="DejaVuSans-30" transform="scale(0.015625)"/>
      </defs>
      <use xlink:href="#DejaVuSans-31"/>
      <use x="63.623047" xlink:href="#DejaVuSans-31"/>
      <use x="127.246094" xlink:href="#DejaVuSans-2e"/>
      <use x="159.033203" xlink:href="#DejaVuSans-30"/>
      <use x="222.65625" xlink:href="#DejaVuSans-25"/>
      <use x="317.675781" xlink:href="#DejaVuSans-20"/>
      <use x="349.462891" xlink:href="#DejaVuSans-56"/>
      <use x="410.121094" xlink:href="#DejaVuSans-61"/>
      <use x="471.400391" xlink:href="#DejaVuSans-72"/>
      <use x="512.513672" xlink:href="#DejaVuSans-69"/>
      <use x="540.296875" xlink:href="#DejaVuSans-61"/>
      <use x="601.576172" xlink:href="#DejaVuSans-6e"/>
      <use x="664.955078" xlink:href="#DejaVuSans-7a"/>
      <use x="717.445312" xlink:href="#DejaVuSans-61"/>
      <use x="778.724609" xlink:href="#DejaVuSans-6e"/>
      <use x="842.103516" xlink:href="#DejaVuSans-74"/>
      <use x="881.3125" xlink:href="#DejaVuSans-65"/>
      <use x="942.835938" xlink:href="#DejaVuSans-69"/>
      <use x="970.619141" xlink:href="#DejaVuSans-6c"/>
     </g>
    </g>
   </g>
   <g id="PathCollection_1">
    <defs>
     <path d="M 0 2.4 
C 0.636487 2.4 1.246992 2.147121 1.697056 1.697056 
C 2.147121 1.246992 2.4 0.636487 2.4 -0 
C 2.4 -0.636487 2.147121 -1.246992 1.697056 -1.697056 
C 1.246992 -2.147121 0.636487 -2.4 0 -2.4 
C -0.636487 -2.4 -1.246992 -2.147121 -1.697056 -1.697056 
C -2.147121 -1.246992 -2.4 -0.636487 -2.4 0 
C -2.4 0.636487 -2.147121 1.246992 -1.697056 1.697056 
C -1.246992 2.147121 -0.636487 2.4 0 2.4 
z
" id="C0_0_0ef337950d"/>
    </defs>
    <g clip-path="url(#pd833eb1ca4)">
     <use style="fill:#023eff;stroke:#ffffff;stroke-width:0.384;" x="572.177264" xlink:href="#C0_0_0ef337950d" y="306.860685"/>
    </g>
    <g clip-path="url(#pd833eb1ca4)">
     <use style="fill:#023eff;stroke:#ffffff;stroke-width:0.384;" x="512.267473" xlink:href="#C0_0_0ef337950d" y="277.737119"/>
    </g>
    <g clip-path="url(#pd833eb1ca4)">
     <use style="fill:#ff7c00;stroke:#ffffff;stroke-width:0.384;" x="446.842852" xlink:href="#C0_0_0ef337950d" y="356.11504"/>
    </g>
    <g clip-path="url(#pd833eb1ca4)">
     <use style="fill:#8b2be2;stroke:#ffffff;stroke-width:0.384;" x="383.526241" xlink:href="#C0_0_0ef337950d" y="364.307857"/>
    </g>
    <g clip-path="url(#pd833eb1ca4)">
     <use style="fill:#ff7c00;stroke:#ffffff;stroke-width:0.384;" x="419.801796" xlink:href="#C0_0_0ef337950d" y="448.966156"/>
    </g>
    <g clip-path="url(#pd833eb1ca4)">
     <use style="fill:#023eff;stroke:#ffffff;stroke-width:0.384;" x="489.12946" xlink:href="#C0_0_0ef337950d" y="256.174303"/>
    </g>
    <g clip-path="url(#pd833eb1ca4)">
     <use style="fill:#023eff;stroke:#ffffff;stroke-width:0.384;" x="483.993957" xlink:href="#C0_0_0ef337950d" y="142.432565"/>
    </g>
    <g clip-path="url(#pd833eb1ca4)">
     <use style="fill:#1ac938;stroke:#ffffff;stroke-width:0.384;" x="64.904536" xlink:href="#C0_0_0ef337950d" y="364.392411"/>
    </g>
    <g clip-path="url(#pd833eb1ca4)">
     <use style="fill:#1ac938;stroke:#ffffff;stroke-width:0.384;" x="128.663069" xlink:href="#C0_0_0ef337950d" y="423.578698"/>
    </g>
    <g clip-path="url(#pd833eb1ca4)">
     <use style="fill:#1ac938;stroke:#ffffff;stroke-width:0.384;" x="91.2665" xlink:href="#C0_0_0ef337950d" y="326.360777"/>
    </g>
    <g clip-path="url(#pd833eb1ca4)">
     <use style="fill:#8b2be2;stroke:#ffffff;stroke-width:0.384;" x="357.296225" xlink:href="#C0_0_0ef337950d" y="411.51989"/>
    </g>
    <g clip-path="url(#pd833eb1ca4)">
     <use style="fill:#1ac938;stroke:#ffffff;stroke-width:0.384;" x="248.743804" xlink:href="#C0_0_0ef337950d" y="172.360464"/>
    </g>
    <g clip-path="url(#pd833eb1ca4)">
     <use style="fill:#1ac938;stroke:#ffffff;stroke-width:0.384;" x="97.195" xlink:href="#C0_0_0ef337950d" y="294.97393"/>
    </g>
    <g clip-path="url(#pd833eb1ca4)">
     <use style="fill:#e8000b;stroke:#ffffff;stroke-width:0.384;" x="401.252101" xlink:href="#C0_0_0ef337950d" y="60.709091"/>
    </g>
    <g clip-path="url(#pd833eb1ca4)">
     <use style="fill:#e8000b;stroke:#ffffff;stroke-width:0.384;" x="416.794036" xlink:href="#C0_0_0ef337950d" y="149.507337"/>
    </g>
    <g clip-path="url(#pd833eb1ca4)">
     <use style="fill:#1ac938;stroke:#ffffff;stroke-width:0.384;" x="78.913849" xlink:href="#C0_0_0ef337950d" y="266.226211"/>
    </g>
    <g clip-path="url(#pd833eb1ca4)">
     <use style="fill:#8b2be2;stroke:#ffffff;stroke-width:0.384;" x="443.748433" xlink:href="#C0_0_0ef337950d" y="554.890909"/>
    </g>
    <g clip-path="url(#pd833eb1ca4)">
     <use style="fill:#8b2be2;stroke:#ffffff;stroke-width:0.384;" x="351.489549" xlink:href="#C0_0_0ef337950d" y="249.568352"/>
    </g>
    <g clip-path="url(#pd833eb1ca4)">
     <use style="fill:#023eff;stroke:#ffffff;stroke-width:0.384;" x="514.799142" xlink:href="#C0_0_0ef337950d" y="266.30482"/>
    </g>
    <g clip-path="url(#pd833eb1ca4)">
     <use style="fill:#1ac938;stroke:#ffffff;stroke-width:0.384;" x="193.34814" xlink:href="#C0_0_0ef337950d" y="346.96034"/>
    </g>
    <g clip-path="url(#pd833eb1ca4)">
     <use style="fill:#8b2be2;stroke:#ffffff;stroke-width:0.384;" x="306.689771" xlink:href="#C0_0_0ef337950d" y="494.944403"/>
    </g>
    <g clip-path="url(#pd833eb1ca4)">
     <use style="fill:#1ac938;stroke:#ffffff;stroke-width:0.384;" x="138.824181" xlink:href="#C0_0_0ef337950d" y="385.198376"/>
    </g>
    <g clip-path="url(#pd833eb1ca4)">
     <use style="fill:#8b2be2;stroke:#ffffff;stroke-width:0.384;" x="445.266365" xlink:href="#C0_0_0ef337950d" y="544.654252"/>
    </g>
    <g clip-path="url(#pd833eb1ca4)">
     <use style="fill:#1ac938;stroke:#ffffff;stroke-width:0.384;" x="199.035668" xlink:href="#C0_0_0ef337950d" y="260.770428"/>
    </g>
    <g clip-path="url(#pd833eb1ca4)">
     <use style="fill:#e8000b;stroke:#ffffff;stroke-width:0.384;" x="278.162339" xlink:href="#C0_0_0ef337950d" y="195.509117"/>
    </g>
    <g clip-path="url(#pd833eb1ca4)">
     <use style="fill:#1ac938;stroke:#ffffff;stroke-width:0.384;" x="128.887721" xlink:href="#C0_0_0ef337950d" y="389.845432"/>
    </g>
    <g clip-path="url(#pd833eb1ca4)">
     <use style="fill:#e8000b;stroke:#ffffff;stroke-width:0.384;" x="207.176227" xlink:href="#C0_0_0ef337950d" y="210.216707"/>
    </g>
    <g clip-path="url(#pd833eb1ca4)">
     <use style="fill:#1ac938;stroke:#ffffff;stroke-width:0.384;" x="181.936644" xlink:href="#C0_0_0ef337950d" y="278.247935"/>
    </g>
    <g clip-path="url(#pd833eb1ca4)">
     <use style="fill:#e8000b;stroke:#ffffff;stroke-width:0.384;" x="313.238522" xlink:href="#C0_0_0ef337950d" y="233.597207"/>
    </g>
    <g clip-path="url(#pd833eb1ca4)">
     <use style="fill:#1ac938;stroke:#ffffff;stroke-width:0.384;" x="208.678051" xlink:href="#C0_0_0ef337950d" y="346.610043"/>
    </g>
    <g clip-path="url(#pd833eb1ca4)">
     <use style="fill:#1ac938;stroke:#ffffff;stroke-width:0.384;" x="93.678356" xlink:href="#C0_0_0ef337950d" y="272.202952"/>
    </g>
    <g clip-path="url(#pd833eb1ca4)">
     <use style="fill:#8b2be2;stroke:#ffffff;stroke-width:0.384;" x="381.204244" xlink:href="#C0_0_0ef337950d" y="444.023369"/>
    </g>
    <g clip-path="url(#pd833eb1ca4)">
     <use style="fill:#1ac938;stroke:#ffffff;stroke-width:0.384;" x="102.0208" xlink:href="#C0_0_0ef337950d" y="280.26215"/>
    </g>
    <g clip-path="url(#pd833eb1ca4)">
     <use style="fill:#1ac938;stroke:#ffffff;stroke-width:0.384;" x="106.715515" xlink:href="#C0_0_0ef337950d" y="284.460096"/>
    </g>
    <g clip-path="url(#pd833eb1ca4)">
     <use style="fill:#8b2be2;stroke:#ffffff;stroke-width:0.384;" x="359.456492" xlink:href="#C0_0_0ef337950d" y="484.170739"/>
    </g>
    <g clip-path="url(#pd833eb1ca4)">
     <use style="fill:#1ac938;stroke:#ffffff;stroke-width:0.384;" x="77.824707" xlink:href="#C0_0_0ef337950d" y="364.870217"/>
    </g>
    <g clip-path="url(#pd833eb1ca4)">
     <use style="fill:#1ac938;stroke:#ffffff;stroke-width:0.384;" x="122.564314" xlink:href="#C0_0_0ef337950d" y="338.016975"/>
    </g>
   </g>
   <g id="PathCollection_2"/>
   <g id="PathCollection_3"/>
   <g id="PathCollection_4"/>
   <g id="PathCollection_5"/>
   <g id="PathCollection_6"/>
   <g id="patch_3">
    <path d="M 39.5409 579.6 
L 39.5409 36 
" style="fill:none;stroke:#ffffff;stroke-linecap:square;stroke-linejoin:miter;"/>
   </g>
   <g id="patch_4">
    <path d="M 597.5409 579.6 
L 597.5409 36 
" style="fill:none;stroke:#ffffff;stroke-linecap:square;stroke-linejoin:miter;"/>
   </g>
   <g id="patch_5">
    <path d="M 39.5409 579.6 
L 597.5409 579.6 
" style="fill:none;stroke:#ffffff;stroke-linecap:square;stroke-linejoin:miter;"/>
   </g>
   <g id="patch_6">
    <path d="M 39.5409 36 
L 597.5409 36 
" style="fill:none;stroke:#ffffff;stroke-linecap:square;stroke-linejoin:miter;"/>
   </g>
   <g id="text_3">
    <!-- AfD -->
    <g style="fill:#00008b;" transform="translate(574.606187 303.692279)scale(0.079968 -0.079968)">
     <defs>
      <path d="M 3419 850 
L 1538 850 
L 1241 0 
L 31 0 
L 1759 4666 
L 3194 4666 
L 4922 0 
L 3713 0 
L 3419 850 
z
M 1838 1716 
L 3116 1716 
L 2478 3572 
L 1838 1716 
z
" id="DejaVuSans-Bold-41" transform="scale(0.015625)"/>
      <path d="M 2841 4863 
L 2841 4128 
L 2222 4128 
Q 1984 4128 1890 4042 
Q 1797 3956 1797 3744 
L 1797 3500 
L 2753 3500 
L 2753 2700 
L 1797 2700 
L 1797 0 
L 678 0 
L 678 2700 
L 122 2700 
L 122 3500 
L 678 3500 
L 678 3744 
Q 678 4316 997 4589 
Q 1316 4863 1984 4863 
L 2841 4863 
z
" id="DejaVuSans-Bold-66" transform="scale(0.015625)"/>
      <path d="M 1791 3756 
L 1791 909 
L 2222 909 
Q 2959 909 3348 1275 
Q 3738 1641 3738 2338 
Q 3738 3031 3350 3393 
Q 2963 3756 2222 3756 
L 1791 3756 
z
M 588 4666 
L 1856 4666 
Q 2919 4666 3439 4514 
Q 3959 4363 4331 4000 
Q 4659 3684 4818 3271 
Q 4978 2859 4978 2338 
Q 4978 1809 4818 1395 
Q 4659 981 4331 666 
Q 3956 303 3431 151 
Q 2906 0 1856 0 
L 588 0 
L 588 4666 
z
" id="DejaVuSans-Bold-44" transform="scale(0.015625)"/>
     </defs>
     <use xlink:href="#DejaVuSans-Bold-41"/>
     <use x="77.392578" xlink:href="#DejaVuSans-Bold-66"/>
     <use x="120.898438" xlink:href="#DejaVuSans-Bold-44"/>
    </g>
   </g>
   <g id="text_4">
    <!-- BP -->
    <g transform="translate(514.696396 274.568713)scale(0.079968 -0.079968)">
     <defs>
      <path d="M 1259 2228 
L 1259 519 
L 2272 519 
Q 2781 519 3026 730 
Q 3272 941 3272 1375 
Q 3272 1813 3026 2020 
Q 2781 2228 2272 2228 
L 1259 2228 
z
M 1259 4147 
L 1259 2741 
L 2194 2741 
Q 2656 2741 2882 2914 
Q 3109 3088 3109 3444 
Q 3109 3797 2882 3972 
Q 2656 4147 2194 4147 
L 1259 4147 
z
M 628 4666 
L 2241 4666 
Q 2963 4666 3353 4366 
Q 3744 4066 3744 3513 
Q 3744 3084 3544 2831 
Q 3344 2578 2956 2516 
Q 3422 2416 3680 2098 
Q 3938 1781 3938 1306 
Q 3938 681 3513 340 
Q 3088 0 2303 0 
L 628 0 
L 628 4666 
z
" id="DejaVuSans-42" transform="scale(0.015625)"/>
     </defs>
     <use xlink:href="#DejaVuSans-42"/>
     <use x="68.603516" xlink:href="#DejaVuSans-50"/>
    </g>
   </g>
   <g id="text_5">
    <!-- BÜNDNIS21 -->
    <g transform="translate(449.271775 352.946633)scale(0.079968 -0.079968)">
     <defs>
      <path d="M 556 4666 
L 1191 4666 
L 1191 1831 
Q 1191 1081 1462 751 
Q 1734 422 2344 422 
Q 2950 422 3222 751 
Q 3494 1081 3494 1831 
L 3494 4666 
L 4128 4666 
L 4128 1753 
Q 4128 841 3676 375 
Q 3225 -91 2344 -91 
Q 1459 -91 1007 375 
Q 556 841 556 1753 
L 556 4666 
z
M 2638 5830 
L 3272 5830 
L 3272 5196 
L 2638 5196 
L 2638 5830 
z
M 1416 5830 
L 2050 5830 
L 2050 5196 
L 1416 5196 
L 1416 5830 
z
" id="DejaVuSans-dc" transform="scale(0.015625)"/>
      <path d="M 628 4666 
L 1478 4666 
L 3547 763 
L 3547 4666 
L 4159 4666 
L 4159 0 
L 3309 0 
L 1241 3903 
L 1241 0 
L 628 0 
L 628 4666 
z
" id="DejaVuSans-4e" transform="scale(0.015625)"/>
      <path d="M 1259 4147 
L 1259 519 
L 2022 519 
Q 2988 519 3436 956 
Q 3884 1394 3884 2338 
Q 3884 3275 3436 3711 
Q 2988 4147 2022 4147 
L 1259 4147 
z
M 628 4666 
L 1925 4666 
Q 3281 4666 3915 4102 
Q 4550 3538 4550 2338 
Q 4550 1131 3912 565 
Q 3275 0 1925 0 
L 628 0 
L 628 4666 
z
" id="DejaVuSans-44" transform="scale(0.015625)"/>
      <path d="M 628 4666 
L 1259 4666 
L 1259 0 
L 628 0 
L 628 4666 
z
" id="DejaVuSans-49" transform="scale(0.015625)"/>
      <path d="M 3425 4513 
L 3425 3897 
Q 3066 4069 2747 4153 
Q 2428 4238 2131 4238 
Q 1616 4238 1336 4038 
Q 1056 3838 1056 3469 
Q 1056 3159 1242 3001 
Q 1428 2844 1947 2747 
L 2328 2669 
Q 3034 2534 3370 2195 
Q 3706 1856 3706 1288 
Q 3706 609 3251 259 
Q 2797 -91 1919 -91 
Q 1588 -91 1214 -16 
Q 841 59 441 206 
L 441 856 
Q 825 641 1194 531 
Q 1563 422 1919 422 
Q 2459 422 2753 634 
Q 3047 847 3047 1241 
Q 3047 1584 2836 1778 
Q 2625 1972 2144 2069 
L 1759 2144 
Q 1053 2284 737 2584 
Q 422 2884 422 3419 
Q 422 4038 858 4394 
Q 1294 4750 2059 4750 
Q 2388 4750 2728 4690 
Q 3069 4631 3425 4513 
z
" id="DejaVuSans-53" transform="scale(0.015625)"/>
     </defs>
     <use xlink:href="#DejaVuSans-42"/>
     <use x="68.603516" xlink:href="#DejaVuSans-dc"/>
     <use x="141.796875" xlink:href="#DejaVuSans-4e"/>
     <use x="216.601562" xlink:href="#DejaVuSans-44"/>
     <use x="293.603516" xlink:href="#DejaVuSans-4e"/>
     <use x="368.408203" xlink:href="#DejaVuSans-49"/>
     <use x="397.900391" xlink:href="#DejaVuSans-53"/>
     <use x="461.376953" xlink:href="#DejaVuSans-32"/>
     <use x="525" xlink:href="#DejaVuSans-31"/>
    </g>
   </g>
   <g id="text_6">
    <!-- BÜRGERBEWEGUNG -->
    <g transform="translate(385.955165 361.139451)scale(0.079968 -0.079968)">
     <defs>
      <path d="M 2841 2188 
Q 3044 2119 3236 1894 
Q 3428 1669 3622 1275 
L 4263 0 
L 3584 0 
L 2988 1197 
Q 2756 1666 2539 1819 
Q 2322 1972 1947 1972 
L 1259 1972 
L 1259 0 
L 628 0 
L 628 4666 
L 2053 4666 
Q 2853 4666 3247 4331 
Q 3641 3997 3641 3322 
Q 3641 2881 3436 2590 
Q 3231 2300 2841 2188 
z
M 1259 4147 
L 1259 2491 
L 2053 2491 
Q 2509 2491 2742 2702 
Q 2975 2913 2975 3322 
Q 2975 3731 2742 3939 
Q 2509 4147 2053 4147 
L 1259 4147 
z
" id="DejaVuSans-52" transform="scale(0.015625)"/>
      <path d="M 3809 666 
L 3809 1919 
L 2778 1919 
L 2778 2438 
L 4434 2438 
L 4434 434 
Q 4069 175 3628 42 
Q 3188 -91 2688 -91 
Q 1594 -91 976 548 
Q 359 1188 359 2328 
Q 359 3472 976 4111 
Q 1594 4750 2688 4750 
Q 3144 4750 3555 4637 
Q 3966 4525 4313 4306 
L 4313 3634 
Q 3963 3931 3569 4081 
Q 3175 4231 2741 4231 
Q 1884 4231 1454 3753 
Q 1025 3275 1025 2328 
Q 1025 1384 1454 906 
Q 1884 428 2741 428 
Q 3075 428 3337 486 
Q 3600 544 3809 666 
z
" id="DejaVuSans-47" transform="scale(0.015625)"/>
      <path d="M 628 4666 
L 3578 4666 
L 3578 4134 
L 1259 4134 
L 1259 2753 
L 3481 2753 
L 3481 2222 
L 1259 2222 
L 1259 531 
L 3634 531 
L 3634 0 
L 628 0 
L 628 4666 
z
" id="DejaVuSans-45" transform="scale(0.015625)"/>
      <path d="M 213 4666 
L 850 4666 
L 1831 722 
L 2809 4666 
L 3519 4666 
L 4500 722 
L 5478 4666 
L 6119 4666 
L 4947 0 
L 4153 0 
L 3169 4050 
L 2175 0 
L 1381 0 
L 213 4666 
z
" id="DejaVuSans-57" transform="scale(0.015625)"/>
      <path d="M 556 4666 
L 1191 4666 
L 1191 1831 
Q 1191 1081 1462 751 
Q 1734 422 2344 422 
Q 2950 422 3222 751 
Q 3494 1081 3494 1831 
L 3494 4666 
L 4128 4666 
L 4128 1753 
Q 4128 841 3676 375 
Q 3225 -91 2344 -91 
Q 1459 -91 1007 375 
Q 556 841 556 1753 
L 556 4666 
z
" id="DejaVuSans-55" transform="scale(0.015625)"/>
     </defs>
     <use xlink:href="#DejaVuSans-42"/>
     <use x="68.603516" xlink:href="#DejaVuSans-dc"/>
     <use x="141.796875" xlink:href="#DejaVuSans-52"/>
     <use x="211.279297" xlink:href="#DejaVuSans-47"/>
     <use x="288.769531" xlink:href="#DejaVuSans-45"/>
     <use x="351.953125" xlink:href="#DejaVuSans-52"/>
     <use x="421.435547" xlink:href="#DejaVuSans-42"/>
     <use x="490.039062" xlink:href="#DejaVuSans-45"/>
     <use x="553.222656" xlink:href="#DejaVuSans-57"/>
     <use x="652.099609" xlink:href="#DejaVuSans-45"/>
     <use x="715.283203" xlink:href="#DejaVuSans-47"/>
     <use x="792.773438" xlink:href="#DejaVuSans-55"/>
     <use x="865.966797" xlink:href="#DejaVuSans-4e"/>
     <use x="940.771484" xlink:href="#DejaVuSans-47"/>
    </g>
   </g>
   <g id="text_7">
    <!-- BüSo -->
    <g transform="translate(422.23072 445.79775)scale(0.079968 -0.079968)">
     <defs>
      <path d="M 544 1381 
L 544 3500 
L 1119 3500 
L 1119 1403 
Q 1119 906 1312 657 
Q 1506 409 1894 409 
Q 2359 409 2629 706 
Q 2900 1003 2900 1516 
L 2900 3500 
L 3475 3500 
L 3475 0 
L 2900 0 
L 2900 538 
Q 2691 219 2414 64 
Q 2138 -91 1772 -91 
Q 1169 -91 856 284 
Q 544 659 544 1381 
z
M 1991 3584 
L 1991 3584 
z
M 2278 4850 
L 2912 4850 
L 2912 4219 
L 2278 4219 
L 2278 4850 
z
M 1056 4850 
L 1690 4850 
L 1690 4219 
L 1056 4219 
L 1056 4850 
z
" id="DejaVuSans-fc" transform="scale(0.015625)"/>
     </defs>
     <use xlink:href="#DejaVuSans-42"/>
     <use x="68.603516" xlink:href="#DejaVuSans-fc"/>
     <use x="131.982422" xlink:href="#DejaVuSans-53"/>
     <use x="195.458984" xlink:href="#DejaVuSans-6f"/>
    </g>
   </g>
   <g id="text_8">
    <!-- Bündnis C -->
    <g transform="translate(491.558383 253.005896)scale(0.079968 -0.079968)">
     <defs>
      <path d="M 2906 2969 
L 2906 4863 
L 3481 4863 
L 3481 0 
L 2906 0 
L 2906 525 
Q 2725 213 2448 61 
Q 2172 -91 1784 -91 
Q 1150 -91 751 415 
Q 353 922 353 1747 
Q 353 2572 751 3078 
Q 1150 3584 1784 3584 
Q 2172 3584 2448 3432 
Q 2725 3281 2906 2969 
z
M 947 1747 
Q 947 1113 1208 752 
Q 1469 391 1925 391 
Q 2381 391 2643 752 
Q 2906 1113 2906 1747 
Q 2906 2381 2643 2742 
Q 2381 3103 1925 3103 
Q 1469 3103 1208 2742 
Q 947 2381 947 1747 
z
" id="DejaVuSans-64" transform="scale(0.015625)"/>
      <path d="M 2834 3397 
L 2834 2853 
Q 2591 2978 2328 3040 
Q 2066 3103 1784 3103 
Q 1356 3103 1142 2972 
Q 928 2841 928 2578 
Q 928 2378 1081 2264 
Q 1234 2150 1697 2047 
L 1894 2003 
Q 2506 1872 2764 1633 
Q 3022 1394 3022 966 
Q 3022 478 2636 193 
Q 2250 -91 1575 -91 
Q 1294 -91 989 -36 
Q 684 19 347 128 
L 347 722 
Q 666 556 975 473 
Q 1284 391 1588 391 
Q 1994 391 2212 530 
Q 2431 669 2431 922 
Q 2431 1156 2273 1281 
Q 2116 1406 1581 1522 
L 1381 1569 
Q 847 1681 609 1914 
Q 372 2147 372 2553 
Q 372 3047 722 3315 
Q 1072 3584 1716 3584 
Q 2034 3584 2315 3537 
Q 2597 3491 2834 3397 
z
" id="DejaVuSans-73" transform="scale(0.015625)"/>
     </defs>
     <use xlink:href="#DejaVuSans-42"/>
     <use x="68.603516" xlink:href="#DejaVuSans-fc"/>
     <use x="131.982422" xlink:href="#DejaVuSans-6e"/>
     <use x="195.361328" xlink:href="#DejaVuSans-64"/>
     <use x="258.837891" xlink:href="#DejaVuSans-6e"/>
     <use x="322.216797" xlink:href="#DejaVuSans-69"/>
     <use x="350" xlink:href="#DejaVuSans-73"/>
     <use x="402.099609" xlink:href="#DejaVuSans-20"/>
     <use x="433.886719" xlink:href="#DejaVuSans-43"/>
    </g>
   </g>
   <g id="text_9">
    <!-- CDU / CSU -->
    <g style="fill:#00008b;" transform="translate(486.422881 139.264158)scale(0.079968 -0.079968)">
     <defs>
      <path d="M 4288 256 
Q 3956 84 3597 -3 
Q 3238 -91 2847 -91 
Q 1681 -91 1000 561 
Q 319 1213 319 2328 
Q 319 3447 1000 4098 
Q 1681 4750 2847 4750 
Q 3238 4750 3597 4662 
Q 3956 4575 4288 4403 
L 4288 3438 
Q 3953 3666 3628 3772 
Q 3303 3878 2944 3878 
Q 2300 3878 1931 3465 
Q 1563 3053 1563 2328 
Q 1563 1606 1931 1193 
Q 2300 781 2944 781 
Q 3303 781 3628 887 
Q 3953 994 4288 1222 
L 4288 256 
z
" id="DejaVuSans-Bold-43" transform="scale(0.015625)"/>
      <path d="M 588 4666 
L 1791 4666 
L 1791 1869 
Q 1791 1291 1980 1042 
Q 2169 794 2597 794 
Q 3028 794 3217 1042 
Q 3406 1291 3406 1869 
L 3406 4666 
L 4609 4666 
L 4609 1869 
Q 4609 878 4112 393 
Q 3616 -91 2597 -91 
Q 1581 -91 1084 393 
Q 588 878 588 1869 
L 588 4666 
z
" id="DejaVuSans-Bold-55" transform="scale(0.015625)"/>
      <path id="DejaVuSans-Bold-20" transform="scale(0.015625)"/>
      <path d="M 1644 4666 
L 2338 4666 
L 691 -594 
L 0 -594 
L 1644 4666 
z
" id="DejaVuSans-Bold-2f" transform="scale(0.015625)"/>
      <path d="M 3834 4519 
L 3834 3531 
Q 3450 3703 3084 3790 
Q 2719 3878 2394 3878 
Q 1963 3878 1756 3759 
Q 1550 3641 1550 3391 
Q 1550 3203 1689 3098 
Q 1828 2994 2194 2919 
L 2706 2816 
Q 3484 2659 3812 2340 
Q 4141 2022 4141 1434 
Q 4141 663 3683 286 
Q 3225 -91 2284 -91 
Q 1841 -91 1394 -6 
Q 947 78 500 244 
L 500 1259 
Q 947 1022 1364 901 
Q 1781 781 2169 781 
Q 2563 781 2772 912 
Q 2981 1044 2981 1288 
Q 2981 1506 2839 1625 
Q 2697 1744 2272 1838 
L 1806 1941 
Q 1106 2091 782 2419 
Q 459 2747 459 3303 
Q 459 4000 909 4375 
Q 1359 4750 2203 4750 
Q 2588 4750 2994 4692 
Q 3400 4634 3834 4519 
z
" id="DejaVuSans-Bold-53" transform="scale(0.015625)"/>
     </defs>
     <use xlink:href="#DejaVuSans-Bold-43"/>
     <use x="73.388672" xlink:href="#DejaVuSans-Bold-44"/>
     <use x="156.396484" xlink:href="#DejaVuSans-Bold-55"/>
     <use x="237.597656" xlink:href="#DejaVuSans-Bold-20"/>
     <use x="272.412109" xlink:href="#DejaVuSans-Bold-2f"/>
     <use x="308.935547" xlink:href="#DejaVuSans-Bold-20"/>
     <use x="343.75" xlink:href="#DejaVuSans-Bold-43"/>
     <use x="419.013672" xlink:href="#DejaVuSans-Bold-53"/>
     <use x="491.035156" xlink:href="#DejaVuSans-Bold-55"/>
    </g>
   </g>
   <g id="text_10">
    <!-- DIE LINKE -->
    <g style="fill:#00008b;" transform="translate(67.33346 361.224004)scale(0.079968 -0.079968)">
     <defs>
      <path d="M 588 4666 
L 1791 4666 
L 1791 0 
L 588 0 
L 588 4666 
z
" id="DejaVuSans-Bold-49" transform="scale(0.015625)"/>
      <path d="M 588 4666 
L 3834 4666 
L 3834 3756 
L 1791 3756 
L 1791 2888 
L 3713 2888 
L 3713 1978 
L 1791 1978 
L 1791 909 
L 3903 909 
L 3903 0 
L 588 0 
L 588 4666 
z
" id="DejaVuSans-Bold-45" transform="scale(0.015625)"/>
      <path d="M 588 4666 
L 1791 4666 
L 1791 909 
L 3903 909 
L 3903 0 
L 588 0 
L 588 4666 
z
" id="DejaVuSans-Bold-4c" transform="scale(0.015625)"/>
      <path d="M 588 4666 
L 1931 4666 
L 3628 1466 
L 3628 4666 
L 4769 4666 
L 4769 0 
L 3425 0 
L 1728 3200 
L 1728 0 
L 588 0 
L 588 4666 
z
" id="DejaVuSans-Bold-4e" transform="scale(0.015625)"/>
      <path d="M 588 4666 
L 1791 4666 
L 1791 2963 
L 3525 4666 
L 4922 4666 
L 2675 2456 
L 5153 0 
L 3647 0 
L 1791 1838 
L 1791 0 
L 588 0 
L 588 4666 
z
" id="DejaVuSans-Bold-4b" transform="scale(0.015625)"/>
     </defs>
     <use xlink:href="#DejaVuSans-Bold-44"/>
     <use x="83.007812" xlink:href="#DejaVuSans-Bold-49"/>
     <use x="120.214844" xlink:href="#DejaVuSans-Bold-45"/>
     <use x="188.525391" xlink:href="#DejaVuSans-Bold-20"/>
     <use x="223.339844" xlink:href="#DejaVuSans-Bold-4c"/>
     <use x="287.060547" xlink:href="#DejaVuSans-Bold-49"/>
     <use x="324.267578" xlink:href="#DejaVuSans-Bold-4e"/>
     <use x="407.958984" xlink:href="#DejaVuSans-Bold-4b"/>
     <use x="485.449219" xlink:href="#DejaVuSans-Bold-45"/>
    </g>
   </g>
   <g id="text_11">
    <!-- DKP -->
    <g transform="translate(131.091993 420.410292)scale(0.079968 -0.079968)">
     <use xlink:href="#DejaVuSans-44"/>
     <use x="77.001953" xlink:href="#DejaVuSans-4b"/>
     <use x="142.578125" xlink:href="#DejaVuSans-50"/>
    </g>
   </g>
   <g id="text_12">
    <!-- DiB -->
    <g transform="translate(93.695424 323.19237)scale(0.079968 -0.079968)">
     <use xlink:href="#DejaVuSans-44"/>
     <use x="77.001953" xlink:href="#DejaVuSans-69"/>
     <use x="104.785156" xlink:href="#DejaVuSans-42"/>
    </g>
   </g>
   <g id="text_13">
    <!-- Die Grauen -->
    <g transform="translate(359.725149 408.351483)scale(0.079968 -0.079968)">
     <defs>
      <path d="M 544 1381 
L 544 3500 
L 1119 3500 
L 1119 1403 
Q 1119 906 1312 657 
Q 1506 409 1894 409 
Q 2359 409 2629 706 
Q 2900 1003 2900 1516 
L 2900 3500 
L 3475 3500 
L 3475 0 
L 2900 0 
L 2900 538 
Q 2691 219 2414 64 
Q 2138 -91 1772 -91 
Q 1169 -91 856 284 
Q 544 659 544 1381 
z
M 1991 3584 
L 1991 3584 
z
" id="DejaVuSans-75" transform="scale(0.015625)"/>
     </defs>
     <use xlink:href="#DejaVuSans-44"/>
     <use x="77.001953" xlink:href="#DejaVuSans-69"/>
     <use x="104.785156" xlink:href="#DejaVuSans-65"/>
     <use x="166.308594" xlink:href="#DejaVuSans-20"/>
     <use x="198.095703" xlink:href="#DejaVuSans-47"/>
     <use x="275.585938" xlink:href="#DejaVuSans-72"/>
     <use x="316.699219" xlink:href="#DejaVuSans-61"/>
     <use x="377.978516" xlink:href="#DejaVuSans-75"/>
     <use x="441.357422" xlink:href="#DejaVuSans-65"/>
     <use x="502.880859" xlink:href="#DejaVuSans-6e"/>
    </g>
   </g>
   <g id="text_14">
    <!-- Die Humanisten -->
    <g transform="translate(251.172728 169.192058)scale(0.079968 -0.079968)">
     <defs>
      <path d="M 628 4666 
L 1259 4666 
L 1259 2753 
L 3553 2753 
L 3553 4666 
L 4184 4666 
L 4184 0 
L 3553 0 
L 3553 2222 
L 1259 2222 
L 1259 0 
L 628 0 
L 628 4666 
z
" id="DejaVuSans-48" transform="scale(0.015625)"/>
     </defs>
     <use xlink:href="#DejaVuSans-44"/>
     <use x="77.001953" xlink:href="#DejaVuSans-69"/>
     <use x="104.785156" xlink:href="#DejaVuSans-65"/>
     <use x="166.308594" xlink:href="#DejaVuSans-20"/>
     <use x="198.095703" xlink:href="#DejaVuSans-48"/>
     <use x="273.291016" xlink:href="#DejaVuSans-75"/>
     <use x="336.669922" xlink:href="#DejaVuSans-6d"/>
     <use x="434.082031" xlink:href="#DejaVuSans-61"/>
     <use x="495.361328" xlink:href="#DejaVuSans-6e"/>
     <use x="558.740234" xlink:href="#DejaVuSans-69"/>
     <use x="586.523438" xlink:href="#DejaVuSans-73"/>
     <use x="638.623047" xlink:href="#DejaVuSans-74"/>
     <use x="677.832031" xlink:href="#DejaVuSans-65"/>
     <use x="739.355469" xlink:href="#DejaVuSans-6e"/>
    </g>
   </g>
   <g id="text_15">
    <!-- Die PARTEI -->
    <g transform="translate(99.623924 291.805523)scale(0.079968 -0.079968)">
     <defs>
      <path d="M 2188 4044 
L 1331 1722 
L 3047 1722 
L 2188 4044 
z
M 1831 4666 
L 2547 4666 
L 4325 0 
L 3669 0 
L 3244 1197 
L 1141 1197 
L 716 0 
L 50 0 
L 1831 4666 
z
" id="DejaVuSans-41" transform="scale(0.015625)"/>
      <path d="M -19 4666 
L 3928 4666 
L 3928 4134 
L 2272 4134 
L 2272 0 
L 1638 0 
L 1638 4134 
L -19 4134 
L -19 4666 
z
" id="DejaVuSans-54" transform="scale(0.015625)"/>
     </defs>
     <use xlink:href="#DejaVuSans-44"/>
     <use x="77.001953" xlink:href="#DejaVuSans-69"/>
     <use x="104.785156" xlink:href="#DejaVuSans-65"/>
     <use x="166.308594" xlink:href="#DejaVuSans-20"/>
     <use x="198.095703" xlink:href="#DejaVuSans-50"/>
     <use x="252.023438" xlink:href="#DejaVuSans-41"/>
     <use x="320.431641" xlink:href="#DejaVuSans-52"/>
     <use x="382.664062" xlink:href="#DejaVuSans-54"/>
     <use x="443.748047" xlink:href="#DejaVuSans-45"/>
     <use x="506.931641" xlink:href="#DejaVuSans-49"/>
    </g>
   </g>
   <g id="text_16">
    <!-- FDP -->
    <g style="fill:#00008b;" transform="translate(403.681025 57.540684)scale(0.079968 -0.079968)">
     <defs>
      <path d="M 588 4666 
L 3834 4666 
L 3834 3756 
L 1791 3756 
L 1791 2888 
L 3713 2888 
L 3713 1978 
L 1791 1978 
L 1791 0 
L 588 0 
L 588 4666 
z
" id="DejaVuSans-Bold-46" transform="scale(0.015625)"/>
      <path d="M 588 4666 
L 2584 4666 
Q 3475 4666 3951 4270 
Q 4428 3875 4428 3144 
Q 4428 2409 3951 2014 
Q 3475 1619 2584 1619 
L 1791 1619 
L 1791 0 
L 588 0 
L 588 4666 
z
M 1791 3794 
L 1791 2491 
L 2456 2491 
Q 2806 2491 2997 2661 
Q 3188 2831 3188 3144 
Q 3188 3456 2997 3625 
Q 2806 3794 2456 3794 
L 1791 3794 
z
" id="DejaVuSans-Bold-50" transform="scale(0.015625)"/>
     </defs>
     <use xlink:href="#DejaVuSans-Bold-46"/>
     <use x="68.310547" xlink:href="#DejaVuSans-Bold-44"/>
     <use x="151.318359" xlink:href="#DejaVuSans-Bold-50"/>
    </g>
   </g>
   <g id="text_17">
    <!-- FREIE WÄHLER -->
    <g transform="translate(419.22296 146.338931)scale(0.079968 -0.079968)">
     <defs>
      <path d="M 628 4666 
L 3309 4666 
L 3309 4134 
L 1259 4134 
L 1259 2759 
L 3109 2759 
L 3109 2228 
L 1259 2228 
L 1259 0 
L 628 0 
L 628 4666 
z
" id="DejaVuSans-46" transform="scale(0.015625)"/>
      <path d="M 2188 4044 
L 1331 1722 
L 3047 1722 
L 2188 4044 
z
M 1831 4666 
L 2547 4666 
L 4325 0 
L 3669 0 
L 3244 1197 
L 1141 1197 
L 716 0 
L 50 0 
L 1831 4666 
z
M 2478 5830 
L 3112 5830 
L 3112 5196 
L 2478 5196 
L 2478 5830 
z
M 1256 5830 
L 1890 5830 
L 1890 5196 
L 1256 5196 
L 1256 5830 
z
" id="DejaVuSans-c4" transform="scale(0.015625)"/>
      <path d="M 628 4666 
L 1259 4666 
L 1259 531 
L 3531 531 
L 3531 0 
L 628 0 
L 628 4666 
z
" id="DejaVuSans-4c" transform="scale(0.015625)"/>
     </defs>
     <use xlink:href="#DejaVuSans-46"/>
     <use x="57.519531" xlink:href="#DejaVuSans-52"/>
     <use x="127.001953" xlink:href="#DejaVuSans-45"/>
     <use x="190.185547" xlink:href="#DejaVuSans-49"/>
     <use x="219.677734" xlink:href="#DejaVuSans-45"/>
     <use x="282.861328" xlink:href="#DejaVuSans-20"/>
     <use x="314.648438" xlink:href="#DejaVuSans-57"/>
     <use x="408.025391" xlink:href="#DejaVuSans-c4"/>
     <use x="476.433594" xlink:href="#DejaVuSans-48"/>
     <use x="551.628906" xlink:href="#DejaVuSans-4c"/>
     <use x="607.341797" xlink:href="#DejaVuSans-45"/>
     <use x="670.525391" xlink:href="#DejaVuSans-52"/>
    </g>
   </g>
   <g id="text_18">
    <!-- GRÜNE -->
    <g style="fill:#00008b;" transform="translate(81.342772 263.057805)scale(0.079968 -0.079968)">
     <defs>
      <path d="M 4781 347 
Q 4331 128 3847 18 
Q 3363 -91 2847 -91 
Q 1681 -91 1000 561 
Q 319 1213 319 2328 
Q 319 3456 1012 4103 
Q 1706 4750 2913 4750 
Q 3378 4750 3804 4662 
Q 4231 4575 4609 4403 
L 4609 3438 
Q 4219 3659 3833 3768 
Q 3447 3878 3059 3878 
Q 2341 3878 1952 3476 
Q 1563 3075 1563 2328 
Q 1563 1588 1938 1184 
Q 2313 781 3003 781 
Q 3191 781 3352 804 
Q 3513 828 3641 878 
L 3641 1784 
L 2906 1784 
L 2906 2591 
L 4781 2591 
L 4781 347 
z
" id="DejaVuSans-Bold-47" transform="scale(0.015625)"/>
      <path d="M 2297 2597 
Q 2675 2597 2839 2737 
Q 3003 2878 3003 3200 
Q 3003 3519 2839 3656 
Q 2675 3794 2297 3794 
L 1791 3794 
L 1791 2597 
L 2297 2597 
z
M 1791 1766 
L 1791 0 
L 588 0 
L 588 4666 
L 2425 4666 
Q 3347 4666 3776 4356 
Q 4206 4047 4206 3378 
Q 4206 2916 3982 2619 
Q 3759 2322 3309 2181 
Q 3556 2125 3751 1926 
Q 3947 1728 4147 1325 
L 4800 0 
L 3519 0 
L 2950 1159 
Q 2778 1509 2601 1637 
Q 2425 1766 2131 1766 
L 1791 1766 
z
" id="DejaVuSans-Bold-52" transform="scale(0.015625)"/>
      <path d="M 588 4666 
L 1791 4666 
L 1791 1869 
Q 1791 1291 1980 1042 
Q 2169 794 2597 794 
Q 3028 794 3217 1042 
Q 3406 1291 3406 1869 
L 3406 4666 
L 4609 4666 
L 4609 1869 
Q 4609 878 4112 393 
Q 3616 -91 2597 -91 
Q 1581 -91 1084 393 
Q 588 878 588 1869 
L 588 4666 
z
M 1616 5921 
L 2350 5921 
L 2350 5152 
L 1616 5152 
L 1616 5921 
z
M 2850 5921 
L 3584 5921 
L 3584 5152 
L 2850 5152 
L 2850 5921 
z
" id="DejaVuSans-Bold-dc" transform="scale(0.015625)"/>
     </defs>
     <use xlink:href="#DejaVuSans-Bold-47"/>
     <use x="82.080078" xlink:href="#DejaVuSans-Bold-52"/>
     <use x="159.082031" xlink:href="#DejaVuSans-Bold-dc"/>
     <use x="240.283203" xlink:href="#DejaVuSans-Bold-4e"/>
     <use x="323.974609" xlink:href="#DejaVuSans-Bold-45"/>
    </g>
   </g>
   <g id="text_19">
    <!-- III. Weg -->
    <g transform="translate(446.177357 551.722503)scale(0.079968 -0.079968)">
     <defs>
      <path d="M 2906 1791 
Q 2906 2416 2648 2759 
Q 2391 3103 1925 3103 
Q 1463 3103 1205 2759 
Q 947 2416 947 1791 
Q 947 1169 1205 825 
Q 1463 481 1925 481 
Q 2391 481 2648 825 
Q 2906 1169 2906 1791 
z
M 3481 434 
Q 3481 -459 3084 -895 
Q 2688 -1331 1869 -1331 
Q 1566 -1331 1297 -1286 
Q 1028 -1241 775 -1147 
L 775 -588 
Q 1028 -725 1275 -790 
Q 1522 -856 1778 -856 
Q 2344 -856 2625 -561 
Q 2906 -266 2906 331 
L 2906 616 
Q 2728 306 2450 153 
Q 2172 0 1784 0 
Q 1141 0 747 490 
Q 353 981 353 1791 
Q 353 2603 747 3093 
Q 1141 3584 1784 3584 
Q 2172 3584 2450 3431 
Q 2728 3278 2906 2969 
L 2906 3500 
L 3481 3500 
L 3481 434 
z
" id="DejaVuSans-67" transform="scale(0.015625)"/>
     </defs>
     <use xlink:href="#DejaVuSans-49"/>
     <use x="29.492188" xlink:href="#DejaVuSans-49"/>
     <use x="58.984375" xlink:href="#DejaVuSans-49"/>
     <use x="88.476562" xlink:href="#DejaVuSans-2e"/>
     <use x="120.263672" xlink:href="#DejaVuSans-20"/>
     <use x="152.050781" xlink:href="#DejaVuSans-57"/>
     <use x="245.052734" xlink:href="#DejaVuSans-65"/>
     <use x="306.576172" xlink:href="#DejaVuSans-67"/>
    </g>
   </g>
   <g id="text_20">
    <!-- LIEBE -->
    <g transform="translate(353.918473 246.399945)scale(0.079968 -0.079968)">
     <use xlink:href="#DejaVuSans-4c"/>
     <use x="55.712891" xlink:href="#DejaVuSans-49"/>
     <use x="85.205078" xlink:href="#DejaVuSans-45"/>
     <use x="148.388672" xlink:href="#DejaVuSans-42"/>
     <use x="216.992188" xlink:href="#DejaVuSans-45"/>
    </g>
   </g>
   <g id="text_21">
    <!-- LKR -->
    <g transform="translate(517.228066 263.136414)scale(0.079968 -0.079968)">
     <use xlink:href="#DejaVuSans-4c"/>
     <use x="55.712891" xlink:href="#DejaVuSans-4b"/>
     <use x="121.289062" xlink:href="#DejaVuSans-52"/>
    </g>
   </g>
   <g id="text_22">
    <!-- LfK -->
    <g transform="translate(195.777064 343.791933)scale(0.079968 -0.079968)">
     <defs>
      <path d="M 2375 4863 
L 2375 4384 
L 1825 4384 
Q 1516 4384 1395 4259 
Q 1275 4134 1275 3809 
L 1275 3500 
L 2222 3500 
L 2222 3053 
L 1275 3053 
L 1275 0 
L 697 0 
L 697 3053 
L 147 3053 
L 147 3500 
L 697 3500 
L 697 3744 
Q 697 4328 969 4595 
Q 1241 4863 1831 4863 
L 2375 4863 
z
" id="DejaVuSans-66" transform="scale(0.015625)"/>
     </defs>
     <use xlink:href="#DejaVuSans-4c"/>
     <use x="55.712891" xlink:href="#DejaVuSans-66"/>
     <use x="90.917969" xlink:href="#DejaVuSans-4b"/>
    </g>
   </g>
   <g id="text_23">
    <!-- MENSCHLICHE WELT -->
    <g transform="translate(309.118695 491.775996)scale(0.079968 -0.079968)">
     <defs>
      <path d="M 628 4666 
L 1569 4666 
L 2759 1491 
L 3956 4666 
L 4897 4666 
L 4897 0 
L 4281 0 
L 4281 4097 
L 3078 897 
L 2444 897 
L 1241 4097 
L 1241 0 
L 628 0 
L 628 4666 
z
" id="DejaVuSans-4d" transform="scale(0.015625)"/>
     </defs>
     <use xlink:href="#DejaVuSans-4d"/>
     <use x="86.279297" xlink:href="#DejaVuSans-45"/>
     <use x="149.462891" xlink:href="#DejaVuSans-4e"/>
     <use x="224.267578" xlink:href="#DejaVuSans-53"/>
     <use x="287.744141" xlink:href="#DejaVuSans-43"/>
     <use x="357.568359" xlink:href="#DejaVuSans-48"/>
     <use x="432.763672" xlink:href="#DejaVuSans-4c"/>
     <use x="488.476562" xlink:href="#DejaVuSans-49"/>
     <use x="517.96875" xlink:href="#DejaVuSans-43"/>
     <use x="587.792969" xlink:href="#DejaVuSans-48"/>
     <use x="662.988281" xlink:href="#DejaVuSans-45"/>
     <use x="726.171875" xlink:href="#DejaVuSans-20"/>
     <use x="757.958984" xlink:href="#DejaVuSans-57"/>
     <use x="856.835938" xlink:href="#DejaVuSans-45"/>
     <use x="920.019531" xlink:href="#DejaVuSans-4c"/>
     <use x="961.982422" xlink:href="#DejaVuSans-54"/>
    </g>
   </g>
   <g id="text_24">
    <!-- MLPD -->
    <g transform="translate(141.253104 382.029969)scale(0.079968 -0.079968)">
     <use xlink:href="#DejaVuSans-4d"/>
     <use x="86.279297" xlink:href="#DejaVuSans-4c"/>
     <use x="141.992188" xlink:href="#DejaVuSans-50"/>
     <use x="202.294922" xlink:href="#DejaVuSans-44"/>
    </g>
   </g>
   <g id="text_25">
    <!-- NPD -->
    <g transform="translate(447.695289 541.485845)scale(0.079968 -0.079968)">
     <use xlink:href="#DejaVuSans-4e"/>
     <use x="74.804688" xlink:href="#DejaVuSans-50"/>
     <use x="135.107422" xlink:href="#DejaVuSans-44"/>
    </g>
   </g>
   <g id="text_26">
    <!-- PIRATEN -->
    <g transform="translate(201.464592 257.602022)scale(0.079968 -0.079968)">
     <use xlink:href="#DejaVuSans-50"/>
     <use x="60.302734" xlink:href="#DejaVuSans-49"/>
     <use x="89.794922" xlink:href="#DejaVuSans-52"/>
     <use x="155.277344" xlink:href="#DejaVuSans-41"/>
     <use x="215.935547" xlink:href="#DejaVuSans-54"/>
     <use x="277.019531" xlink:href="#DejaVuSans-45"/>
     <use x="340.203125" xlink:href="#DejaVuSans-4e"/>
    </g>
   </g>
   <g id="text_27">
    <!-- PdF -->
    <g transform="translate(280.591262 192.340711)scale(0.079968 -0.079968)">
     <use xlink:href="#DejaVuSans-50"/>
     <use x="60.302734" xlink:href="#DejaVuSans-64"/>
     <use x="123.779297" xlink:href="#DejaVuSans-46"/>
    </g>
   </g>
   <g id="text_28">
    <!-- SGP -->
    <g transform="translate(131.316645 386.677025)scale(0.079968 -0.079968)">
     <use xlink:href="#DejaVuSans-53"/>
     <use x="63.476562" xlink:href="#DejaVuSans-47"/>
     <use x="140.966797" xlink:href="#DejaVuSans-50"/>
    </g>
   </g>
   <g id="text_29">
    <!-- SPD -->
    <g style="fill:#00008b;" transform="translate(209.60515 207.048301)scale(0.079968 -0.079968)">
     <use xlink:href="#DejaVuSans-Bold-53"/>
     <use x="72.021484" xlink:href="#DejaVuSans-Bold-50"/>
     <use x="145.3125" xlink:href="#DejaVuSans-Bold-44"/>
    </g>
   </g>
   <g id="text_30">
    <!-- SSW -->
    <g transform="translate(184.365568 275.079528)scale(0.079968 -0.079968)">
     <use xlink:href="#DejaVuSans-53"/>
     <use x="63.476562" xlink:href="#DejaVuSans-53"/>
     <use x="126.953125" xlink:href="#DejaVuSans-57"/>
    </g>
   </g>
   <g id="text_31">
    <!-- Team Todenhöfer -->
    <g transform="translate(315.667446 230.4288)scale(0.079968 -0.079968)">
     <defs>
      <path d="M 3513 2113 
L 3513 0 
L 2938 0 
L 2938 2094 
Q 2938 2591 2744 2837 
Q 2550 3084 2163 3084 
Q 1697 3084 1428 2787 
Q 1159 2491 1159 1978 
L 1159 0 
L 581 0 
L 581 4863 
L 1159 4863 
L 1159 2956 
Q 1366 3272 1645 3428 
Q 1925 3584 2291 3584 
Q 2894 3584 3203 3211 
Q 3513 2838 3513 2113 
z
" id="DejaVuSans-68" transform="scale(0.015625)"/>
      <path d="M 1959 3097 
Q 1497 3097 1228 2736 
Q 959 2375 959 1747 
Q 959 1119 1226 758 
Q 1494 397 1959 397 
Q 2419 397 2687 759 
Q 2956 1122 2956 1747 
Q 2956 2369 2687 2733 
Q 2419 3097 1959 3097 
z
M 1959 3584 
Q 2709 3584 3137 3096 
Q 3566 2609 3566 1747 
Q 3566 888 3137 398 
Q 2709 -91 1959 -91 
Q 1206 -91 779 398 
Q 353 888 353 1747 
Q 353 2609 779 3096 
Q 1206 3584 1959 3584 
z
M 2254 4850 
L 2888 4850 
L 2888 4219 
L 2254 4219 
L 2254 4850 
z
M 1032 4850 
L 1666 4850 
L 1666 4219 
L 1032 4219 
L 1032 4850 
z
" id="DejaVuSans-f6" transform="scale(0.015625)"/>
     </defs>
     <use xlink:href="#DejaVuSans-54"/>
     <use x="44.083984" xlink:href="#DejaVuSans-65"/>
     <use x="105.607422" xlink:href="#DejaVuSans-61"/>
     <use x="166.886719" xlink:href="#DejaVuSans-6d"/>
     <use x="264.298828" xlink:href="#DejaVuSans-20"/>
     <use x="296.085938" xlink:href="#DejaVuSans-54"/>
     <use x="340.169922" xlink:href="#DejaVuSans-6f"/>
     <use x="401.351562" xlink:href="#DejaVuSans-64"/>
     <use x="464.828125" xlink:href="#DejaVuSans-65"/>
     <use x="526.351562" xlink:href="#DejaVuSans-6e"/>
     <use x="589.730469" xlink:href="#DejaVuSans-68"/>
     <use x="653.109375" xlink:href="#DejaVuSans-f6"/>
     <use x="714.291016" xlink:href="#DejaVuSans-66"/>
     <use x="749.496094" xlink:href="#DejaVuSans-65"/>
     <use x="811.019531" xlink:href="#DejaVuSans-72"/>
    </g>
   </g>
   <g id="text_32">
    <!-- Tierschutzallianz -->
    <g transform="translate(211.106974 343.441637)scale(0.079968 -0.079968)">
     <defs>
      <path d="M 3122 3366 
L 3122 2828 
Q 2878 2963 2633 3030 
Q 2388 3097 2138 3097 
Q 1578 3097 1268 2742 
Q 959 2388 959 1747 
Q 959 1106 1268 751 
Q 1578 397 2138 397 
Q 2388 397 2633 464 
Q 2878 531 3122 666 
L 3122 134 
Q 2881 22 2623 -34 
Q 2366 -91 2075 -91 
Q 1284 -91 818 406 
Q 353 903 353 1747 
Q 353 2603 823 3093 
Q 1294 3584 2113 3584 
Q 2378 3584 2631 3529 
Q 2884 3475 3122 3366 
z
" id="DejaVuSans-63" transform="scale(0.015625)"/>
     </defs>
     <use xlink:href="#DejaVuSans-54"/>
     <use x="57.958984" xlink:href="#DejaVuSans-69"/>
     <use x="85.742188" xlink:href="#DejaVuSans-65"/>
     <use x="147.265625" xlink:href="#DejaVuSans-72"/>
     <use x="188.378906" xlink:href="#DejaVuSans-73"/>
     <use x="240.478516" xlink:href="#DejaVuSans-63"/>
     <use x="295.458984" xlink:href="#DejaVuSans-68"/>
     <use x="358.837891" xlink:href="#DejaVuSans-75"/>
     <use x="422.216797" xlink:href="#DejaVuSans-74"/>
     <use x="461.425781" xlink:href="#DejaVuSans-7a"/>
     <use x="513.916016" xlink:href="#DejaVuSans-61"/>
     <use x="575.195312" xlink:href="#DejaVuSans-6c"/>
     <use x="602.978516" xlink:href="#DejaVuSans-6c"/>
     <use x="630.761719" xlink:href="#DejaVuSans-69"/>
     <use x="658.544922" xlink:href="#DejaVuSans-61"/>
     <use x="719.824219" xlink:href="#DejaVuSans-6e"/>
     <use x="783.203125" xlink:href="#DejaVuSans-7a"/>
    </g>
   </g>
   <g id="text_33">
    <!-- Tierschutzpartei -->
    <g transform="translate(96.10728 269.034545)scale(0.079968 -0.079968)">
     <use xlink:href="#DejaVuSans-54"/>
     <use x="57.958984" xlink:href="#DejaVuSans-69"/>
     <use x="85.742188" xlink:href="#DejaVuSans-65"/>
     <use x="147.265625" xlink:href="#DejaVuSans-72"/>
     <use x="188.378906" xlink:href="#DejaVuSans-73"/>
     <use x="240.478516" xlink:href="#DejaVuSans-63"/>
     <use x="295.458984" xlink:href="#DejaVuSans-68"/>
     <use x="358.837891" xlink:href="#DejaVuSans-75"/>
     <use x="422.216797" xlink:href="#DejaVuSans-74"/>
     <use x="461.425781" xlink:href="#DejaVuSans-7a"/>
     <use x="513.916016" xlink:href="#DejaVuSans-70"/>
     <use x="577.392578" xlink:href="#DejaVuSans-61"/>
     <use x="638.671875" xlink:href="#DejaVuSans-72"/>
     <use x="679.785156" xlink:href="#DejaVuSans-74"/>
     <use x="718.994141" xlink:href="#DejaVuSans-65"/>
     <use x="780.517578" xlink:href="#DejaVuSans-69"/>
    </g>
   </g>
   <g id="text_34">
    <!-- UNABHÄNGIGE -->
    <g transform="translate(383.633168 440.854962)scale(0.079968 -0.079968)">
     <use xlink:href="#DejaVuSans-55"/>
     <use x="73.193359" xlink:href="#DejaVuSans-4e"/>
     <use x="147.998047" xlink:href="#DejaVuSans-41"/>
     <use x="216.40625" xlink:href="#DejaVuSans-42"/>
     <use x="285.009766" xlink:href="#DejaVuSans-48"/>
     <use x="360.205078" xlink:href="#DejaVuSans-c4"/>
     <use x="428.613281" xlink:href="#DejaVuSans-4e"/>
     <use x="503.417969" xlink:href="#DejaVuSans-47"/>
     <use x="580.908203" xlink:href="#DejaVuSans-49"/>
     <use x="610.400391" xlink:href="#DejaVuSans-47"/>
     <use x="687.890625" xlink:href="#DejaVuSans-45"/>
    </g>
   </g>
   <g id="text_35">
    <!-- V-Partei³ -->
    <g transform="translate(104.449724 277.093743)scale(0.079968 -0.079968)">
     <defs>
      <path d="M 313 2009 
L 1997 2009 
L 1997 1497 
L 313 1497 
L 313 2009 
z
" id="DejaVuSans-2d" transform="scale(0.015625)"/>
      <path d="M 1638 3500 
Q 1925 3444 2083 3273 
Q 2241 3103 2241 2847 
Q 2241 2459 1944 2250 
Q 1647 2041 1094 2041 
Q 916 2041 720 2073 
Q 525 2106 306 2169 
L 306 2547 
Q 469 2463 655 2422 
Q 841 2381 1050 2381 
Q 1391 2381 1578 2504 
Q 1766 2628 1766 2847 
Q 1766 3078 1592 3197 
Q 1419 3316 1081 3316 
L 813 3316 
L 813 3653 
L 1106 3653 
Q 1400 3653 1551 3751 
Q 1703 3850 1703 4038 
Q 1703 4219 1547 4314 
Q 1391 4409 1094 4409 
Q 969 4409 809 4381 
Q 650 4353 397 4281 
L 397 4641 
Q 625 4694 825 4722 
Q 1025 4750 1197 4750 
Q 1647 4750 1911 4565 
Q 2175 4381 2175 4072 
Q 2175 3856 2034 3706 
Q 1894 3556 1638 3500 
z
" id="DejaVuSans-b3" transform="scale(0.015625)"/>
     </defs>
     <use xlink:href="#DejaVuSans-56"/>
     <use x="62.533203" xlink:href="#DejaVuSans-2d"/>
     <use x="98.617188" xlink:href="#DejaVuSans-50"/>
     <use x="154.419922" xlink:href="#DejaVuSans-61"/>
     <use x="215.699219" xlink:href="#DejaVuSans-72"/>
     <use x="256.8125" xlink:href="#DejaVuSans-74"/>
     <use x="296.021484" xlink:href="#DejaVuSans-65"/>
     <use x="357.544922" xlink:href="#DejaVuSans-69"/>
     <use x="385.328125" xlink:href="#DejaVuSans-b3"/>
    </g>
   </g>
   <g id="text_36">
    <!-- Volt -->
    <g transform="translate(109.144438 281.29169)scale(0.079968 -0.079968)">
     <use xlink:href="#DejaVuSans-56"/>
     <use x="60.658203" xlink:href="#DejaVuSans-6f"/>
     <use x="121.839844" xlink:href="#DejaVuSans-6c"/>
     <use x="149.623047" xlink:href="#DejaVuSans-74"/>
    </g>
   </g>
   <g id="text_37">
    <!-- dieBasis -->
    <g transform="translate(361.885416 481.002332)scale(0.079968 -0.079968)">
     <use xlink:href="#DejaVuSans-64"/>
     <use x="63.476562" xlink:href="#DejaVuSans-69"/>
     <use x="91.259766" xlink:href="#DejaVuSans-65"/>
     <use x="152.783203" xlink:href="#DejaVuSans-42"/>
     <use x="221.386719" xlink:href="#DejaVuSans-61"/>
     <use x="282.666016" xlink:href="#DejaVuSans-73"/>
     <use x="334.765625" xlink:href="#DejaVuSans-69"/>
     <use x="362.548828" xlink:href="#DejaVuSans-73"/>
    </g>
   </g>
   <g id="text_38">
    <!-- du. -->
    <g transform="translate(80.25363 361.70181)scale(0.079968 -0.079968)">
     <use xlink:href="#DejaVuSans-64"/>
     <use x="63.476562" xlink:href="#DejaVuSans-75"/>
     <use x="126.855469" xlink:href="#DejaVuSans-2e"/>
    </g>
   </g>
   <g id="text_39">
    <!-- ÖDP -->
    <g transform="translate(124.993238 334.848569)scale(0.079968 -0.079968)">
     <defs>
      <path d="M 2522 4238 
Q 1834 4238 1429 3725 
Q 1025 3213 1025 2328 
Q 1025 1447 1429 934 
Q 1834 422 2522 422 
Q 3209 422 3611 934 
Q 4013 1447 4013 2328 
Q 4013 3213 3611 3725 
Q 3209 4238 2522 4238 
z
M 2522 4750 
Q 3503 4750 4090 4092 
Q 4678 3434 4678 2328 
Q 4678 1225 4090 567 
Q 3503 -91 2522 -91 
Q 1538 -91 948 565 
Q 359 1222 359 2328 
Q 359 3434 948 4092 
Q 1538 4750 2522 4750 
z
M 2814 5830 
L 3448 5830 
L 3448 5196 
L 2814 5196 
L 2814 5830 
z
M 1592 5830 
L 2226 5830 
L 2226 5196 
L 1592 5196 
L 1592 5830 
z
" id="DejaVuSans-d6" transform="scale(0.015625)"/>
     </defs>
     <use xlink:href="#DejaVuSans-d6"/>
     <use x="78.710938" xlink:href="#DejaVuSans-44"/>
     <use x="155.712891" xlink:href="#DejaVuSans-50"/>
    </g>
   </g>
   <g id="legend_1">
    <g id="patch_7">
     <path d="M 546.3874 101.88125 
L 588.9809 101.88125 
Q 590.7409 101.88125 590.7409 100.12125 
L 590.7409 48.56 
Q 590.7409 46.8 588.9809 46.8 
L 546.3874 46.8 
Q 544.6274 46.8 544.6274 48.56 
L 544.6274 100.12125 
Q 544.6274 101.88125 546.3874 101.88125 
z
" style="fill:#4c4c4c;opacity:0.5;stroke:#4c4c4c;stroke-linejoin:miter;stroke-width:0.8;"/>
    </g>
    <g id="patch_8">
     <path d="M 544.3874 99.88125 
L 586.9809 99.88125 
Q 588.7409 99.88125 588.7409 98.12125 
L 588.7409 46.56 
Q 588.7409 44.8 586.9809 44.8 
L 544.3874 44.8 
Q 542.6274 44.8 542.6274 46.56 
L 542.6274 98.12125 
Q 542.6274 99.88125 544.3874 99.88125 
z
" style="fill:#ffffff;stroke:#cccccc;stroke-linejoin:miter;stroke-width:0.8;"/>
    </g>
    <g id="text_40">
     <!-- Clusters -->
     <g style="fill:#262626;" transform="translate(546.1474 55.6145)scale(0.096 -0.096)">
      <use xlink:href="#DejaVuSans-43"/>
      <use x="69.824219" xlink:href="#DejaVuSans-6c"/>
      <use x="97.607422" xlink:href="#DejaVuSans-75"/>
      <use x="160.986328" xlink:href="#DejaVuSans-73"/>
      <use x="213.085938" xlink:href="#DejaVuSans-74"/>
      <use x="252.294922" xlink:href="#DejaVuSans-65"/>
      <use x="313.818359" xlink:href="#DejaVuSans-72"/>
      <use x="354.931641" xlink:href="#DejaVuSans-73"/>
     </g>
    </g>
    <g id="PathCollection_7">
     <defs>
      <path d="M 0 3.6 
C 0.954731 3.6 1.870488 3.220681 2.545584 2.545584 
C 3.220681 1.870488 3.6 0.954731 3.6 0 
C 3.6 -0.954731 3.220681 -1.870488 2.545584 -2.545584 
C 1.870488 -3.220681 0.954731 -3.6 0 -3.6 
C -0.954731 -3.6 -1.870488 -3.220681 -2.545584 -2.545584 
C -3.220681 -1.870488 -3.6 -0.954731 -3.6 0 
C -3.6 0.954731 -3.220681 1.870488 -2.545584 2.545584 
C -1.870488 3.220681 -0.954731 3.6 0 3.6 
z
" id="md2d919dbe7" style="stroke:#023eff;stroke-width:0.8;"/>
     </defs>
     <g>
      <use style="fill:#023eff;stroke:#023eff;stroke-width:0.8;" x="556.00415" xlink:href="#md2d919dbe7" y="66.387625"/>
     </g>
    </g>
    <g id="PathCollection_8">
     <defs>
      <path d="M 0 3.6 
C 0.954731 3.6 1.870488 3.220681 2.545584 2.545584 
C 3.220681 1.870488 3.6 0.954731 3.6 0 
C 3.6 -0.954731 3.220681 -1.870488 2.545584 -2.545584 
C 1.870488 -3.220681 0.954731 -3.6 0 -3.6 
C -0.954731 -3.6 -1.870488 -3.220681 -2.545584 -2.545584 
C -3.220681 -1.870488 -3.6 -0.954731 -3.6 0 
C -3.6 0.954731 -3.220681 1.870488 -2.545584 2.545584 
C -1.870488 3.220681 -0.954731 3.6 0 3.6 
z
" id="mb034b1a12c" style="stroke:#ff7c00;stroke-width:0.8;"/>
     </defs>
     <g>
      <use style="fill:#ff7c00;stroke:#ff7c00;stroke-width:0.8;" x="556.00415" xlink:href="#mb034b1a12c" y="79.304375"/>
     </g>
    </g>
    <g id="PathCollection_9">
     <defs>
      <path d="M 0 3.6 
C 0.954731 3.6 1.870488 3.220681 2.545584 2.545584 
C 3.220681 1.870488 3.6 0.954731 3.6 0 
C 3.6 -0.954731 3.220681 -1.870488 2.545584 -2.545584 
C 1.870488 -3.220681 0.954731 -3.6 0 -3.6 
C -0.954731 -3.6 -1.870488 -3.220681 -2.545584 -2.545584 
C -3.220681 -1.870488 -3.6 -0.954731 -3.6 0 
C -3.6 0.954731 -3.220681 1.870488 -2.545584 2.545584 
C -1.870488 3.220681 -0.954731 3.6 0 3.6 
z
" id="m403f6e5164" style="stroke:#1ac938;stroke-width:0.8;"/>
     </defs>
     <g>
      <use style="fill:#1ac938;stroke:#1ac938;stroke-width:0.8;" x="556.00415" xlink:href="#m403f6e5164" y="92.221125"/>
     </g>
    </g>
    <g id="PathCollection_10">
     <defs>
      <path d="M 0 3.6 
C 0.954731 3.6 1.870488 3.220681 2.545584 2.545584 
C 3.220681 1.870488 3.6 0.954731 3.6 0 
C 3.6 -0.954731 3.220681 -1.870488 2.545584 -2.545584 
C 1.870488 -3.220681 0.954731 -3.6 0 -3.6 
C -0.954731 -3.6 -1.870488 -3.220681 -2.545584 -2.545584 
C -3.220681 -1.870488 -3.6 -0.954731 -3.6 0 
C -3.6 0.954731 -3.220681 1.870488 -2.545584 2.545584 
C -1.870488 3.220681 -0.954731 3.6 0 3.6 
z
" id="m0df786ada0" style="stroke:#e8000b;stroke-width:0.8;"/>
     </defs>
     <g>
      <use style="fill:#e8000b;stroke:#e8000b;stroke-width:0.8;" x="575.36415" xlink:href="#m0df786ada0" y="66.387625"/>
     </g>
    </g>
    <g id="PathCollection_11">
     <defs>
      <path d="M 0 3.6 
C 0.954731 3.6 1.870488 3.220681 2.545584 2.545584 
C 3.220681 1.870488 3.6 0.954731 3.6 0 
C 3.6 -0.954731 3.220681 -1.870488 2.545584 -2.545584 
C 1.870488 -3.220681 0.954731 -3.6 0 -3.6 
C -0.954731 -3.6 -1.870488 -3.220681 -2.545584 -2.545584 
C -3.220681 -1.870488 -3.6 -0.954731 -3.6 0 
C -3.6 0.954731 -3.220681 1.870488 -2.545584 2.545584 
C -1.870488 3.220681 -0.954731 3.6 0 3.6 
z
" id="m4d2a0f7148" style="stroke:#8b2be2;stroke-width:0.8;"/>
     </defs>
     <g>
      <use style="fill:#8b2be2;stroke:#8b2be2;stroke-width:0.8;" x="575.36415" xlink:href="#m4d2a0f7148" y="79.304375"/>
     </g>
    </g>
   </g>
  </g>
  <g id="text_41">
   <!-- Hauptkomponentenanalyse (PCA) der Parteien -->
   <g style="fill:#262626;" transform="translate(175.4103 15.9534)scale(0.1152 -0.1152)">
    <defs>
     <path d="M 581 4863 
L 1159 4863 
L 1159 1991 
L 2875 3500 
L 3609 3500 
L 1753 1863 
L 3688 0 
L 2938 0 
L 1159 1709 
L 1159 0 
L 581 0 
L 581 4863 
z
" id="DejaVuSans-6b" transform="scale(0.015625)"/>
     <path d="M 2059 -325 
Q 1816 -950 1584 -1140 
Q 1353 -1331 966 -1331 
L 506 -1331 
L 506 -850 
L 844 -850 
Q 1081 -850 1212 -737 
Q 1344 -625 1503 -206 
L 1606 56 
L 191 3500 
L 800 3500 
L 1894 763 
L 2988 3500 
L 3597 3500 
L 2059 -325 
z
" id="DejaVuSans-79" transform="scale(0.015625)"/>
    </defs>
    <use xlink:href="#DejaVuSans-48"/>
    <use x="75.195312" xlink:href="#DejaVuSans-61"/>
    <use x="136.474609" xlink:href="#DejaVuSans-75"/>
    <use x="199.853516" xlink:href="#DejaVuSans-70"/>
    <use x="263.330078" xlink:href="#DejaVuSans-74"/>
    <use x="302.539062" xlink:href="#DejaVuSans-6b"/>
    <use x="356.824219" xlink:href="#DejaVuSans-6f"/>
    <use x="418.005859" xlink:href="#DejaVuSans-6d"/>
    <use x="515.417969" xlink:href="#DejaVuSans-70"/>
    <use x="578.894531" xlink:href="#DejaVuSans-6f"/>
    <use x="640.076172" xlink:href="#DejaVuSans-6e"/>
    <use x="703.455078" xlink:href="#DejaVuSans-65"/>
    <use x="764.978516" xlink:href="#DejaVuSans-6e"/>
    <use x="828.357422" xlink:href="#DejaVuSans-74"/>
    <use x="867.566406" xlink:href="#DejaVuSans-65"/>
    <use x="929.089844" xlink:href="#DejaVuSans-6e"/>
    <use x="992.46875" xlink:href="#DejaVuSans-61"/>
    <use x="1053.748047" xlink:href="#DejaVuSans-6e"/>
    <use x="1117.126953" xlink:href="#DejaVuSans-61"/>
    <use x="1178.40625" xlink:href="#DejaVuSans-6c"/>
    <use x="1206.189453" xlink:href="#DejaVuSans-79"/>
    <use x="1265.369141" xlink:href="#DejaVuSans-73"/>
    <use x="1317.46875" xlink:href="#DejaVuSans-65"/>
    <use x="1378.992188" xlink:href="#DejaVuSans-20"/>
    <use x="1410.779297" xlink:href="#DejaVuSans-28"/>
    <use x="1449.792969" xlink:href="#DejaVuSans-50"/>
    <use x="1510.095703" xlink:href="#DejaVuSans-43"/>
    <use x="1579.919922" xlink:href="#DejaVuSans-41"/>
    <use x="1648.328125" xlink:href="#DejaVuSans-29"/>
    <use x="1687.341797" xlink:href="#DejaVuSans-20"/>
    <use x="1719.128906" xlink:href="#DejaVuSans-64"/>
    <use x="1782.605469" xlink:href="#DejaVuSans-65"/>
    <use x="1844.128906" xlink:href="#DejaVuSans-72"/>
    <use x="1885.242188" xlink:href="#DejaVuSans-20"/>
    <use x="1917.029297" xlink:href="#DejaVuSans-50"/>
    <use x="1972.832031" xlink:href="#DejaVuSans-61"/>
    <use x="2034.111328" xlink:href="#DejaVuSans-72"/>
    <use x="2075.224609" xlink:href="#DejaVuSans-74"/>
    <use x="2114.433594" xlink:href="#DejaVuSans-65"/>
    <use x="2175.957031" xlink:href="#DejaVuSans-69"/>
    <use x="2203.740234" xlink:href="#DejaVuSans-65"/>
    <use x="2265.263672" xlink:href="#DejaVuSans-6e"/>
   </g>
  </g>
 </g>
 <defs>
  <clipPath id="pd833eb1ca4">
   <rect height="543.6" width="558" x="39.5409" y="36"/>
  </clipPath>
 </defs>
</svg>
