<?xml version="1.0" encoding="utf-8" standalone="no"?>
<!DOCTYPE svg PUBLIC "-//W3C//DTD SVG 1.1//EN"
  "http://www.w3.org/Graphics/SVG/1.1/DTD/svg11.dtd">
<svg xmlns:xlink="http://www.w3.org/1999/xlink" width="607.693663pt" height="644.3409pt" viewBox="0 0 607.693663 644.3409" xmlns="http://www.w3.org/2000/svg" version="1.1">
 <metadata>
  <rdf:RDF xmlns:dc="http://purl.org/dc/elements/1.1/" xmlns:cc="http://creativecommons.org/ns#" xmlns:rdf="http://www.w3.org/1999/02/22-rdf-syntax-ns#">
   <cc:Work>
    <dc:type rdf:resource="http://purl.org/dc/dcmitype/StillImage"/>
    <dc:date>2025-02-08T06:31:41.593663</dc:date>
    <dc:format>image/svg+xml</dc:format>
    <dc:creator>
     <cc:Agent>
      <dc:title>Matplotlib v3.7.5, https://matplotlib.org/</dc:title>
     </cc:Agent>
    </dc:creator>
   </cc:Work>
  </rdf:RDF>
 </metadata>
 <defs>
  <style type="text/css">*{stroke-linejoin: round; stroke-linecap: butt}</style>
 </defs>
 <g id="figure_1">
  <g id="patch_1">
   <path d="M 0 644.3409 
L 607.693663 644.3409 
L 607.693663 0 
L 0 0 
z
" style="fill: #ffffff"/>
  </g>
  <g id="axes_1">
   <g id="patch_2">
    <path d="M 39.5409 604.8 
L 597.5409 604.8 
L 597.5409 50.4 
L 39.5409 50.4 
z
" style="fill: #eaeaf2"/>
   </g>
   <g id="matplotlib.axis_1">
    <g id="xtick_1">
     <g id="line2d_1">
      <path d="M 262.495133 604.8 
L 262.495133 50.4 
" clip-path="url(#p6512a7fd37)" style="fill: none; stroke: #ffffff; stroke-width: 1.2; stroke-linecap: round"/>
     </g>
    </g>
    <g id="xtick_2">
     <g id="line2d_2">
      <path d="M 67.355844 604.8 
L 67.355844 50.4 
" clip-path="url(#p6512a7fd37)" style="fill: none; stroke: #ffffff; stroke-width: 0.3; stroke-linecap: round"/>
     </g>
    </g>
    <g id="xtick_3">
     <g id="line2d_3">
      <path d="M 164.925488 604.8 
L 164.925488 50.4 
" clip-path="url(#p6512a7fd37)" style="fill: none; stroke: #ffffff; stroke-width: 0.3; stroke-linecap: round"/>
     </g>
    </g>
    <g id="xtick_4">
     <g id="line2d_4">
      <path d="M 360.064777 604.8 
L 360.064777 50.4 
" clip-path="url(#p6512a7fd37)" style="fill: none; stroke: #ffffff; stroke-width: 0.3; stroke-linecap: round"/>
     </g>
    </g>
    <g id="xtick_5">
     <g id="line2d_5">
      <path d="M 457.634421 604.8 
L 457.634421 50.4 
" clip-path="url(#p6512a7fd37)" style="fill: none; stroke: #ffffff; stroke-width: 0.3; stroke-linecap: round"/>
     </g>
    </g>
    <g id="xtick_6">
     <g id="line2d_6">
      <path d="M 555.204066 604.8 
L 555.204066 50.4 
" clip-path="url(#p6512a7fd37)" style="fill: none; stroke: #ffffff; stroke-width: 0.3; stroke-linecap: round"/>
     </g>
    </g>
    <g id="text_1">
     <!-- Komponente X (PC1) -->
     <g style="fill: #262626" transform="translate(268.77915 624.3945) scale(0.096 -0.096)">
      <defs>
       <path id="DejaVuSans-4b" d="M 628 4666 
L 1259 4666 
L 1259 2694 
L 3353 4666 
L 4166 4666 
L 1850 2491 
L 4331 0 
L 3500 0 
L 1259 2247 
L 1259 0 
L 628 0 
L 628 4666 
z
" transform="scale(0.015625)"/>
       <path id="DejaVuSans-6f" d="M 1959 3097 
Q 1497 3097 1228 2736 
Q 959 2375 959 1747 
Q 959 1119 1226 758 
Q 1494 397 1959 397 
Q 2419 397 2687 759 
Q 2956 1122 2956 1747 
Q 2956 2369 2687 2733 
Q 2419 3097 1959 3097 
z
M 1959 3584 
Q 2709 3584 3137 3096 
Q 3566 2609 3566 1747 
Q 3566 888 3137 398 
Q 2709 -91 1959 -91 
Q 1206 -91 779 398 
Q 353 888 353 1747 
Q 353 2609 779 3096 
Q 1206 3584 1959 3584 
z
" transform="scale(0.015625)"/>
       <path id="DejaVuSans-6d" d="M 3328 2828 
Q 3544 3216 3844 3400 
Q 4144 3584 4550 3584 
Q 5097 3584 5394 3201 
Q 5691 2819 5691 2113 
L 5691 0 
L 5113 0 
L 5113 2094 
Q 5113 2597 4934 2840 
Q 4756 3084 4391 3084 
Q 3944 3084 3684 2787 
Q 3425 2491 3425 1978 
L 3425 0 
L 2847 0 
L 2847 2094 
Q 2847 2600 2669 2842 
Q 2491 3084 2119 3084 
Q 1678 3084 1418 2786 
Q 1159 2488 1159 1978 
L 1159 0 
L 581 0 
L 581 3500 
L 1159 3500 
L 1159 2956 
Q 1356 3278 1631 3431 
Q 1906 3584 2284 3584 
Q 2666 3584 2933 3390 
Q 3200 3197 3328 2828 
z
" transform="scale(0.015625)"/>
       <path id="DejaVuSans-70" d="M 1159 525 
L 1159 -1331 
L 581 -1331 
L 581 3500 
L 1159 3500 
L 1159 2969 
Q 1341 3281 1617 3432 
Q 1894 3584 2278 3584 
Q 2916 3584 3314 3078 
Q 3713 2572 3713 1747 
Q 3713 922 3314 415 
Q 2916 -91 2278 -91 
Q 1894 -91 1617 61 
Q 1341 213 1159 525 
z
M 3116 1747 
Q 3116 2381 2855 2742 
Q 2594 3103 2138 3103 
Q 1681 3103 1420 2742 
Q 1159 2381 1159 1747 
Q 1159 1113 1420 752 
Q 1681 391 2138 391 
Q 2594 391 2855 752 
Q 3116 1113 3116 1747 
z
" transform="scale(0.015625)"/>
       <path id="DejaVuSans-6e" d="M 3513 2113 
L 3513 0 
L 2938 0 
L 2938 2094 
Q 2938 2591 2744 2837 
Q 2550 3084 2163 3084 
Q 1697 3084 1428 2787 
Q 1159 2491 1159 1978 
L 1159 0 
L 581 0 
L 581 3500 
L 1159 3500 
L 1159 2956 
Q 1366 3272 1645 3428 
Q 1925 3584 2291 3584 
Q 2894 3584 3203 3211 
Q 3513 2838 3513 2113 
z
" transform="scale(0.015625)"/>
       <path id="DejaVuSans-65" d="M 3597 1894 
L 3597 1613 
L 953 1613 
Q 991 1019 1311 708 
Q 1631 397 2203 397 
Q 2534 397 2845 478 
Q 3156 559 3463 722 
L 3463 178 
Q 3153 47 2828 -22 
Q 2503 -91 2169 -91 
Q 1331 -91 842 396 
Q 353 884 353 1716 
Q 353 2575 817 3079 
Q 1281 3584 2069 3584 
Q 2775 3584 3186 3129 
Q 3597 2675 3597 1894 
z
M 3022 2063 
Q 3016 2534 2758 2815 
Q 2500 3097 2075 3097 
Q 1594 3097 1305 2825 
Q 1016 2553 972 2059 
L 3022 2063 
z
" transform="scale(0.015625)"/>
       <path id="DejaVuSans-74" d="M 1172 4494 
L 1172 3500 
L 2356 3500 
L 2356 3053 
L 1172 3053 
L 1172 1153 
Q 1172 725 1289 603 
Q 1406 481 1766 481 
L 2356 481 
L 2356 0 
L 1766 0 
Q 1100 0 847 248 
Q 594 497 594 1153 
L 594 3053 
L 172 3053 
L 172 3500 
L 594 3500 
L 594 4494 
L 1172 4494 
z
" transform="scale(0.015625)"/>
       <path id="DejaVuSans-20" transform="scale(0.015625)"/>
       <path id="DejaVuSans-58" d="M 403 4666 
L 1081 4666 
L 2241 2931 
L 3406 4666 
L 4084 4666 
L 2584 2425 
L 4184 0 
L 3506 0 
L 2194 1984 
L 872 0 
L 191 0 
L 1856 2491 
L 403 4666 
z
" transform="scale(0.015625)"/>
       <path id="DejaVuSans-28" d="M 1984 4856 
Q 1566 4138 1362 3434 
Q 1159 2731 1159 2009 
Q 1159 1288 1364 580 
Q 1569 -128 1984 -844 
L 1484 -844 
Q 1016 -109 783 600 
Q 550 1309 550 2009 
Q 550 2706 781 3412 
Q 1013 4119 1484 4856 
L 1984 4856 
z
" transform="scale(0.015625)"/>
       <path id="DejaVuSans-50" d="M 1259 4147 
L 1259 2394 
L 2053 2394 
Q 2494 2394 2734 2622 
Q 2975 2850 2975 3272 
Q 2975 3691 2734 3919 
Q 2494 4147 2053 4147 
L 1259 4147 
z
M 628 4666 
L 2053 4666 
Q 2838 4666 3239 4311 
Q 3641 3956 3641 3272 
Q 3641 2581 3239 2228 
Q 2838 1875 2053 1875 
L 1259 1875 
L 1259 0 
L 628 0 
L 628 4666 
z
" transform="scale(0.015625)"/>
       <path id="DejaVuSans-43" d="M 4122 4306 
L 4122 3641 
Q 3803 3938 3442 4084 
Q 3081 4231 2675 4231 
Q 1875 4231 1450 3742 
Q 1025 3253 1025 2328 
Q 1025 1406 1450 917 
Q 1875 428 2675 428 
Q 3081 428 3442 575 
Q 3803 722 4122 1019 
L 4122 359 
Q 3791 134 3420 21 
Q 3050 -91 2638 -91 
Q 1578 -91 968 557 
Q 359 1206 359 2328 
Q 359 3453 968 4101 
Q 1578 4750 2638 4750 
Q 3056 4750 3426 4639 
Q 3797 4528 4122 4306 
z
" transform="scale(0.015625)"/>
       <path id="DejaVuSans-31" d="M 794 531 
L 1825 531 
L 1825 4091 
L 703 3866 
L 703 4441 
L 1819 4666 
L 2450 4666 
L 2450 531 
L 3481 531 
L 3481 0 
L 794 0 
L 794 531 
z
" transform="scale(0.015625)"/>
       <path id="DejaVuSans-29" d="M 513 4856 
L 1013 4856 
Q 1481 4119 1714 3412 
Q 1947 2706 1947 2009 
Q 1947 1309 1714 600 
Q 1481 -109 1013 -844 
L 513 -844 
Q 928 -128 1133 580 
Q 1338 1288 1338 2009 
Q 1338 2731 1133 3434 
Q 928 4138 513 4856 
z
" transform="scale(0.015625)"/>
      </defs>
      <use xlink:href="#DejaVuSans-4b"/>
      <use xlink:href="#DejaVuSans-6f" x="60.576172"/>
      <use xlink:href="#DejaVuSans-6d" x="121.757812"/>
      <use xlink:href="#DejaVuSans-70" x="219.169922"/>
      <use xlink:href="#DejaVuSans-6f" x="282.646484"/>
      <use xlink:href="#DejaVuSans-6e" x="343.828125"/>
      <use xlink:href="#DejaVuSans-65" x="407.207031"/>
      <use xlink:href="#DejaVuSans-6e" x="468.730469"/>
      <use xlink:href="#DejaVuSans-74" x="532.109375"/>
      <use xlink:href="#DejaVuSans-65" x="571.318359"/>
      <use xlink:href="#DejaVuSans-20" x="632.841797"/>
      <use xlink:href="#DejaVuSans-58" x="664.628906"/>
      <use xlink:href="#DejaVuSans-20" x="733.134766"/>
      <use xlink:href="#DejaVuSans-28" x="764.921875"/>
      <use xlink:href="#DejaVuSans-50" x="803.935547"/>
      <use xlink:href="#DejaVuSans-43" x="864.238281"/>
      <use xlink:href="#DejaVuSans-31" x="934.0625"/>
      <use xlink:href="#DejaVuSans-29" x="997.685547"/>
     </g>
     <!-- 38.3% Varianzanteil -->
     <g style="fill: #262626" transform="translate(270.6189 635.1444) scale(0.096 -0.096)">
      <defs>
       <path id="DejaVuSans-33" d="M 2597 2516 
Q 3050 2419 3304 2112 
Q 3559 1806 3559 1356 
Q 3559 666 3084 287 
Q 2609 -91 1734 -91 
Q 1441 -91 1130 -33 
Q 819 25 488 141 
L 488 750 
Q 750 597 1062 519 
Q 1375 441 1716 441 
Q 2309 441 2620 675 
Q 2931 909 2931 1356 
Q 2931 1769 2642 2001 
Q 2353 2234 1838 2234 
L 1294 2234 
L 1294 2753 
L 1863 2753 
Q 2328 2753 2575 2939 
Q 2822 3125 2822 3475 
Q 2822 3834 2567 4026 
Q 2313 4219 1838 4219 
Q 1578 4219 1281 4162 
Q 984 4106 628 3988 
L 628 4550 
Q 988 4650 1302 4700 
Q 1616 4750 1894 4750 
Q 2613 4750 3031 4423 
Q 3450 4097 3450 3541 
Q 3450 3153 3228 2886 
Q 3006 2619 2597 2516 
z
" transform="scale(0.015625)"/>
       <path id="DejaVuSans-38" d="M 2034 2216 
Q 1584 2216 1326 1975 
Q 1069 1734 1069 1313 
Q 1069 891 1326 650 
Q 1584 409 2034 409 
Q 2484 409 2743 651 
Q 3003 894 3003 1313 
Q 3003 1734 2745 1975 
Q 2488 2216 2034 2216 
z
M 1403 2484 
Q 997 2584 770 2862 
Q 544 3141 544 3541 
Q 544 4100 942 4425 
Q 1341 4750 2034 4750 
Q 2731 4750 3128 4425 
Q 3525 4100 3525 3541 
Q 3525 3141 3298 2862 
Q 3072 2584 2669 2484 
Q 3125 2378 3379 2068 
Q 3634 1759 3634 1313 
Q 3634 634 3220 271 
Q 2806 -91 2034 -91 
Q 1263 -91 848 271 
Q 434 634 434 1313 
Q 434 1759 690 2068 
Q 947 2378 1403 2484 
z
M 1172 3481 
Q 1172 3119 1398 2916 
Q 1625 2713 2034 2713 
Q 2441 2713 2670 2916 
Q 2900 3119 2900 3481 
Q 2900 3844 2670 4047 
Q 2441 4250 2034 4250 
Q 1625 4250 1398 4047 
Q 1172 3844 1172 3481 
z
" transform="scale(0.015625)"/>
       <path id="DejaVuSans-2e" d="M 684 794 
L 1344 794 
L 1344 0 
L 684 0 
L 684 794 
z
" transform="scale(0.015625)"/>
       <path id="DejaVuSans-25" d="M 4653 2053 
Q 4381 2053 4226 1822 
Q 4072 1591 4072 1178 
Q 4072 772 4226 539 
Q 4381 306 4653 306 
Q 4919 306 5073 539 
Q 5228 772 5228 1178 
Q 5228 1588 5073 1820 
Q 4919 2053 4653 2053 
z
M 4653 2450 
Q 5147 2450 5437 2106 
Q 5728 1763 5728 1178 
Q 5728 594 5436 251 
Q 5144 -91 4653 -91 
Q 4153 -91 3862 251 
Q 3572 594 3572 1178 
Q 3572 1766 3864 2108 
Q 4156 2450 4653 2450 
z
M 1428 4353 
Q 1159 4353 1004 4120 
Q 850 3888 850 3481 
Q 850 3069 1003 2837 
Q 1156 2606 1428 2606 
Q 1700 2606 1854 2837 
Q 2009 3069 2009 3481 
Q 2009 3884 1853 4118 
Q 1697 4353 1428 4353 
z
M 4250 4750 
L 4750 4750 
L 1831 -91 
L 1331 -91 
L 4250 4750 
z
M 1428 4750 
Q 1922 4750 2215 4408 
Q 2509 4066 2509 3481 
Q 2509 2891 2217 2550 
Q 1925 2209 1428 2209 
Q 931 2209 642 2551 
Q 353 2894 353 3481 
Q 353 4063 643 4406 
Q 934 4750 1428 4750 
z
" transform="scale(0.015625)"/>
       <path id="DejaVuSans-56" d="M 1831 0 
L 50 4666 
L 709 4666 
L 2188 738 
L 3669 4666 
L 4325 4666 
L 2547 0 
L 1831 0 
z
" transform="scale(0.015625)"/>
       <path id="DejaVuSans-61" d="M 2194 1759 
Q 1497 1759 1228 1600 
Q 959 1441 959 1056 
Q 959 750 1161 570 
Q 1363 391 1709 391 
Q 2188 391 2477 730 
Q 2766 1069 2766 1631 
L 2766 1759 
L 2194 1759 
z
M 3341 1997 
L 3341 0 
L 2766 0 
L 2766 531 
Q 2569 213 2275 61 
Q 1981 -91 1556 -91 
Q 1019 -91 701 211 
Q 384 513 384 1019 
Q 384 1609 779 1909 
Q 1175 2209 1959 2209 
L 2766 2209 
L 2766 2266 
Q 2766 2663 2505 2880 
Q 2244 3097 1772 3097 
Q 1472 3097 1187 3025 
Q 903 2953 641 2809 
L 641 3341 
Q 956 3463 1253 3523 
Q 1550 3584 1831 3584 
Q 2591 3584 2966 3190 
Q 3341 2797 3341 1997 
z
" transform="scale(0.015625)"/>
       <path id="DejaVuSans-72" d="M 2631 2963 
Q 2534 3019 2420 3045 
Q 2306 3072 2169 3072 
Q 1681 3072 1420 2755 
Q 1159 2438 1159 1844 
L 1159 0 
L 581 0 
L 581 3500 
L 1159 3500 
L 1159 2956 
Q 1341 3275 1631 3429 
Q 1922 3584 2338 3584 
Q 2397 3584 2469 3576 
Q 2541 3569 2628 3553 
L 2631 2963 
z
" transform="scale(0.015625)"/>
       <path id="DejaVuSans-69" d="M 603 3500 
L 1178 3500 
L 1178 0 
L 603 0 
L 603 3500 
z
M 603 4863 
L 1178 4863 
L 1178 4134 
L 603 4134 
L 603 4863 
z
" transform="scale(0.015625)"/>
       <path id="DejaVuSans-7a" d="M 353 3500 
L 3084 3500 
L 3084 2975 
L 922 459 
L 3084 459 
L 3084 0 
L 275 0 
L 275 525 
L 2438 3041 
L 353 3041 
L 353 3500 
z
" transform="scale(0.015625)"/>
       <path id="DejaVuSans-6c" d="M 603 4863 
L 1178 4863 
L 1178 0 
L 603 0 
L 603 4863 
z
" transform="scale(0.015625)"/>
      </defs>
      <use xlink:href="#DejaVuSans-33"/>
      <use xlink:href="#DejaVuSans-38" x="63.623047"/>
      <use xlink:href="#DejaVuSans-2e" x="127.246094"/>
      <use xlink:href="#DejaVuSans-33" x="159.033203"/>
      <use xlink:href="#DejaVuSans-25" x="222.65625"/>
      <use xlink:href="#DejaVuSans-20" x="317.675781"/>
      <use xlink:href="#DejaVuSans-56" x="349.462891"/>
      <use xlink:href="#DejaVuSans-61" x="410.121094"/>
      <use xlink:href="#DejaVuSans-72" x="471.400391"/>
      <use xlink:href="#DejaVuSans-69" x="512.513672"/>
      <use xlink:href="#DejaVuSans-61" x="540.296875"/>
      <use xlink:href="#DejaVuSans-6e" x="601.576172"/>
      <use xlink:href="#DejaVuSans-7a" x="664.955078"/>
      <use xlink:href="#DejaVuSans-61" x="717.445312"/>
      <use xlink:href="#DejaVuSans-6e" x="778.724609"/>
      <use xlink:href="#DejaVuSans-74" x="842.103516"/>
      <use xlink:href="#DejaVuSans-65" x="881.3125"/>
      <use xlink:href="#DejaVuSans-69" x="942.835938"/>
      <use xlink:href="#DejaVuSans-6c" x="970.619141"/>
     </g>
    </g>
   </g>
   <g id="matplotlib.axis_2">
    <g id="ytick_1">
     <g id="line2d_7">
      <path d="M 39.5409 340.238067 
L 597.5409 340.238067 
" clip-path="url(#p6512a7fd37)" style="fill: none; stroke: #ffffff; stroke-width: 1.2; stroke-linecap: round"/>
     </g>
    </g>
    <g id="ytick_2">
     <g id="line2d_8">
      <path d="M 39.5409 577.284269 
L 597.5409 577.284269 
" clip-path="url(#p6512a7fd37)" style="fill: none; stroke: #ffffff; stroke-width: 0.3; stroke-linecap: round"/>
     </g>
    </g>
    <g id="ytick_3">
     <g id="line2d_9">
      <path d="M 39.5409 458.761168 
L 597.5409 458.761168 
" clip-path="url(#p6512a7fd37)" style="fill: none; stroke: #ffffff; stroke-width: 0.3; stroke-linecap: round"/>
     </g>
    </g>
    <g id="ytick_4">
     <g id="line2d_10">
      <path d="M 39.5409 221.714966 
L 597.5409 221.714966 
" clip-path="url(#p6512a7fd37)" style="fill: none; stroke: #ffffff; stroke-width: 0.3; stroke-linecap: round"/>
     </g>
    </g>
    <g id="ytick_5">
     <g id="line2d_11">
      <path d="M 39.5409 103.191865 
L 597.5409 103.191865 
" clip-path="url(#p6512a7fd37)" style="fill: none; stroke: #ffffff; stroke-width: 0.3; stroke-linecap: round"/>
     </g>
    </g>
    <g id="text_2">
     <!-- Komponente Y (PC2) -->
     <g style="fill: #262626" transform="translate(14.4945 377.0055) rotate(-90) scale(0.096 -0.096)">
      <defs>
       <path id="DejaVuSans-59" d="M -13 4666 
L 666 4666 
L 1959 2747 
L 3244 4666 
L 3922 4666 
L 2272 2222 
L 2272 0 
L 1638 0 
L 1638 2222 
L -13 4666 
z
" transform="scale(0.015625)"/>
       <path id="DejaVuSans-32" d="M 1228 531 
L 3431 531 
L 3431 0 
L 469 0 
L 469 531 
Q 828 903 1448 1529 
Q 2069 2156 2228 2338 
Q 2531 2678 2651 2914 
Q 2772 3150 2772 3378 
Q 2772 3750 2511 3984 
Q 2250 4219 1831 4219 
Q 1534 4219 1204 4116 
Q 875 4013 500 3803 
L 500 4441 
Q 881 4594 1212 4672 
Q 1544 4750 1819 4750 
Q 2544 4750 2975 4387 
Q 3406 4025 3406 3419 
Q 3406 3131 3298 2873 
Q 3191 2616 2906 2266 
Q 2828 2175 2409 1742 
Q 1991 1309 1228 531 
z
" transform="scale(0.015625)"/>
      </defs>
      <use xlink:href="#DejaVuSans-4b"/>
      <use xlink:href="#DejaVuSans-6f" x="60.576172"/>
      <use xlink:href="#DejaVuSans-6d" x="121.757812"/>
      <use xlink:href="#DejaVuSans-70" x="219.169922"/>
      <use xlink:href="#DejaVuSans-6f" x="282.646484"/>
      <use xlink:href="#DejaVuSans-6e" x="343.828125"/>
      <use xlink:href="#DejaVuSans-65" x="407.207031"/>
      <use xlink:href="#DejaVuSans-6e" x="468.730469"/>
      <use xlink:href="#DejaVuSans-74" x="532.109375"/>
      <use xlink:href="#DejaVuSans-65" x="571.318359"/>
      <use xlink:href="#DejaVuSans-20" x="632.841797"/>
      <use xlink:href="#DejaVuSans-59" x="664.628906"/>
      <use xlink:href="#DejaVuSans-20" x="725.712891"/>
      <use xlink:href="#DejaVuSans-28" x="757.5"/>
      <use xlink:href="#DejaVuSans-50" x="796.513672"/>
      <use xlink:href="#DejaVuSans-43" x="856.816406"/>
      <use xlink:href="#DejaVuSans-32" x="926.640625"/>
      <use xlink:href="#DejaVuSans-29" x="990.263672"/>
     </g>
     <!-- 17.1% Varianzanteil -->
     <g style="fill: #262626" transform="translate(25.2444 375.522) rotate(-90) scale(0.096 -0.096)">
      <defs>
       <path id="DejaVuSans-37" d="M 525 4666 
L 3525 4666 
L 3525 4397 
L 1831 0 
L 1172 0 
L 2766 4134 
L 525 4134 
L 525 4666 
z
" transform="scale(0.015625)"/>
      </defs>
      <use xlink:href="#DejaVuSans-31"/>
      <use xlink:href="#DejaVuSans-37" x="63.623047"/>
      <use xlink:href="#DejaVuSans-2e" x="127.246094"/>
      <use xlink:href="#DejaVuSans-31" x="159.033203"/>
      <use xlink:href="#DejaVuSans-25" x="222.65625"/>
      <use xlink:href="#DejaVuSans-20" x="317.675781"/>
      <use xlink:href="#DejaVuSans-56" x="349.462891"/>
      <use xlink:href="#DejaVuSans-61" x="410.121094"/>
      <use xlink:href="#DejaVuSans-72" x="471.400391"/>
      <use xlink:href="#DejaVuSans-69" x="512.513672"/>
      <use xlink:href="#DejaVuSans-61" x="540.296875"/>
      <use xlink:href="#DejaVuSans-6e" x="601.576172"/>
      <use xlink:href="#DejaVuSans-7a" x="664.955078"/>
      <use xlink:href="#DejaVuSans-61" x="717.445312"/>
      <use xlink:href="#DejaVuSans-6e" x="778.724609"/>
      <use xlink:href="#DejaVuSans-74" x="842.103516"/>
      <use xlink:href="#DejaVuSans-65" x="881.3125"/>
      <use xlink:href="#DejaVuSans-69" x="942.835938"/>
      <use xlink:href="#DejaVuSans-6c" x="970.619141"/>
     </g>
    </g>
   </g>
   <g id="PathCollection_1">
    <defs>
     <path id="C0_0_1974429d3c" d="M 0 2.4 
C 0.636487 2.4 1.246992 2.147121 1.697056 1.697056 
C 2.147121 1.246992 2.4 0.636487 2.4 -0 
C 2.4 -0.636487 2.147121 -1.246992 1.697056 -1.697056 
C 1.246992 -2.147121 0.636487 -2.4 0 -2.4 
C -0.636487 -2.4 -1.246992 -2.147121 -1.697056 -1.697056 
C -2.147121 -1.246992 -2.4 -0.636487 -2.4 0 
C -2.4 0.636487 -2.147121 1.246992 -1.697056 1.697056 
C -1.246992 2.147121 -0.636487 2.4 0 2.4 
z
"/>
    </defs>
    <g clip-path="url(#p6512a7fd37)">
     <use xlink:href="#C0_0_1974429d3c" x="495.478009" y="430.589029" style="fill: #ff7c00; stroke: #ffffff; stroke-width: 0.384"/>
    </g>
    <g clip-path="url(#p6512a7fd37)">
     <use xlink:href="#C0_0_1974429d3c" x="581.748447" y="417.764948" style="fill: #ff7c00; stroke: #ffffff; stroke-width: 0.384"/>
    </g>
    <g clip-path="url(#p6512a7fd37)">
     <use xlink:href="#C0_0_1974429d3c" x="185.861858" y="409.807436" style="fill: #8b2be2; stroke: #ffffff; stroke-width: 0.384"/>
    </g>
    <g clip-path="url(#p6512a7fd37)">
     <use xlink:href="#C0_0_1974429d3c" x="381.292776" y="382.309767" style="fill: #1ac938; stroke: #ffffff; stroke-width: 0.384"/>
    </g>
    <g clip-path="url(#p6512a7fd37)">
     <use xlink:href="#C0_0_1974429d3c" x="457.164943" y="249.762787" style="fill: #ff7c00; stroke: #ffffff; stroke-width: 0.384"/>
    </g>
    <g clip-path="url(#p6512a7fd37)">
     <use xlink:href="#C0_0_1974429d3c" x="502.200148" y="223.511368" style="fill: #ff7c00; stroke: #ffffff; stroke-width: 0.384"/>
    </g>
    <g clip-path="url(#p6512a7fd37)">
     <use xlink:href="#C0_0_1974429d3c" x="362.637282" y="66.090566" style="fill: #023eff; stroke: #ffffff; stroke-width: 0.384"/>
    </g>
    <g clip-path="url(#p6512a7fd37)">
     <use xlink:href="#C0_0_1974429d3c" x="308.258486" y="254.141543" style="fill: #023eff; stroke: #ffffff; stroke-width: 0.384"/>
    </g>
    <g clip-path="url(#p6512a7fd37)">
     <use xlink:href="#C0_0_1974429d3c" x="121.022408" y="517.164516" style="fill: #e8000b; stroke: #ffffff; stroke-width: 0.384"/>
    </g>
    <g clip-path="url(#p6512a7fd37)">
     <use xlink:href="#C0_0_1974429d3c" x="196.291758" y="544.108652" style="fill: #e8000b; stroke: #ffffff; stroke-width: 0.384"/>
    </g>
    <g clip-path="url(#p6512a7fd37)">
     <use xlink:href="#C0_0_1974429d3c" x="141.550847" y="445.343351" style="fill: #8b2be2; stroke: #ffffff; stroke-width: 0.384"/>
    </g>
    <g clip-path="url(#p6512a7fd37)">
     <use xlink:href="#C0_0_1974429d3c" x="310.78156" y="171.30763" style="fill: #023eff; stroke: #ffffff; stroke-width: 0.384"/>
    </g>
    <g clip-path="url(#p6512a7fd37)">
     <use xlink:href="#C0_0_1974429d3c" x="301.990589" y="85.559966" style="fill: #023eff; stroke: #ffffff; stroke-width: 0.384"/>
    </g>
    <g clip-path="url(#p6512a7fd37)">
     <use xlink:href="#C0_0_1974429d3c" x="223.37856" y="132.549276" style="fill: #023eff; stroke: #ffffff; stroke-width: 0.384"/>
    </g>
    <g clip-path="url(#p6512a7fd37)">
     <use xlink:href="#C0_0_1974429d3c" x="55.333353" y="285.5749" style="fill: #8b2be2; stroke: #ffffff; stroke-width: 0.384"/>
    </g>
    <g clip-path="url(#p6512a7fd37)">
     <use xlink:href="#C0_0_1974429d3c" x="533.457394" y="391.508605" style="fill: #ff7c00; stroke: #ffffff; stroke-width: 0.384"/>
    </g>
    <g clip-path="url(#p6512a7fd37)">
     <use xlink:href="#C0_0_1974429d3c" x="85.476505" y="358.192158" style="fill: #8b2be2; stroke: #ffffff; stroke-width: 0.384"/>
    </g>
    <g clip-path="url(#p6512a7fd37)">
     <use xlink:href="#C0_0_1974429d3c" x="110.52673" y="381.896039" style="fill: #8b2be2; stroke: #ffffff; stroke-width: 0.384"/>
    </g>
    <g clip-path="url(#p6512a7fd37)">
     <use xlink:href="#C0_0_1974429d3c" x="383.773513" y="442.312374" style="fill: #1ac938; stroke: #ffffff; stroke-width: 0.384"/>
    </g>
    <g clip-path="url(#p6512a7fd37)">
     <use xlink:href="#C0_0_1974429d3c" x="103.88214" y="480.065857" style="fill: #8b2be2; stroke: #ffffff; stroke-width: 0.384"/>
    </g>
    <g clip-path="url(#p6512a7fd37)">
     <use xlink:href="#C0_0_1974429d3c" x="181.42206" y="568.703355" style="fill: #e8000b; stroke: #ffffff; stroke-width: 0.384"/>
    </g>
    <g clip-path="url(#p6512a7fd37)">
     <use xlink:href="#C0_0_1974429d3c" x="530.036693" y="393.089098" style="fill: #ff7c00; stroke: #ffffff; stroke-width: 0.384"/>
    </g>
    <g clip-path="url(#p6512a7fd37)">
     <use xlink:href="#C0_0_1974429d3c" x="115.341359" y="337.908796" style="fill: #8b2be2; stroke: #ffffff; stroke-width: 0.384"/>
    </g>
    <g clip-path="url(#p6512a7fd37)">
     <use xlink:href="#C0_0_1974429d3c" x="189.056876" y="233.713213" style="fill: #8b2be2; stroke: #ffffff; stroke-width: 0.384"/>
    </g>
    <g clip-path="url(#p6512a7fd37)">
     <use xlink:href="#C0_0_1974429d3c" x="171.113064" y="190.289309" style="fill: #8b2be2; stroke: #ffffff; stroke-width: 0.384"/>
    </g>
    <g clip-path="url(#p6512a7fd37)">
     <use xlink:href="#C0_0_1974429d3c" x="239.218044" y="533.833956" style="fill: #e8000b; stroke: #ffffff; stroke-width: 0.384"/>
    </g>
    <g clip-path="url(#p6512a7fd37)">
     <use xlink:href="#C0_0_1974429d3c" x="156.419026" y="165.994115" style="fill: #8b2be2; stroke: #ffffff; stroke-width: 0.384"/>
    </g>
    <g clip-path="url(#p6512a7fd37)">
     <use xlink:href="#C0_0_1974429d3c" x="438.798736" y="426.930646" style="fill: #1ac938; stroke: #ffffff; stroke-width: 0.384"/>
    </g>
    <g clip-path="url(#p6512a7fd37)">
     <use xlink:href="#C0_0_1974429d3c" x="65.691469" y="344.040968" style="fill: #8b2be2; stroke: #ffffff; stroke-width: 0.384"/>
    </g>
    <g clip-path="url(#p6512a7fd37)">
     <use xlink:href="#C0_0_1974429d3c" x="109.36754" y="312.57583" style="fill: #8b2be2; stroke: #ffffff; stroke-width: 0.384"/>
    </g>
    <g clip-path="url(#p6512a7fd37)">
     <use xlink:href="#C0_0_1974429d3c" x="58.991897" y="278.774389" style="fill: #8b2be2; stroke: #ffffff; stroke-width: 0.384"/>
    </g>
    <g clip-path="url(#p6512a7fd37)">
     <use xlink:href="#C0_0_1974429d3c" x="452.491185" y="451.973075" style="fill: #ff7c00; stroke: #ffffff; stroke-width: 0.384"/>
    </g>
    <g clip-path="url(#p6512a7fd37)">
     <use xlink:href="#C0_0_1974429d3c" x="112.284118" y="320.468697" style="fill: #8b2be2; stroke: #ffffff; stroke-width: 0.384"/>
    </g>
   </g>
   <g id="line2d_12"/>
   <g id="line2d_13"/>
   <g id="line2d_14"/>
   <g id="line2d_15"/>
   <g id="line2d_16"/>
   <g id="LineCollection_1">
    <path d="M 495.478009 604.8 
L 495.478009 610.344 
" style="fill: none; stroke: #ff7c00"/>
    <path d="M 581.748447 604.8 
L 581.748447 610.344 
" style="fill: none; stroke: #ff7c00"/>
    <path d="M 185.861858 604.8 
L 185.861858 610.344 
" style="fill: none; stroke: #8b2be2"/>
    <path d="M 381.292776 604.8 
L 381.292776 610.344 
" style="fill: none; stroke: #1ac938"/>
    <path d="M 457.164943 604.8 
L 457.164943 610.344 
" style="fill: none; stroke: #ff7c00"/>
    <path d="M 502.200148 604.8 
L 502.200148 610.344 
" style="fill: none; stroke: #ff7c00"/>
    <path d="M 362.637282 604.8 
L 362.637282 610.344 
" style="fill: none; stroke: #023eff"/>
    <path d="M 308.258486 604.8 
L 308.258486 610.344 
" style="fill: none; stroke: #023eff"/>
    <path d="M 121.022408 604.8 
L 121.022408 610.344 
" style="fill: none; stroke: #e8000b"/>
    <path d="M 196.291758 604.8 
L 196.291758 610.344 
" style="fill: none; stroke: #e8000b"/>
    <path d="M 141.550847 604.8 
L 141.550847 610.344 
" style="fill: none; stroke: #8b2be2"/>
    <path d="M 310.78156 604.8 
L 310.78156 610.344 
" style="fill: none; stroke: #023eff"/>
    <path d="M 301.990589 604.8 
L 301.990589 610.344 
" style="fill: none; stroke: #023eff"/>
    <path d="M 223.37856 604.8 
L 223.37856 610.344 
" style="fill: none; stroke: #023eff"/>
    <path d="M 55.333353 604.8 
L 55.333353 610.344 
" style="fill: none; stroke: #8b2be2"/>
    <path d="M 533.457394 604.8 
L 533.457394 610.344 
" style="fill: none; stroke: #ff7c00"/>
    <path d="M 85.476505 604.8 
L 85.476505 610.344 
" style="fill: none; stroke: #8b2be2"/>
    <path d="M 110.52673 604.8 
L 110.52673 610.344 
" style="fill: none; stroke: #8b2be2"/>
    <path d="M 383.773513 604.8 
L 383.773513 610.344 
" style="fill: none; stroke: #1ac938"/>
    <path d="M 103.88214 604.8 
L 103.88214 610.344 
" style="fill: none; stroke: #8b2be2"/>
    <path d="M 181.42206 604.8 
L 181.42206 610.344 
" style="fill: none; stroke: #e8000b"/>
    <path d="M 530.036693 604.8 
L 530.036693 610.344 
" style="fill: none; stroke: #ff7c00"/>
    <path d="M 115.341359 604.8 
L 115.341359 610.344 
" style="fill: none; stroke: #8b2be2"/>
    <path d="M 189.056876 604.8 
L 189.056876 610.344 
" style="fill: none; stroke: #8b2be2"/>
    <path d="M 171.113064 604.8 
L 171.113064 610.344 
" style="fill: none; stroke: #8b2be2"/>
    <path d="M 239.218044 604.8 
L 239.218044 610.344 
" style="fill: none; stroke: #e8000b"/>
    <path d="M 156.419026 604.8 
L 156.419026 610.344 
" style="fill: none; stroke: #8b2be2"/>
    <path d="M 438.798736 604.8 
L 438.798736 610.344 
" style="fill: none; stroke: #1ac938"/>
    <path d="M 65.691469 604.8 
L 65.691469 610.344 
" style="fill: none; stroke: #8b2be2"/>
    <path d="M 109.36754 604.8 
L 109.36754 610.344 
" style="fill: none; stroke: #8b2be2"/>
    <path d="M 58.991897 604.8 
L 58.991897 610.344 
" style="fill: none; stroke: #8b2be2"/>
    <path d="M 452.491185 604.8 
L 452.491185 610.344 
" style="fill: none; stroke: #ff7c00"/>
    <path d="M 112.284118 604.8 
L 112.284118 610.344 
" style="fill: none; stroke: #8b2be2"/>
   </g>
   <g id="LineCollection_2">
    <path d="M 39.5409 430.589029 
L 33.9609 430.589029 
" style="fill: none; stroke: #ff7c00"/>
    <path d="M 39.5409 417.764948 
L 33.9609 417.764948 
" style="fill: none; stroke: #ff7c00"/>
    <path d="M 39.5409 409.807436 
L 33.9609 409.807436 
" style="fill: none; stroke: #8b2be2"/>
    <path d="M 39.5409 382.309767 
L 33.9609 382.309767 
" style="fill: none; stroke: #1ac938"/>
    <path d="M 39.5409 249.762787 
L 33.9609 249.762787 
" style="fill: none; stroke: #ff7c00"/>
    <path d="M 39.5409 223.511368 
L 33.9609 223.511368 
" style="fill: none; stroke: #ff7c00"/>
    <path d="M 39.5409 66.090566 
L 33.9609 66.090566 
" style="fill: none; stroke: #023eff"/>
    <path d="M 39.5409 254.141543 
L 33.9609 254.141543 
" style="fill: none; stroke: #023eff"/>
    <path d="M 39.5409 517.164516 
L 33.9609 517.164516 
" style="fill: none; stroke: #e8000b"/>
    <path d="M 39.5409 544.108652 
L 33.9609 544.108652 
" style="fill: none; stroke: #e8000b"/>
    <path d="M 39.5409 445.343351 
L 33.9609 445.343351 
" style="fill: none; stroke: #8b2be2"/>
    <path d="M 39.5409 171.30763 
L 33.9609 171.30763 
" style="fill: none; stroke: #023eff"/>
    <path d="M 39.5409 85.559966 
L 33.9609 85.559966 
" style="fill: none; stroke: #023eff"/>
    <path d="M 39.5409 132.549276 
L 33.9609 132.549276 
" style="fill: none; stroke: #023eff"/>
    <path d="M 39.5409 285.5749 
L 33.9609 285.5749 
" style="fill: none; stroke: #8b2be2"/>
    <path d="M 39.5409 391.508605 
L 33.9609 391.508605 
" style="fill: none; stroke: #ff7c00"/>
    <path d="M 39.5409 358.192158 
L 33.9609 358.192158 
" style="fill: none; stroke: #8b2be2"/>
    <path d="M 39.5409 381.896039 
L 33.9609 381.896039 
" style="fill: none; stroke: #8b2be2"/>
    <path d="M 39.5409 442.312374 
L 33.9609 442.312374 
" style="fill: none; stroke: #1ac938"/>
    <path d="M 39.5409 480.065857 
L 33.9609 480.065857 
" style="fill: none; stroke: #8b2be2"/>
    <path d="M 39.5409 568.703355 
L 33.9609 568.703355 
" style="fill: none; stroke: #e8000b"/>
    <path d="M 39.5409 393.089098 
L 33.9609 393.089098 
" style="fill: none; stroke: #ff7c00"/>
    <path d="M 39.5409 337.908796 
L 33.9609 337.908796 
" style="fill: none; stroke: #8b2be2"/>
    <path d="M 39.5409 233.713213 
L 33.9609 233.713213 
" style="fill: none; stroke: #8b2be2"/>
    <path d="M 39.5409 190.289309 
L 33.9609 190.289309 
" style="fill: none; stroke: #8b2be2"/>
    <path d="M 39.5409 533.833956 
L 33.9609 533.833956 
" style="fill: none; stroke: #e8000b"/>
    <path d="M 39.5409 165.994115 
L 33.9609 165.994115 
" style="fill: none; stroke: #8b2be2"/>
    <path d="M 39.5409 426.930646 
L 33.9609 426.930646 
" style="fill: none; stroke: #1ac938"/>
    <path d="M 39.5409 344.040968 
L 33.9609 344.040968 
" style="fill: none; stroke: #8b2be2"/>
    <path d="M 39.5409 312.57583 
L 33.9609 312.57583 
" style="fill: none; stroke: #8b2be2"/>
    <path d="M 39.5409 278.774389 
L 33.9609 278.774389 
" style="fill: none; stroke: #8b2be2"/>
    <path d="M 39.5409 451.973075 
L 33.9609 451.973075 
" style="fill: none; stroke: #ff7c00"/>
    <path d="M 39.5409 320.468697 
L 33.9609 320.468697 
" style="fill: none; stroke: #8b2be2"/>
   </g>
   <g id="patch_3">
    <path d="M 39.5409 604.8 
L 39.5409 50.4 
" style="fill: none; stroke: #ffffff; stroke-linejoin: miter; stroke-linecap: square"/>
   </g>
   <g id="patch_4">
    <path d="M 597.5409 604.8 
L 597.5409 50.4 
" style="fill: none; stroke: #ffffff; stroke-linejoin: miter; stroke-linecap: square"/>
   </g>
   <g id="patch_5">
    <path d="M 39.5409 604.8 
L 597.5409 604.8 
" style="fill: none; stroke: #ffffff; stroke-linejoin: miter; stroke-linecap: square"/>
   </g>
   <g id="patch_6">
    <path d="M 39.5409 50.4 
L 597.5409 50.4 
" style="fill: none; stroke: #ffffff; stroke-linejoin: miter; stroke-linecap: square"/>
   </g>
   <g id="text_3">
    <!-- ABG -->
    <g transform="translate(497.91725 427.625952) scale(0.079968 -0.079968)">
     <defs>
      <path id="DejaVuSans-41" d="M 2188 4044 
L 1331 1722 
L 3047 1722 
L 2188 4044 
z
M 1831 4666 
L 2547 4666 
L 4325 0 
L 3669 0 
L 3244 1197 
L 1141 1197 
L 716 0 
L 50 0 
L 1831 4666 
z
" transform="scale(0.015625)"/>
      <path id="DejaVuSans-42" d="M 1259 2228 
L 1259 519 
L 2272 519 
Q 2781 519 3026 730 
Q 3272 941 3272 1375 
Q 3272 1813 3026 2020 
Q 2781 2228 2272 2228 
L 1259 2228 
z
M 1259 4147 
L 1259 2741 
L 2194 2741 
Q 2656 2741 2882 2914 
Q 3109 3088 3109 3444 
Q 3109 3797 2882 3972 
Q 2656 4147 2194 4147 
L 1259 4147 
z
M 628 4666 
L 2241 4666 
Q 2963 4666 3353 4366 
Q 3744 4066 3744 3513 
Q 3744 3084 3544 2831 
Q 3344 2578 2956 2516 
Q 3422 2416 3680 2098 
Q 3938 1781 3938 1306 
Q 3938 681 3513 340 
Q 3088 0 2303 0 
L 628 0 
L 628 4666 
z
" transform="scale(0.015625)"/>
      <path id="DejaVuSans-47" d="M 3809 666 
L 3809 1919 
L 2778 1919 
L 2778 2438 
L 4434 2438 
L 4434 434 
Q 4069 175 3628 42 
Q 3188 -91 2688 -91 
Q 1594 -91 976 548 
Q 359 1188 359 2328 
Q 359 3472 976 4111 
Q 1594 4750 2688 4750 
Q 3144 4750 3555 4637 
Q 3966 4525 4313 4306 
L 4313 3634 
Q 3963 3931 3569 4081 
Q 3175 4231 2741 4231 
Q 1884 4231 1454 3753 
Q 1025 3275 1025 2328 
Q 1025 1384 1454 906 
Q 1884 428 2741 428 
Q 3075 428 3337 486 
Q 3600 544 3809 666 
z
" transform="scale(0.015625)"/>
     </defs>
     <use xlink:href="#DejaVuSans-41"/>
     <use xlink:href="#DejaVuSans-42" x="68.408203"/>
     <use xlink:href="#DejaVuSans-47" x="135.261719"/>
    </g>
   </g>
   <g id="text_4">
    <!-- AfD -->
    <g style="fill: #00008b" transform="translate(584.187688 414.801871) scale(0.079968 -0.079968)">
     <defs>
      <path id="DejaVuSans-Bold-41" d="M 3419 850 
L 1538 850 
L 1241 0 
L 31 0 
L 1759 4666 
L 3194 4666 
L 4922 0 
L 3713 0 
L 3419 850 
z
M 1838 1716 
L 3116 1716 
L 2478 3572 
L 1838 1716 
z
" transform="scale(0.015625)"/>
      <path id="DejaVuSans-Bold-66" d="M 2841 4863 
L 2841 4128 
L 2222 4128 
Q 1984 4128 1890 4042 
Q 1797 3956 1797 3744 
L 1797 3500 
L 2753 3500 
L 2753 2700 
L 1797 2700 
L 1797 0 
L 678 0 
L 678 2700 
L 122 2700 
L 122 3500 
L 678 3500 
L 678 3744 
Q 678 4316 997 4589 
Q 1316 4863 1984 4863 
L 2841 4863 
z
" transform="scale(0.015625)"/>
      <path id="DejaVuSans-Bold-44" d="M 1791 3756 
L 1791 909 
L 2222 909 
Q 2959 909 3348 1275 
Q 3738 1641 3738 2338 
Q 3738 3031 3350 3393 
Q 2963 3756 2222 3756 
L 1791 3756 
z
M 588 4666 
L 1856 4666 
Q 2919 4666 3439 4514 
Q 3959 4363 4331 4000 
Q 4659 3684 4818 3271 
Q 4978 2859 4978 2338 
Q 4978 1809 4818 1395 
Q 4659 981 4331 666 
Q 3956 303 3431 151 
Q 2906 0 1856 0 
L 588 0 
L 588 4666 
z
" transform="scale(0.015625)"/>
     </defs>
     <use xlink:href="#DejaVuSans-Bold-41"/>
     <use xlink:href="#DejaVuSans-Bold-66" x="77.392578"/>
     <use xlink:href="#DejaVuSans-Bold-44" x="120.898438"/>
    </g>
   </g>
   <g id="text_5">
    <!-- BIG -->
    <g transform="translate(188.301099 406.844358) scale(0.079968 -0.079968)">
     <defs>
      <path id="DejaVuSans-49" d="M 628 4666 
L 1259 4666 
L 1259 0 
L 628 0 
L 628 4666 
z
" transform="scale(0.015625)"/>
     </defs>
     <use xlink:href="#DejaVuSans-42"/>
     <use xlink:href="#DejaVuSans-49" x="68.603516"/>
     <use xlink:href="#DejaVuSans-47" x="98.095703"/>
    </g>
   </g>
   <g id="text_6">
    <!-- BSW -->
    <g style="fill: #00008b" transform="translate(383.732017 379.346689) scale(0.079968 -0.079968)">
     <defs>
      <path id="DejaVuSans-Bold-42" d="M 2456 2859 
Q 2741 2859 2887 2984 
Q 3034 3109 3034 3353 
Q 3034 3594 2887 3720 
Q 2741 3847 2456 3847 
L 1791 3847 
L 1791 2859 
L 2456 2859 
z
M 2497 819 
Q 2859 819 3042 972 
Q 3225 1125 3225 1434 
Q 3225 1738 3044 1889 
Q 2863 2041 2497 2041 
L 1791 2041 
L 1791 819 
L 2497 819 
z
M 3616 2497 
Q 4003 2384 4215 2081 
Q 4428 1778 4428 1338 
Q 4428 663 3972 331 
Q 3516 0 2584 0 
L 588 0 
L 588 4666 
L 2394 4666 
Q 3366 4666 3802 4372 
Q 4238 4078 4238 3431 
Q 4238 3091 4078 2852 
Q 3919 2613 3616 2497 
z
" transform="scale(0.015625)"/>
      <path id="DejaVuSans-Bold-53" d="M 3834 4519 
L 3834 3531 
Q 3450 3703 3084 3790 
Q 2719 3878 2394 3878 
Q 1963 3878 1756 3759 
Q 1550 3641 1550 3391 
Q 1550 3203 1689 3098 
Q 1828 2994 2194 2919 
L 2706 2816 
Q 3484 2659 3812 2340 
Q 4141 2022 4141 1434 
Q 4141 663 3683 286 
Q 3225 -91 2284 -91 
Q 1841 -91 1394 -6 
Q 947 78 500 244 
L 500 1259 
Q 947 1022 1364 901 
Q 1781 781 2169 781 
Q 2563 781 2772 912 
Q 2981 1044 2981 1288 
Q 2981 1506 2839 1625 
Q 2697 1744 2272 1838 
L 1806 1941 
Q 1106 2091 782 2419 
Q 459 2747 459 3303 
Q 459 4000 909 4375 
Q 1359 4750 2203 4750 
Q 2588 4750 2994 4692 
Q 3400 4634 3834 4519 
z
" transform="scale(0.015625)"/>
      <path id="DejaVuSans-Bold-57" d="M 191 4666 
L 1344 4666 
L 2150 1275 
L 2950 4666 
L 4109 4666 
L 4909 1275 
L 5716 4666 
L 6859 4666 
L 5759 0 
L 4372 0 
L 3525 3547 
L 2688 0 
L 1300 0 
L 191 4666 
z
" transform="scale(0.015625)"/>
     </defs>
     <use xlink:href="#DejaVuSans-Bold-42"/>
     <use xlink:href="#DejaVuSans-Bold-53" x="76.220703"/>
     <use xlink:href="#DejaVuSans-Bold-57" x="148.242188"/>
    </g>
   </g>
   <g id="text_7">
    <!-- BÜNDNIS DEUTS... -->
    <g transform="translate(459.604184 246.799709) scale(0.079968 -0.079968)">
     <defs>
      <path id="DejaVuSans-dc" d="M 556 4666 
L 1191 4666 
L 1191 1831 
Q 1191 1081 1462 751 
Q 1734 422 2344 422 
Q 2950 422 3222 751 
Q 3494 1081 3494 1831 
L 3494 4666 
L 4128 4666 
L 4128 1753 
Q 4128 841 3676 375 
Q 3225 -91 2344 -91 
Q 1459 -91 1007 375 
Q 556 841 556 1753 
L 556 4666 
z
M 2638 5830 
L 3272 5830 
L 3272 5196 
L 2638 5196 
L 2638 5830 
z
M 1416 5830 
L 2050 5830 
L 2050 5196 
L 1416 5196 
L 1416 5830 
z
" transform="scale(0.015625)"/>
      <path id="DejaVuSans-4e" d="M 628 4666 
L 1478 4666 
L 3547 763 
L 3547 4666 
L 4159 4666 
L 4159 0 
L 3309 0 
L 1241 3903 
L 1241 0 
L 628 0 
L 628 4666 
z
" transform="scale(0.015625)"/>
      <path id="DejaVuSans-44" d="M 1259 4147 
L 1259 519 
L 2022 519 
Q 2988 519 3436 956 
Q 3884 1394 3884 2338 
Q 3884 3275 3436 3711 
Q 2988 4147 2022 4147 
L 1259 4147 
z
M 628 4666 
L 1925 4666 
Q 3281 4666 3915 4102 
Q 4550 3538 4550 2338 
Q 4550 1131 3912 565 
Q 3275 0 1925 0 
L 628 0 
L 628 4666 
z
" transform="scale(0.015625)"/>
      <path id="DejaVuSans-53" d="M 3425 4513 
L 3425 3897 
Q 3066 4069 2747 4153 
Q 2428 4238 2131 4238 
Q 1616 4238 1336 4038 
Q 1056 3838 1056 3469 
Q 1056 3159 1242 3001 
Q 1428 2844 1947 2747 
L 2328 2669 
Q 3034 2534 3370 2195 
Q 3706 1856 3706 1288 
Q 3706 609 3251 259 
Q 2797 -91 1919 -91 
Q 1588 -91 1214 -16 
Q 841 59 441 206 
L 441 856 
Q 825 641 1194 531 
Q 1563 422 1919 422 
Q 2459 422 2753 634 
Q 3047 847 3047 1241 
Q 3047 1584 2836 1778 
Q 2625 1972 2144 2069 
L 1759 2144 
Q 1053 2284 737 2584 
Q 422 2884 422 3419 
Q 422 4038 858 4394 
Q 1294 4750 2059 4750 
Q 2388 4750 2728 4690 
Q 3069 4631 3425 4513 
z
" transform="scale(0.015625)"/>
      <path id="DejaVuSans-45" d="M 628 4666 
L 3578 4666 
L 3578 4134 
L 1259 4134 
L 1259 2753 
L 3481 2753 
L 3481 2222 
L 1259 2222 
L 1259 531 
L 3634 531 
L 3634 0 
L 628 0 
L 628 4666 
z
" transform="scale(0.015625)"/>
      <path id="DejaVuSans-55" d="M 556 4666 
L 1191 4666 
L 1191 1831 
Q 1191 1081 1462 751 
Q 1734 422 2344 422 
Q 2950 422 3222 751 
Q 3494 1081 3494 1831 
L 3494 4666 
L 4128 4666 
L 4128 1753 
Q 4128 841 3676 375 
Q 3225 -91 2344 -91 
Q 1459 -91 1007 375 
Q 556 841 556 1753 
L 556 4666 
z
" transform="scale(0.015625)"/>
      <path id="DejaVuSans-54" d="M -19 4666 
L 3928 4666 
L 3928 4134 
L 2272 4134 
L 2272 0 
L 1638 0 
L 1638 4134 
L -19 4134 
L -19 4666 
z
" transform="scale(0.015625)"/>
     </defs>
     <use xlink:href="#DejaVuSans-42"/>
     <use xlink:href="#DejaVuSans-dc" x="68.603516"/>
     <use xlink:href="#DejaVuSans-4e" x="141.796875"/>
     <use xlink:href="#DejaVuSans-44" x="216.601562"/>
     <use xlink:href="#DejaVuSans-4e" x="293.603516"/>
     <use xlink:href="#DejaVuSans-49" x="368.408203"/>
     <use xlink:href="#DejaVuSans-53" x="397.900391"/>
     <use xlink:href="#DejaVuSans-20" x="461.376953"/>
     <use xlink:href="#DejaVuSans-44" x="493.164062"/>
     <use xlink:href="#DejaVuSans-45" x="570.166016"/>
     <use xlink:href="#DejaVuSans-55" x="633.349609"/>
     <use xlink:href="#DejaVuSans-54" x="706.542969"/>
     <use xlink:href="#DejaVuSans-53" x="767.626953"/>
     <use xlink:href="#DejaVuSans-2e" x="831.103516"/>
     <use xlink:href="#DejaVuSans-2e" x="862.890625"/>
     <use xlink:href="#DejaVuSans-2e" x="894.677734"/>
    </g>
   </g>
   <g id="text_8">
    <!-- Bündnis C -->
    <g transform="translate(504.639389 220.54829) scale(0.079968 -0.079968)">
     <defs>
      <path id="DejaVuSans-fc" d="M 544 1381 
L 544 3500 
L 1119 3500 
L 1119 1403 
Q 1119 906 1312 657 
Q 1506 409 1894 409 
Q 2359 409 2629 706 
Q 2900 1003 2900 1516 
L 2900 3500 
L 3475 3500 
L 3475 0 
L 2900 0 
L 2900 538 
Q 2691 219 2414 64 
Q 2138 -91 1772 -91 
Q 1169 -91 856 284 
Q 544 659 544 1381 
z
M 1991 3584 
L 1991 3584 
z
M 2278 4850 
L 2912 4850 
L 2912 4219 
L 2278 4219 
L 2278 4850 
z
M 1056 4850 
L 1690 4850 
L 1690 4219 
L 1056 4219 
L 1056 4850 
z
" transform="scale(0.015625)"/>
      <path id="DejaVuSans-64" d="M 2906 2969 
L 2906 4863 
L 3481 4863 
L 3481 0 
L 2906 0 
L 2906 525 
Q 2725 213 2448 61 
Q 2172 -91 1784 -91 
Q 1150 -91 751 415 
Q 353 922 353 1747 
Q 353 2572 751 3078 
Q 1150 3584 1784 3584 
Q 2172 3584 2448 3432 
Q 2725 3281 2906 2969 
z
M 947 1747 
Q 947 1113 1208 752 
Q 1469 391 1925 391 
Q 2381 391 2643 752 
Q 2906 1113 2906 1747 
Q 2906 2381 2643 2742 
Q 2381 3103 1925 3103 
Q 1469 3103 1208 2742 
Q 947 2381 947 1747 
z
" transform="scale(0.015625)"/>
      <path id="DejaVuSans-73" d="M 2834 3397 
L 2834 2853 
Q 2591 2978 2328 3040 
Q 2066 3103 1784 3103 
Q 1356 3103 1142 2972 
Q 928 2841 928 2578 
Q 928 2378 1081 2264 
Q 1234 2150 1697 2047 
L 1894 2003 
Q 2506 1872 2764 1633 
Q 3022 1394 3022 966 
Q 3022 478 2636 193 
Q 2250 -91 1575 -91 
Q 1294 -91 989 -36 
Q 684 19 347 128 
L 347 722 
Q 666 556 975 473 
Q 1284 391 1588 391 
Q 1994 391 2212 530 
Q 2431 669 2431 922 
Q 2431 1156 2273 1281 
Q 2116 1406 1581 1522 
L 1381 1569 
Q 847 1681 609 1914 
Q 372 2147 372 2553 
Q 372 3047 722 3315 
Q 1072 3584 1716 3584 
Q 2034 3584 2315 3537 
Q 2597 3491 2834 3397 
z
" transform="scale(0.015625)"/>
     </defs>
     <use xlink:href="#DejaVuSans-42"/>
     <use xlink:href="#DejaVuSans-fc" x="68.603516"/>
     <use xlink:href="#DejaVuSans-6e" x="131.982422"/>
     <use xlink:href="#DejaVuSans-64" x="195.361328"/>
     <use xlink:href="#DejaVuSans-6e" x="258.837891"/>
     <use xlink:href="#DejaVuSans-69" x="322.216797"/>
     <use xlink:href="#DejaVuSans-73" x="350"/>
     <use xlink:href="#DejaVuSans-20" x="402.099609"/>
     <use xlink:href="#DejaVuSans-43" x="433.886719"/>
    </g>
   </g>
   <g id="text_9">
    <!-- CDU / CSU -->
    <g style="fill: #00008b" transform="translate(365.076524 63.127489) scale(0.079968 -0.079968)">
     <defs>
      <path id="DejaVuSans-Bold-43" d="M 4288 256 
Q 3956 84 3597 -3 
Q 3238 -91 2847 -91 
Q 1681 -91 1000 561 
Q 319 1213 319 2328 
Q 319 3447 1000 4098 
Q 1681 4750 2847 4750 
Q 3238 4750 3597 4662 
Q 3956 4575 4288 4403 
L 4288 3438 
Q 3953 3666 3628 3772 
Q 3303 3878 2944 3878 
Q 2300 3878 1931 3465 
Q 1563 3053 1563 2328 
Q 1563 1606 1931 1193 
Q 2300 781 2944 781 
Q 3303 781 3628 887 
Q 3953 994 4288 1222 
L 4288 256 
z
" transform="scale(0.015625)"/>
      <path id="DejaVuSans-Bold-55" d="M 588 4666 
L 1791 4666 
L 1791 1869 
Q 1791 1291 1980 1042 
Q 2169 794 2597 794 
Q 3028 794 3217 1042 
Q 3406 1291 3406 1869 
L 3406 4666 
L 4609 4666 
L 4609 1869 
Q 4609 878 4112 393 
Q 3616 -91 2597 -91 
Q 1581 -91 1084 393 
Q 588 878 588 1869 
L 588 4666 
z
" transform="scale(0.015625)"/>
      <path id="DejaVuSans-Bold-20" transform="scale(0.015625)"/>
      <path id="DejaVuSans-Bold-2f" d="M 1644 4666 
L 2338 4666 
L 691 -594 
L 0 -594 
L 1644 4666 
z
" transform="scale(0.015625)"/>
     </defs>
     <use xlink:href="#DejaVuSans-Bold-43"/>
     <use xlink:href="#DejaVuSans-Bold-44" x="73.388672"/>
     <use xlink:href="#DejaVuSans-Bold-55" x="156.396484"/>
     <use xlink:href="#DejaVuSans-Bold-20" x="237.597656"/>
     <use xlink:href="#DejaVuSans-Bold-2f" x="272.412109"/>
     <use xlink:href="#DejaVuSans-Bold-20" x="308.935547"/>
     <use xlink:href="#DejaVuSans-Bold-43" x="343.75"/>
     <use xlink:href="#DejaVuSans-Bold-53" x="419.013672"/>
     <use xlink:href="#DejaVuSans-Bold-55" x="491.035156"/>
    </g>
   </g>
   <g id="text_10">
    <!-- DAVA -->
    <g transform="translate(310.697727 251.178465) scale(0.079968 -0.079968)">
     <use xlink:href="#DejaVuSans-44"/>
     <use xlink:href="#DejaVuSans-41" x="75.251953"/>
     <use xlink:href="#DejaVuSans-56" x="137.285156"/>
     <use xlink:href="#DejaVuSans-41" x="199.318359"/>
    </g>
   </g>
   <g id="text_11">
    <!-- DIE LINKE -->
    <g style="fill: #00008b" transform="translate(123.461649 514.201438) scale(0.079968 -0.079968)">
     <defs>
      <path id="DejaVuSans-Bold-49" d="M 588 4666 
L 1791 4666 
L 1791 0 
L 588 0 
L 588 4666 
z
" transform="scale(0.015625)"/>
      <path id="DejaVuSans-Bold-45" d="M 588 4666 
L 3834 4666 
L 3834 3756 
L 1791 3756 
L 1791 2888 
L 3713 2888 
L 3713 1978 
L 1791 1978 
L 1791 909 
L 3903 909 
L 3903 0 
L 588 0 
L 588 4666 
z
" transform="scale(0.015625)"/>
      <path id="DejaVuSans-Bold-4c" d="M 588 4666 
L 1791 4666 
L 1791 909 
L 3903 909 
L 3903 0 
L 588 0 
L 588 4666 
z
" transform="scale(0.015625)"/>
      <path id="DejaVuSans-Bold-4e" d="M 588 4666 
L 1931 4666 
L 3628 1466 
L 3628 4666 
L 4769 4666 
L 4769 0 
L 3425 0 
L 1728 3200 
L 1728 0 
L 588 0 
L 588 4666 
z
" transform="scale(0.015625)"/>
      <path id="DejaVuSans-Bold-4b" d="M 588 4666 
L 1791 4666 
L 1791 2963 
L 3525 4666 
L 4922 4666 
L 2675 2456 
L 5153 0 
L 3647 0 
L 1791 1838 
L 1791 0 
L 588 0 
L 588 4666 
z
" transform="scale(0.015625)"/>
     </defs>
     <use xlink:href="#DejaVuSans-Bold-44"/>
     <use xlink:href="#DejaVuSans-Bold-49" x="83.007812"/>
     <use xlink:href="#DejaVuSans-Bold-45" x="120.214844"/>
     <use xlink:href="#DejaVuSans-Bold-20" x="188.525391"/>
     <use xlink:href="#DejaVuSans-Bold-4c" x="223.339844"/>
     <use xlink:href="#DejaVuSans-Bold-49" x="287.060547"/>
     <use xlink:href="#DejaVuSans-Bold-4e" x="324.267578"/>
     <use xlink:href="#DejaVuSans-Bold-4b" x="407.958984"/>
     <use xlink:href="#DejaVuSans-Bold-45" x="485.449219"/>
    </g>
   </g>
   <g id="text_12">
    <!-- DKP -->
    <g transform="translate(198.730999 541.145575) scale(0.079968 -0.079968)">
     <use xlink:href="#DejaVuSans-44"/>
     <use xlink:href="#DejaVuSans-4b" x="77.001953"/>
     <use xlink:href="#DejaVuSans-50" x="142.578125"/>
    </g>
   </g>
   <g id="text_13">
    <!-- Die PARTEI -->
    <g transform="translate(143.990088 442.380274) scale(0.079968 -0.079968)">
     <defs>
      <path id="DejaVuSans-52" d="M 2841 2188 
Q 3044 2119 3236 1894 
Q 3428 1669 3622 1275 
L 4263 0 
L 3584 0 
L 2988 1197 
Q 2756 1666 2539 1819 
Q 2322 1972 1947 1972 
L 1259 1972 
L 1259 0 
L 628 0 
L 628 4666 
L 2053 4666 
Q 2853 4666 3247 4331 
Q 3641 3997 3641 3322 
Q 3641 2881 3436 2590 
Q 3231 2300 2841 2188 
z
M 1259 4147 
L 1259 2491 
L 2053 2491 
Q 2509 2491 2742 2702 
Q 2975 2913 2975 3322 
Q 2975 3731 2742 3939 
Q 2509 4147 2053 4147 
L 1259 4147 
z
" transform="scale(0.015625)"/>
     </defs>
     <use xlink:href="#DejaVuSans-44"/>
     <use xlink:href="#DejaVuSans-69" x="77.001953"/>
     <use xlink:href="#DejaVuSans-65" x="104.785156"/>
     <use xlink:href="#DejaVuSans-20" x="166.308594"/>
     <use xlink:href="#DejaVuSans-50" x="198.095703"/>
     <use xlink:href="#DejaVuSans-41" x="252.023438"/>
     <use xlink:href="#DejaVuSans-52" x="320.431641"/>
     <use xlink:href="#DejaVuSans-54" x="382.664062"/>
     <use xlink:href="#DejaVuSans-45" x="443.748047"/>
     <use xlink:href="#DejaVuSans-49" x="506.931641"/>
    </g>
   </g>
   <g id="text_14">
    <!-- FAMILIE -->
    <g transform="translate(313.220802 168.344552) scale(0.079968 -0.079968)">
     <defs>
      <path id="DejaVuSans-46" d="M 628 4666 
L 3309 4666 
L 3309 4134 
L 1259 4134 
L 1259 2759 
L 3109 2759 
L 3109 2228 
L 1259 2228 
L 1259 0 
L 628 0 
L 628 4666 
z
" transform="scale(0.015625)"/>
      <path id="DejaVuSans-4d" d="M 628 4666 
L 1569 4666 
L 2759 1491 
L 3956 4666 
L 4897 4666 
L 4897 0 
L 4281 0 
L 4281 4097 
L 3078 897 
L 2444 897 
L 1241 4097 
L 1241 0 
L 628 0 
L 628 4666 
z
" transform="scale(0.015625)"/>
      <path id="DejaVuSans-4c" d="M 628 4666 
L 1259 4666 
L 1259 531 
L 3531 531 
L 3531 0 
L 628 0 
L 628 4666 
z
" transform="scale(0.015625)"/>
     </defs>
     <use xlink:href="#DejaVuSans-46"/>
     <use xlink:href="#DejaVuSans-41" x="48.394531"/>
     <use xlink:href="#DejaVuSans-4d" x="116.802734"/>
     <use xlink:href="#DejaVuSans-49" x="203.082031"/>
     <use xlink:href="#DejaVuSans-4c" x="232.574219"/>
     <use xlink:href="#DejaVuSans-49" x="288.287109"/>
     <use xlink:href="#DejaVuSans-45" x="317.779297"/>
    </g>
   </g>
   <g id="text_15">
    <!-- FDP -->
    <g style="fill: #00008b" transform="translate(304.42983 82.596889) scale(0.079968 -0.079968)">
     <defs>
      <path id="DejaVuSans-Bold-46" d="M 588 4666 
L 3834 4666 
L 3834 3756 
L 1791 3756 
L 1791 2888 
L 3713 2888 
L 3713 1978 
L 1791 1978 
L 1791 0 
L 588 0 
L 588 4666 
z
" transform="scale(0.015625)"/>
      <path id="DejaVuSans-Bold-50" d="M 588 4666 
L 2584 4666 
Q 3475 4666 3951 4270 
Q 4428 3875 4428 3144 
Q 4428 2409 3951 2014 
Q 3475 1619 2584 1619 
L 1791 1619 
L 1791 0 
L 588 0 
L 588 4666 
z
M 1791 3794 
L 1791 2491 
L 2456 2491 
Q 2806 2491 2997 2661 
Q 3188 2831 3188 3144 
Q 3188 3456 2997 3625 
Q 2806 3794 2456 3794 
L 1791 3794 
z
" transform="scale(0.015625)"/>
     </defs>
     <use xlink:href="#DejaVuSans-Bold-46"/>
     <use xlink:href="#DejaVuSans-Bold-44" x="68.310547"/>
     <use xlink:href="#DejaVuSans-Bold-50" x="151.318359"/>
    </g>
   </g>
   <g id="text_16">
    <!-- FREIE WÄHLER -->
    <g style="fill: #00008b" transform="translate(225.817802 129.586198) scale(0.079968 -0.079968)">
     <defs>
      <path id="DejaVuSans-Bold-52" d="M 2297 2597 
Q 2675 2597 2839 2737 
Q 3003 2878 3003 3200 
Q 3003 3519 2839 3656 
Q 2675 3794 2297 3794 
L 1791 3794 
L 1791 2597 
L 2297 2597 
z
M 1791 1766 
L 1791 0 
L 588 0 
L 588 4666 
L 2425 4666 
Q 3347 4666 3776 4356 
Q 4206 4047 4206 3378 
Q 4206 2916 3982 2619 
Q 3759 2322 3309 2181 
Q 3556 2125 3751 1926 
Q 3947 1728 4147 1325 
L 4800 0 
L 3519 0 
L 2950 1159 
Q 2778 1509 2601 1637 
Q 2425 1766 2131 1766 
L 1791 1766 
z
" transform="scale(0.015625)"/>
      <path id="DejaVuSans-Bold-c4" d="M 3419 850 
L 1538 850 
L 1241 0 
L 31 0 
L 1759 4666 
L 3194 4666 
L 4922 0 
L 3713 0 
L 3419 850 
z
M 1838 1716 
L 3116 1716 
L 2478 3572 
L 1838 1716 
z
M 1472 5921 
L 2206 5921 
L 2206 5152 
L 1472 5152 
L 1472 5921 
z
M 2706 5921 
L 3440 5921 
L 3440 5152 
L 2706 5152 
L 2706 5921 
z
" transform="scale(0.015625)"/>
      <path id="DejaVuSans-Bold-48" d="M 588 4666 
L 1791 4666 
L 1791 2888 
L 3566 2888 
L 3566 4666 
L 4769 4666 
L 4769 0 
L 3566 0 
L 3566 1978 
L 1791 1978 
L 1791 0 
L 588 0 
L 588 4666 
z
" transform="scale(0.015625)"/>
     </defs>
     <use xlink:href="#DejaVuSans-Bold-46"/>
     <use xlink:href="#DejaVuSans-Bold-52" x="68.310547"/>
     <use xlink:href="#DejaVuSans-Bold-45" x="145.3125"/>
     <use xlink:href="#DejaVuSans-Bold-49" x="213.623047"/>
     <use xlink:href="#DejaVuSans-Bold-45" x="250.830078"/>
     <use xlink:href="#DejaVuSans-Bold-20" x="319.140625"/>
     <use xlink:href="#DejaVuSans-Bold-57" x="353.955078"/>
     <use xlink:href="#DejaVuSans-Bold-c4" x="459.757812"/>
     <use xlink:href="#DejaVuSans-Bold-48" x="537.150391"/>
     <use xlink:href="#DejaVuSans-Bold-4c" x="620.841797"/>
     <use xlink:href="#DejaVuSans-Bold-45" x="684.5625"/>
     <use xlink:href="#DejaVuSans-Bold-52" x="752.873047"/>
    </g>
   </g>
   <g id="text_17">
    <!-- GRÜNE -->
    <g style="fill: #00008b" transform="translate(57.772594 282.611823) scale(0.079968 -0.079968)">
     <defs>
      <path id="DejaVuSans-Bold-47" d="M 4781 347 
Q 4331 128 3847 18 
Q 3363 -91 2847 -91 
Q 1681 -91 1000 561 
Q 319 1213 319 2328 
Q 319 3456 1012 4103 
Q 1706 4750 2913 4750 
Q 3378 4750 3804 4662 
Q 4231 4575 4609 4403 
L 4609 3438 
Q 4219 3659 3833 3768 
Q 3447 3878 3059 3878 
Q 2341 3878 1952 3476 
Q 1563 3075 1563 2328 
Q 1563 1588 1938 1184 
Q 2313 781 3003 781 
Q 3191 781 3352 804 
Q 3513 828 3641 878 
L 3641 1784 
L 2906 1784 
L 2906 2591 
L 4781 2591 
L 4781 347 
z
" transform="scale(0.015625)"/>
      <path id="DejaVuSans-Bold-dc" d="M 588 4666 
L 1791 4666 
L 1791 1869 
Q 1791 1291 1980 1042 
Q 2169 794 2597 794 
Q 3028 794 3217 1042 
Q 3406 1291 3406 1869 
L 3406 4666 
L 4609 4666 
L 4609 1869 
Q 4609 878 4112 393 
Q 3616 -91 2597 -91 
Q 1581 -91 1084 393 
Q 588 878 588 1869 
L 588 4666 
z
M 1616 5921 
L 2350 5921 
L 2350 5152 
L 1616 5152 
L 1616 5921 
z
M 2850 5921 
L 3584 5921 
L 3584 5152 
L 2850 5152 
L 2850 5921 
z
" transform="scale(0.015625)"/>
     </defs>
     <use xlink:href="#DejaVuSans-Bold-47"/>
     <use xlink:href="#DejaVuSans-Bold-52" x="82.080078"/>
     <use xlink:href="#DejaVuSans-Bold-dc" x="159.082031"/>
     <use xlink:href="#DejaVuSans-Bold-4e" x="240.283203"/>
     <use xlink:href="#DejaVuSans-Bold-45" x="323.974609"/>
    </g>
   </g>
   <g id="text_18">
    <!-- HEIMAT -->
    <g transform="translate(535.896635 388.545527) scale(0.079968 -0.079968)">
     <defs>
      <path id="DejaVuSans-48" d="M 628 4666 
L 1259 4666 
L 1259 2753 
L 3553 2753 
L 3553 4666 
L 4184 4666 
L 4184 0 
L 3553 0 
L 3553 2222 
L 1259 2222 
L 1259 0 
L 628 0 
L 628 4666 
z
" transform="scale(0.015625)"/>
     </defs>
     <use xlink:href="#DejaVuSans-48"/>
     <use xlink:href="#DejaVuSans-45" x="75.195312"/>
     <use xlink:href="#DejaVuSans-49" x="138.378906"/>
     <use xlink:href="#DejaVuSans-4d" x="167.871094"/>
     <use xlink:href="#DejaVuSans-41" x="254.150391"/>
     <use xlink:href="#DejaVuSans-54" x="314.808594"/>
    </g>
   </g>
   <g id="text_19">
    <!-- KLIMALISTE -->
    <g transform="translate(87.915746 355.22908) scale(0.079968 -0.079968)">
     <use xlink:href="#DejaVuSans-4b"/>
     <use xlink:href="#DejaVuSans-4c" x="65.576172"/>
     <use xlink:href="#DejaVuSans-49" x="121.289062"/>
     <use xlink:href="#DejaVuSans-4d" x="150.78125"/>
     <use xlink:href="#DejaVuSans-41" x="237.060547"/>
     <use xlink:href="#DejaVuSans-4c" x="305.46875"/>
     <use xlink:href="#DejaVuSans-49" x="361.181641"/>
     <use xlink:href="#DejaVuSans-53" x="390.673828"/>
     <use xlink:href="#DejaVuSans-54" x="454.150391"/>
     <use xlink:href="#DejaVuSans-45" x="515.234375"/>
    </g>
   </g>
   <g id="text_20">
    <!-- LETZTE GENERA... -->
    <g transform="translate(112.965972 378.932961) scale(0.079968 -0.079968)">
     <defs>
      <path id="DejaVuSans-5a" d="M 359 4666 
L 4025 4666 
L 4025 4184 
L 1075 531 
L 4097 531 
L 4097 0 
L 288 0 
L 288 481 
L 3238 4134 
L 359 4134 
L 359 4666 
z
" transform="scale(0.015625)"/>
     </defs>
     <use xlink:href="#DejaVuSans-4c"/>
     <use xlink:href="#DejaVuSans-45" x="55.712891"/>
     <use xlink:href="#DejaVuSans-54" x="118.896484"/>
     <use xlink:href="#DejaVuSans-5a" x="179.980469"/>
     <use xlink:href="#DejaVuSans-54" x="248.486328"/>
     <use xlink:href="#DejaVuSans-45" x="309.570312"/>
     <use xlink:href="#DejaVuSans-20" x="372.753906"/>
     <use xlink:href="#DejaVuSans-47" x="404.541016"/>
     <use xlink:href="#DejaVuSans-45" x="482.03125"/>
     <use xlink:href="#DejaVuSans-4e" x="545.214844"/>
     <use xlink:href="#DejaVuSans-45" x="620.019531"/>
     <use xlink:href="#DejaVuSans-52" x="683.203125"/>
     <use xlink:href="#DejaVuSans-41" x="748.685547"/>
     <use xlink:href="#DejaVuSans-2e" x="815.34375"/>
     <use xlink:href="#DejaVuSans-2e" x="847.130859"/>
     <use xlink:href="#DejaVuSans-2e" x="878.917969"/>
    </g>
   </g>
   <g id="text_21">
    <!-- MENSCHLICHE WELT -->
    <g transform="translate(386.212754 439.349296) scale(0.079968 -0.079968)">
     <defs>
      <path id="DejaVuSans-57" d="M 213 4666 
L 850 4666 
L 1831 722 
L 2809 4666 
L 3519 4666 
L 4500 722 
L 5478 4666 
L 6119 4666 
L 4947 0 
L 4153 0 
L 3169 4050 
L 2175 0 
L 1381 0 
L 213 4666 
z
" transform="scale(0.015625)"/>
     </defs>
     <use xlink:href="#DejaVuSans-4d"/>
     <use xlink:href="#DejaVuSans-45" x="86.279297"/>
     <use xlink:href="#DejaVuSans-4e" x="149.462891"/>
     <use xlink:href="#DejaVuSans-53" x="224.267578"/>
     <use xlink:href="#DejaVuSans-43" x="287.744141"/>
     <use xlink:href="#DejaVuSans-48" x="357.568359"/>
     <use xlink:href="#DejaVuSans-4c" x="432.763672"/>
     <use xlink:href="#DejaVuSans-49" x="488.476562"/>
     <use xlink:href="#DejaVuSans-43" x="517.96875"/>
     <use xlink:href="#DejaVuSans-48" x="587.792969"/>
     <use xlink:href="#DejaVuSans-45" x="662.988281"/>
     <use xlink:href="#DejaVuSans-20" x="726.171875"/>
     <use xlink:href="#DejaVuSans-57" x="757.958984"/>
     <use xlink:href="#DejaVuSans-45" x="856.835938"/>
     <use xlink:href="#DejaVuSans-4c" x="920.019531"/>
     <use xlink:href="#DejaVuSans-54" x="961.982422"/>
    </g>
   </g>
   <g id="text_22">
    <!-- MERA25 -->
    <g transform="translate(106.321381 477.10278) scale(0.079968 -0.079968)">
     <defs>
      <path id="DejaVuSans-35" d="M 691 4666 
L 3169 4666 
L 3169 4134 
L 1269 4134 
L 1269 2991 
Q 1406 3038 1543 3061 
Q 1681 3084 1819 3084 
Q 2600 3084 3056 2656 
Q 3513 2228 3513 1497 
Q 3513 744 3044 326 
Q 2575 -91 1722 -91 
Q 1428 -91 1123 -41 
Q 819 9 494 109 
L 494 744 
Q 775 591 1075 516 
Q 1375 441 1709 441 
Q 2250 441 2565 725 
Q 2881 1009 2881 1497 
Q 2881 1984 2565 2268 
Q 2250 2553 1709 2553 
Q 1456 2553 1204 2497 
Q 953 2441 691 2322 
L 691 4666 
z
" transform="scale(0.015625)"/>
     </defs>
     <use xlink:href="#DejaVuSans-4d"/>
     <use xlink:href="#DejaVuSans-45" x="86.279297"/>
     <use xlink:href="#DejaVuSans-52" x="149.462891"/>
     <use xlink:href="#DejaVuSans-41" x="214.945312"/>
     <use xlink:href="#DejaVuSans-32" x="283.353516"/>
     <use xlink:href="#DejaVuSans-35" x="346.976562"/>
    </g>
   </g>
   <g id="text_23">
    <!-- MLPD -->
    <g transform="translate(183.861301 565.740277) scale(0.079968 -0.079968)">
     <use xlink:href="#DejaVuSans-4d"/>
     <use xlink:href="#DejaVuSans-4c" x="86.279297"/>
     <use xlink:href="#DejaVuSans-50" x="141.992188"/>
     <use xlink:href="#DejaVuSans-44" x="202.294922"/>
    </g>
   </g>
   <g id="text_24">
    <!-- PDV -->
    <g transform="translate(532.475934 390.126021) scale(0.079968 -0.079968)">
     <use xlink:href="#DejaVuSans-50"/>
     <use xlink:href="#DejaVuSans-44" x="60.302734"/>
     <use xlink:href="#DejaVuSans-56" x="135.554688"/>
    </g>
   </g>
   <g id="text_25">
    <!-- PIRATEN -->
    <g transform="translate(117.7806 334.945718) scale(0.079968 -0.079968)">
     <use xlink:href="#DejaVuSans-50"/>
     <use xlink:href="#DejaVuSans-49" x="60.302734"/>
     <use xlink:href="#DejaVuSans-52" x="89.794922"/>
     <use xlink:href="#DejaVuSans-41" x="155.277344"/>
     <use xlink:href="#DejaVuSans-54" x="215.935547"/>
     <use xlink:href="#DejaVuSans-45" x="277.019531"/>
     <use xlink:href="#DejaVuSans-4e" x="340.203125"/>
    </g>
   </g>
   <g id="text_26">
    <!-- PdF -->
    <g transform="translate(191.496118 230.750136) scale(0.079968 -0.079968)">
     <use xlink:href="#DejaVuSans-50"/>
     <use xlink:href="#DejaVuSans-64" x="60.302734"/>
     <use xlink:href="#DejaVuSans-46" x="123.779297"/>
    </g>
   </g>
   <g id="text_27">
    <!-- PdH -->
    <g transform="translate(173.552305 187.326232) scale(0.079968 -0.079968)">
     <use xlink:href="#DejaVuSans-50"/>
     <use xlink:href="#DejaVuSans-64" x="60.302734"/>
     <use xlink:href="#DejaVuSans-48" x="123.779297"/>
    </g>
   </g>
   <g id="text_28">
    <!-- SGP -->
    <g transform="translate(241.657286 530.870878) scale(0.079968 -0.079968)">
     <use xlink:href="#DejaVuSans-53"/>
     <use xlink:href="#DejaVuSans-47" x="63.476562"/>
     <use xlink:href="#DejaVuSans-50" x="140.966797"/>
    </g>
   </g>
   <g id="text_29">
    <!-- SPD -->
    <g style="fill: #00008b" transform="translate(158.858268 163.031038) scale(0.079968 -0.079968)">
     <use xlink:href="#DejaVuSans-Bold-53"/>
     <use xlink:href="#DejaVuSans-Bold-50" x="72.021484"/>
     <use xlink:href="#DejaVuSans-Bold-44" x="145.3125"/>
    </g>
   </g>
   <g id="text_30">
    <!-- TIERSCHUTZ hier! -->
    <g transform="translate(441.237977 423.967568) scale(0.079968 -0.079968)">
     <defs>
      <path id="DejaVuSans-68" d="M 3513 2113 
L 3513 0 
L 2938 0 
L 2938 2094 
Q 2938 2591 2744 2837 
Q 2550 3084 2163 3084 
Q 1697 3084 1428 2787 
Q 1159 2491 1159 1978 
L 1159 0 
L 581 0 
L 581 4863 
L 1159 4863 
L 1159 2956 
Q 1366 3272 1645 3428 
Q 1925 3584 2291 3584 
Q 2894 3584 3203 3211 
Q 3513 2838 3513 2113 
z
" transform="scale(0.015625)"/>
      <path id="DejaVuSans-21" d="M 966 794 
L 1600 794 
L 1600 0 
L 966 0 
L 966 794 
z
M 966 4666 
L 1600 4666 
L 1600 2619 
L 1538 1503 
L 1031 1503 
L 966 2619 
L 966 4666 
z
" transform="scale(0.015625)"/>
     </defs>
     <use xlink:href="#DejaVuSans-54"/>
     <use xlink:href="#DejaVuSans-49" x="61.083984"/>
     <use xlink:href="#DejaVuSans-45" x="90.576172"/>
     <use xlink:href="#DejaVuSans-52" x="153.759766"/>
     <use xlink:href="#DejaVuSans-53" x="223.242188"/>
     <use xlink:href="#DejaVuSans-43" x="286.71875"/>
     <use xlink:href="#DejaVuSans-48" x="356.542969"/>
     <use xlink:href="#DejaVuSans-55" x="431.738281"/>
     <use xlink:href="#DejaVuSans-54" x="504.931641"/>
     <use xlink:href="#DejaVuSans-5a" x="566.015625"/>
     <use xlink:href="#DejaVuSans-20" x="634.521484"/>
     <use xlink:href="#DejaVuSans-68" x="666.308594"/>
     <use xlink:href="#DejaVuSans-69" x="729.6875"/>
     <use xlink:href="#DejaVuSans-65" x="757.470703"/>
     <use xlink:href="#DejaVuSans-72" x="818.994141"/>
     <use xlink:href="#DejaVuSans-21" x="860.107422"/>
    </g>
   </g>
   <g id="text_31">
    <!-- Tierschutzpartei -->
    <g transform="translate(68.130711 341.077891) scale(0.079968 -0.079968)">
     <defs>
      <path id="DejaVuSans-63" d="M 3122 3366 
L 3122 2828 
Q 2878 2963 2633 3030 
Q 2388 3097 2138 3097 
Q 1578 3097 1268 2742 
Q 959 2388 959 1747 
Q 959 1106 1268 751 
Q 1578 397 2138 397 
Q 2388 397 2633 464 
Q 2878 531 3122 666 
L 3122 134 
Q 2881 22 2623 -34 
Q 2366 -91 2075 -91 
Q 1284 -91 818 406 
Q 353 903 353 1747 
Q 353 2603 823 3093 
Q 1294 3584 2113 3584 
Q 2378 3584 2631 3529 
Q 2884 3475 3122 3366 
z
" transform="scale(0.015625)"/>
      <path id="DejaVuSans-75" d="M 544 1381 
L 544 3500 
L 1119 3500 
L 1119 1403 
Q 1119 906 1312 657 
Q 1506 409 1894 409 
Q 2359 409 2629 706 
Q 2900 1003 2900 1516 
L 2900 3500 
L 3475 3500 
L 3475 0 
L 2900 0 
L 2900 538 
Q 2691 219 2414 64 
Q 2138 -91 1772 -91 
Q 1169 -91 856 284 
Q 544 659 544 1381 
z
M 1991 3584 
L 1991 3584 
z
" transform="scale(0.015625)"/>
     </defs>
     <use xlink:href="#DejaVuSans-54"/>
     <use xlink:href="#DejaVuSans-69" x="57.958984"/>
     <use xlink:href="#DejaVuSans-65" x="85.742188"/>
     <use xlink:href="#DejaVuSans-72" x="147.265625"/>
     <use xlink:href="#DejaVuSans-73" x="188.378906"/>
     <use xlink:href="#DejaVuSans-63" x="240.478516"/>
     <use xlink:href="#DejaVuSans-68" x="295.458984"/>
     <use xlink:href="#DejaVuSans-75" x="358.837891"/>
     <use xlink:href="#DejaVuSans-74" x="422.216797"/>
     <use xlink:href="#DejaVuSans-7a" x="461.425781"/>
     <use xlink:href="#DejaVuSans-70" x="513.916016"/>
     <use xlink:href="#DejaVuSans-61" x="577.392578"/>
     <use xlink:href="#DejaVuSans-72" x="638.671875"/>
     <use xlink:href="#DejaVuSans-74" x="679.785156"/>
     <use xlink:href="#DejaVuSans-65" x="718.994141"/>
     <use xlink:href="#DejaVuSans-69" x="780.517578"/>
    </g>
   </g>
   <g id="text_32">
    <!-- V-Partei³ -->
    <g transform="translate(111.806782 309.612753) scale(0.079968 -0.079968)">
     <defs>
      <path id="DejaVuSans-2d" d="M 313 2009 
L 1997 2009 
L 1997 1497 
L 313 1497 
L 313 2009 
z
" transform="scale(0.015625)"/>
      <path id="DejaVuSans-b3" d="M 1638 3500 
Q 1925 3444 2083 3273 
Q 2241 3103 2241 2847 
Q 2241 2459 1944 2250 
Q 1647 2041 1094 2041 
Q 916 2041 720 2073 
Q 525 2106 306 2169 
L 306 2547 
Q 469 2463 655 2422 
Q 841 2381 1050 2381 
Q 1391 2381 1578 2504 
Q 1766 2628 1766 2847 
Q 1766 3078 1592 3197 
Q 1419 3316 1081 3316 
L 813 3316 
L 813 3653 
L 1106 3653 
Q 1400 3653 1551 3751 
Q 1703 3850 1703 4038 
Q 1703 4219 1547 4314 
Q 1391 4409 1094 4409 
Q 969 4409 809 4381 
Q 650 4353 397 4281 
L 397 4641 
Q 625 4694 825 4722 
Q 1025 4750 1197 4750 
Q 1647 4750 1911 4565 
Q 2175 4381 2175 4072 
Q 2175 3856 2034 3706 
Q 1894 3556 1638 3500 
z
" transform="scale(0.015625)"/>
     </defs>
     <use xlink:href="#DejaVuSans-56"/>
     <use xlink:href="#DejaVuSans-2d" x="62.533203"/>
     <use xlink:href="#DejaVuSans-50" x="98.617188"/>
     <use xlink:href="#DejaVuSans-61" x="154.419922"/>
     <use xlink:href="#DejaVuSans-72" x="215.699219"/>
     <use xlink:href="#DejaVuSans-74" x="256.8125"/>
     <use xlink:href="#DejaVuSans-65" x="296.021484"/>
     <use xlink:href="#DejaVuSans-69" x="357.544922"/>
     <use xlink:href="#DejaVuSans-b3" x="385.328125"/>
    </g>
   </g>
   <g id="text_33">
    <!-- Volt -->
    <g style="fill: #00008b" transform="translate(61.431138 275.811311) scale(0.079968 -0.079968)">
     <defs>
      <path id="DejaVuSans-Bold-56" d="M 31 4666 
L 1241 4666 
L 2478 1222 
L 3713 4666 
L 4922 4666 
L 3194 0 
L 1759 0 
L 31 4666 
z
" transform="scale(0.015625)"/>
      <path id="DejaVuSans-Bold-6f" d="M 2203 2784 
Q 1831 2784 1636 2517 
Q 1441 2250 1441 1747 
Q 1441 1244 1636 976 
Q 1831 709 2203 709 
Q 2569 709 2762 976 
Q 2956 1244 2956 1747 
Q 2956 2250 2762 2517 
Q 2569 2784 2203 2784 
z
M 2203 3584 
Q 3106 3584 3614 3096 
Q 4122 2609 4122 1747 
Q 4122 884 3614 396 
Q 3106 -91 2203 -91 
Q 1297 -91 786 396 
Q 275 884 275 1747 
Q 275 2609 786 3096 
Q 1297 3584 2203 3584 
z
" transform="scale(0.015625)"/>
      <path id="DejaVuSans-Bold-6c" d="M 538 4863 
L 1656 4863 
L 1656 0 
L 538 0 
L 538 4863 
z
" transform="scale(0.015625)"/>
      <path id="DejaVuSans-Bold-74" d="M 1759 4494 
L 1759 3500 
L 2913 3500 
L 2913 2700 
L 1759 2700 
L 1759 1216 
Q 1759 972 1856 886 
Q 1953 800 2241 800 
L 2816 800 
L 2816 0 
L 1856 0 
Q 1194 0 917 276 
Q 641 553 641 1216 
L 641 2700 
L 84 2700 
L 84 3500 
L 641 3500 
L 641 4494 
L 1759 4494 
z
" transform="scale(0.015625)"/>
     </defs>
     <use xlink:href="#DejaVuSans-Bold-56"/>
     <use xlink:href="#DejaVuSans-Bold-6f" x="71.892578"/>
     <use xlink:href="#DejaVuSans-Bold-6c" x="140.59375"/>
     <use xlink:href="#DejaVuSans-Bold-74" x="174.871094"/>
    </g>
   </g>
   <g id="text_34">
    <!-- dieBasis -->
    <g transform="translate(454.930426 449.009998) scale(0.079968 -0.079968)">
     <use xlink:href="#DejaVuSans-64"/>
     <use xlink:href="#DejaVuSans-69" x="63.476562"/>
     <use xlink:href="#DejaVuSans-65" x="91.259766"/>
     <use xlink:href="#DejaVuSans-42" x="152.783203"/>
     <use xlink:href="#DejaVuSans-61" x="221.386719"/>
     <use xlink:href="#DejaVuSans-73" x="282.666016"/>
     <use xlink:href="#DejaVuSans-69" x="334.765625"/>
     <use xlink:href="#DejaVuSans-73" x="362.548828"/>
    </g>
   </g>
   <g id="text_35">
    <!-- ÖDP -->
    <g transform="translate(114.723359 317.505619) scale(0.079968 -0.079968)">
     <defs>
      <path id="DejaVuSans-d6" d="M 2522 4238 
Q 1834 4238 1429 3725 
Q 1025 3213 1025 2328 
Q 1025 1447 1429 934 
Q 1834 422 2522 422 
Q 3209 422 3611 934 
Q 4013 1447 4013 2328 
Q 4013 3213 3611 3725 
Q 3209 4238 2522 4238 
z
M 2522 4750 
Q 3503 4750 4090 4092 
Q 4678 3434 4678 2328 
Q 4678 1225 4090 567 
Q 3503 -91 2522 -91 
Q 1538 -91 948 565 
Q 359 1222 359 2328 
Q 359 3434 948 4092 
Q 1538 4750 2522 4750 
z
M 2814 5830 
L 3448 5830 
L 3448 5196 
L 2814 5196 
L 2814 5830 
z
M 1592 5830 
L 2226 5830 
L 2226 5196 
L 1592 5196 
L 1592 5830 
z
" transform="scale(0.015625)"/>
     </defs>
     <use xlink:href="#DejaVuSans-d6"/>
     <use xlink:href="#DejaVuSans-44" x="78.710938"/>
     <use xlink:href="#DejaVuSans-50" x="155.712891"/>
    </g>
   </g>
   <g id="legend_1">
    <g id="patch_7">
     <path d="M 546.3874 116.28125 
L 588.9809 116.28125 
Q 590.7409 116.28125 590.7409 114.52125 
L 590.7409 62.96 
Q 590.7409 61.2 588.9809 61.2 
L 546.3874 61.2 
Q 544.6274 61.2 544.6274 62.96 
L 544.6274 114.52125 
Q 544.6274 116.28125 546.3874 116.28125 
z
" style="fill: #4c4c4c; opacity: 0.5; stroke: #4c4c4c; stroke-width: 0.8; stroke-linejoin: miter"/>
    </g>
    <g id="patch_8">
     <path d="M 544.3874 114.28125 
L 586.9809 114.28125 
Q 588.7409 114.28125 588.7409 112.52125 
L 588.7409 60.96 
Q 588.7409 59.2 586.9809 59.2 
L 544.3874 59.2 
Q 542.6274 59.2 542.6274 60.96 
L 542.6274 112.52125 
Q 542.6274 114.28125 544.3874 114.28125 
z
" style="fill: #ffffff; stroke: #cccccc; stroke-width: 0.8; stroke-linejoin: miter"/>
    </g>
    <g id="text_36">
     <!-- Clusters -->
     <g style="fill: #262626" transform="translate(546.1474 70.0145) scale(0.096 -0.096)">
      <use xlink:href="#DejaVuSans-43"/>
      <use xlink:href="#DejaVuSans-6c" x="69.824219"/>
      <use xlink:href="#DejaVuSans-75" x="97.607422"/>
      <use xlink:href="#DejaVuSans-73" x="160.986328"/>
      <use xlink:href="#DejaVuSans-74" x="213.085938"/>
      <use xlink:href="#DejaVuSans-65" x="252.294922"/>
      <use xlink:href="#DejaVuSans-72" x="313.818359"/>
      <use xlink:href="#DejaVuSans-73" x="354.931641"/>
     </g>
    </g>
    <g id="line2d_17">
     <defs>
      <path id="m1aeb5eacf4" d="M 0 3.6 
C 0.954731 3.6 1.870488 3.220681 2.545584 2.545584 
C 3.220681 1.870488 3.6 0.954731 3.6 0 
C 3.6 -0.954731 3.220681 -1.870488 2.545584 -2.545584 
C 1.870488 -3.220681 0.954731 -3.6 0 -3.6 
C -0.954731 -3.6 -1.870488 -3.220681 -2.545584 -2.545584 
C -3.220681 -1.870488 -3.6 -0.954731 -3.6 0 
C -3.6 0.954731 -3.220681 1.870488 -2.545584 2.545584 
C -1.870488 3.220681 -0.954731 3.6 0 3.6 
z
" style="stroke: #ffffff; stroke-width: 0.384"/>
     </defs>
     <g>
      <use xlink:href="#m1aeb5eacf4" x="556.00415" y="80.017625" style="fill: #023eff; stroke: #ffffff; stroke-width: 0.384"/>
     </g>
    </g>
    <g id="line2d_18">
     <defs>
      <path id="mbb9add0b3c" d="M 0 3.6 
C 0.954731 3.6 1.870488 3.220681 2.545584 2.545584 
C 3.220681 1.870488 3.6 0.954731 3.6 0 
C 3.6 -0.954731 3.220681 -1.870488 2.545584 -2.545584 
C 1.870488 -3.220681 0.954731 -3.6 0 -3.6 
C -0.954731 -3.6 -1.870488 -3.220681 -2.545584 -2.545584 
C -3.220681 -1.870488 -3.6 -0.954731 -3.6 0 
C -3.6 0.954731 -3.220681 1.870488 -2.545584 2.545584 
C -1.870488 3.220681 -0.954731 3.6 0 3.6 
z
" style="stroke: #ffffff; stroke-width: 0.384"/>
     </defs>
     <g>
      <use xlink:href="#mbb9add0b3c" x="556.00415" y="92.934375" style="fill: #ff7c00; stroke: #ffffff; stroke-width: 0.384"/>
     </g>
    </g>
    <g id="line2d_19">
     <defs>
      <path id="m5aebed521c" d="M 0 3.6 
C 0.954731 3.6 1.870488 3.220681 2.545584 2.545584 
C 3.220681 1.870488 3.6 0.954731 3.6 0 
C 3.6 -0.954731 3.220681 -1.870488 2.545584 -2.545584 
C 1.870488 -3.220681 0.954731 -3.6 0 -3.6 
C -0.954731 -3.6 -1.870488 -3.220681 -2.545584 -2.545584 
C -3.220681 -1.870488 -3.6 -0.954731 -3.6 0 
C -3.6 0.954731 -3.220681 1.870488 -2.545584 2.545584 
C -1.870488 3.220681 -0.954731 3.6 0 3.6 
z
" style="stroke: #ffffff; stroke-width: 0.384"/>
     </defs>
     <g>
      <use xlink:href="#m5aebed521c" x="556.00415" y="105.851125" style="fill: #1ac938; stroke: #ffffff; stroke-width: 0.384"/>
     </g>
    </g>
    <g id="line2d_20">
     <defs>
      <path id="m5cc6eb64bb" d="M 0 3.6 
C 0.954731 3.6 1.870488 3.220681 2.545584 2.545584 
C 3.220681 1.870488 3.6 0.954731 3.6 0 
C 3.6 -0.954731 3.220681 -1.870488 2.545584 -2.545584 
C 1.870488 -3.220681 0.954731 -3.6 0 -3.6 
C -0.954731 -3.6 -1.870488 -3.220681 -2.545584 -2.545584 
C -3.220681 -1.870488 -3.6 -0.954731 -3.6 0 
C -3.6 0.954731 -3.220681 1.870488 -2.545584 2.545584 
C -1.870488 3.220681 -0.954731 3.6 0 3.6 
z
" style="stroke: #ffffff; stroke-width: 0.384"/>
     </defs>
     <g>
      <use xlink:href="#m5cc6eb64bb" x="575.36415" y="80.017625" style="fill: #e8000b; stroke: #ffffff; stroke-width: 0.384"/>
     </g>
    </g>
    <g id="line2d_21">
     <defs>
      <path id="mda4f471341" d="M 0 3.6 
C 0.954731 3.6 1.870488 3.220681 2.545584 2.545584 
C 3.220681 1.870488 3.6 0.954731 3.6 0 
C 3.6 -0.954731 3.220681 -1.870488 2.545584 -2.545584 
C 1.870488 -3.220681 0.954731 -3.6 0 -3.6 
C -0.954731 -3.6 -1.870488 -3.220681 -2.545584 -2.545584 
C -3.220681 -1.870488 -3.6 -0.954731 -3.6 0 
C -3.6 0.954731 -3.220681 1.870488 -2.545584 2.545584 
C -1.870488 3.220681 -0.954731 3.6 0 3.6 
z
" style="stroke: #ffffff; stroke-width: 0.384"/>
     </defs>
     <g>
      <use xlink:href="#mda4f471341" x="575.36415" y="92.934375" style="fill: #8b2be2; stroke: #ffffff; stroke-width: 0.384"/>
     </g>
    </g>
   </g>
  </g>
  <g id="text_37">
   <!-- Hauptkomponentenanalyse (PCA) der Parteien -->
   <g style="fill: #262626" transform="translate(175.4103 15.9534) scale(0.1152 -0.1152)">
    <defs>
     <path id="DejaVuSans-6b" d="M 581 4863 
L 1159 4863 
L 1159 1991 
L 2875 3500 
L 3609 3500 
L 1753 1863 
L 3688 0 
L 2938 0 
L 1159 1709 
L 1159 0 
L 581 0 
L 581 4863 
z
" transform="scale(0.015625)"/>
     <path id="DejaVuSans-79" d="M 2059 -325 
Q 1816 -950 1584 -1140 
Q 1353 -1331 966 -1331 
L 506 -1331 
L 506 -850 
L 844 -850 
Q 1081 -850 1212 -737 
Q 1344 -625 1503 -206 
L 1606 56 
L 191 3500 
L 800 3500 
L 1894 763 
L 2988 3500 
L 3597 3500 
L 2059 -325 
z
" transform="scale(0.015625)"/>
    </defs>
    <use xlink:href="#DejaVuSans-48"/>
    <use xlink:href="#DejaVuSans-61" x="75.195312"/>
    <use xlink:href="#DejaVuSans-75" x="136.474609"/>
    <use xlink:href="#DejaVuSans-70" x="199.853516"/>
    <use xlink:href="#DejaVuSans-74" x="263.330078"/>
    <use xlink:href="#DejaVuSans-6b" x="302.539062"/>
    <use xlink:href="#DejaVuSans-6f" x="356.824219"/>
    <use xlink:href="#DejaVuSans-6d" x="418.005859"/>
    <use xlink:href="#DejaVuSans-70" x="515.417969"/>
    <use xlink:href="#DejaVuSans-6f" x="578.894531"/>
    <use xlink:href="#DejaVuSans-6e" x="640.076172"/>
    <use xlink:href="#DejaVuSans-65" x="703.455078"/>
    <use xlink:href="#DejaVuSans-6e" x="764.978516"/>
    <use xlink:href="#DejaVuSans-74" x="828.357422"/>
    <use xlink:href="#DejaVuSans-65" x="867.566406"/>
    <use xlink:href="#DejaVuSans-6e" x="929.089844"/>
    <use xlink:href="#DejaVuSans-61" x="992.46875"/>
    <use xlink:href="#DejaVuSans-6e" x="1053.748047"/>
    <use xlink:href="#DejaVuSans-61" x="1117.126953"/>
    <use xlink:href="#DejaVuSans-6c" x="1178.40625"/>
    <use xlink:href="#DejaVuSans-79" x="1206.189453"/>
    <use xlink:href="#DejaVuSans-73" x="1265.369141"/>
    <use xlink:href="#DejaVuSans-65" x="1317.46875"/>
    <use xlink:href="#DejaVuSans-20" x="1378.992188"/>
    <use xlink:href="#DejaVuSans-28" x="1410.779297"/>
    <use xlink:href="#DejaVuSans-50" x="1449.792969"/>
    <use xlink:href="#DejaVuSans-43" x="1510.095703"/>
    <use xlink:href="#DejaVuSans-41" x="1579.919922"/>
    <use xlink:href="#DejaVuSans-29" x="1648.328125"/>
    <use xlink:href="#DejaVuSans-20" x="1687.341797"/>
    <use xlink:href="#DejaVuSans-64" x="1719.128906"/>
    <use xlink:href="#DejaVuSans-65" x="1782.605469"/>
    <use xlink:href="#DejaVuSans-72" x="1844.128906"/>
    <use xlink:href="#DejaVuSans-20" x="1885.242188"/>
    <use xlink:href="#DejaVuSans-50" x="1917.029297"/>
    <use xlink:href="#DejaVuSans-61" x="1972.832031"/>
    <use xlink:href="#DejaVuSans-72" x="2034.111328"/>
    <use xlink:href="#DejaVuSans-74" x="2075.224609"/>
    <use xlink:href="#DejaVuSans-65" x="2114.433594"/>
    <use xlink:href="#DejaVuSans-69" x="2175.957031"/>
    <use xlink:href="#DejaVuSans-65" x="2203.740234"/>
    <use xlink:href="#DejaVuSans-6e" x="2265.263672"/>
   </g>
   <!-- Europawahl 2024 -->
   <g style="fill: #262626" transform="translate(259.3209 28.85328) scale(0.1152 -0.1152)">
    <defs>
     <path id="DejaVuSans-77" d="M 269 3500 
L 844 3500 
L 1563 769 
L 2278 3500 
L 2956 3500 
L 3675 769 
L 4391 3500 
L 4966 3500 
L 4050 0 
L 3372 0 
L 2619 2869 
L 1863 0 
L 1184 0 
L 269 3500 
z
" transform="scale(0.015625)"/>
     <path id="DejaVuSans-30" d="M 2034 4250 
Q 1547 4250 1301 3770 
Q 1056 3291 1056 2328 
Q 1056 1369 1301 889 
Q 1547 409 2034 409 
Q 2525 409 2770 889 
Q 3016 1369 3016 2328 
Q 3016 3291 2770 3770 
Q 2525 4250 2034 4250 
z
M 2034 4750 
Q 2819 4750 3233 4129 
Q 3647 3509 3647 2328 
Q 3647 1150 3233 529 
Q 2819 -91 2034 -91 
Q 1250 -91 836 529 
Q 422 1150 422 2328 
Q 422 3509 836 4129 
Q 1250 4750 2034 4750 
z
" transform="scale(0.015625)"/>
     <path id="DejaVuSans-34" d="M 2419 4116 
L 825 1625 
L 2419 1625 
L 2419 4116 
z
M 2253 4666 
L 3047 4666 
L 3047 1625 
L 3713 1625 
L 3713 1100 
L 3047 1100 
L 3047 0 
L 2419 0 
L 2419 1100 
L 313 1100 
L 313 1709 
L 2253 4666 
z
" transform="scale(0.015625)"/>
    </defs>
    <use xlink:href="#DejaVuSans-45"/>
    <use xlink:href="#DejaVuSans-75" x="63.183594"/>
    <use xlink:href="#DejaVuSans-72" x="126.5625"/>
    <use xlink:href="#DejaVuSans-6f" x="165.425781"/>
    <use xlink:href="#DejaVuSans-70" x="226.607422"/>
    <use xlink:href="#DejaVuSans-61" x="290.083984"/>
    <use xlink:href="#DejaVuSans-77" x="351.363281"/>
    <use xlink:href="#DejaVuSans-61" x="433.150391"/>
    <use xlink:href="#DejaVuSans-68" x="494.429688"/>
    <use xlink:href="#DejaVuSans-6c" x="557.808594"/>
    <use xlink:href="#DejaVuSans-20" x="585.591797"/>
    <use xlink:href="#DejaVuSans-32" x="617.378906"/>
    <use xlink:href="#DejaVuSans-30" x="681.001953"/>
    <use xlink:href="#DejaVuSans-32" x="744.625"/>
    <use xlink:href="#DejaVuSans-34" x="808.248047"/>
   </g>
  </g>
 </g>
 <defs>
  <clipPath id="p6512a7fd37">
   <rect x="39.5409" y="50.4" width="558" height="554.4"/>
  </clipPath>
 </defs>
</svg>
